<?xml version="1.0" encoding="utf-8"?>
<!-- Generator: Adobe Illustrator 21.0.0, SVG Export Plug-In . SVG Version: 6.00 Build 0)  -->
<svg version="1.1" id="Capa_1" xmlns="http://www.w3.org/2000/svg" xmlns:xlink="http://www.w3.org/1999/xlink" x="0px" y="0px"
	 viewBox="0 0 585.7 585.7" style="enable-background:new 0 0 585.7 585.7;" xml:space="preserve">
<style type="text/css">
	.st0{fill:none;stroke:#000000;stroke-width:6;stroke-miterlimit:3.864;}
	.st1{stroke:#000000;stroke-width:6;stroke-miterlimit:3.864;}
	.st2{fill:none;stroke:#020000;stroke-width:6;stroke-miterlimit:3.864;}
	.st3{fill:#FFFFFF;}
	.st4{fill:#FFFF00;stroke:#FFFF00;}
	.st5{fill:#FF0000;}
	.st6{fill:#FFFF00;stroke:#FFFF00;stroke-width:2.1876;stroke-miterlimit:3.864;}
	.st7{fill:#FF0000;stroke:#FF0000;stroke-width:2.1876;stroke-miterlimit:3.864;}
	.st8{fill:#FFFF00;}
	.st9{fill:none;stroke:#FF0000;stroke-width:4.5;stroke-miterlimit:3.864;}
	.st10{fill:none;stroke:#FF0000;stroke-width:6;stroke-miterlimit:3.864;}
	.st11{fill:#FFFF00;stroke:#FFFF00;stroke-width:2;stroke-miterlimit:3.864;}
	.st12{fill:none;stroke:#FFFF00;stroke-width:4;stroke-miterlimit:3.864;}
</style>
<g id="Capa_3">
	<ellipse class="st0" cx="292.5" cy="291" rx="270.5" ry="271"/>
	<rect x="136.6" y="69.5" class="st1" width="317.2" height="439"/>
	<rect x="162.9" y="53.1" class="st1" width="253.7" height="478.8"/>
	<rect x="200.1" y="36.2" class="st1" width="179.5" height="511.4"/>
	<rect x="108.5" y="88.6" class="st1" width="80.8" height="407.5"/>
	<rect x="95.4" y="105.4" class="st1" width="143.6" height="376.6"/>
	<rect x="84.7" y="117.5" class="st1" width="137.3" height="351.5"/>
	<rect x="75.3" y="129.5" class="st1" width="118.7" height="326.5"/>
	<rect x="67.3" y="140.9" class="st1" width="86.1" height="303"/>
	<rect x="55.8" y="159.8" class="st1" width="47.3" height="269.4"/>
	<rect x="47.4" y="176.2" class="st1" width="19.2" height="233.8"/>
	<rect x="43.1" y="189" class="st1" width="4.3" height="207.1"/>
	<rect x="36.8" y="203.1" class="st1" width="10.6" height="176.5"/>
	<rect x="29.7" y="229" class="st1" width="13.3" height="126.4"/>
	<rect x="23.2" y="263.8" class="st1" width="32.6" height="52.5"/>
	<rect x="29" y="216" class="st1" width="27" height="20"/>
	<rect x="23.2" y="311.9" class="st1" width="16.3" height="24.5"/>
	<rect x="60.9" y="150.9" class="st1" width="16.1" height="31.1"/>
	<rect x="52.2" y="166.5" class="st1" width="36.7" height="62.5"/>
	<rect x="90.6" y="110.6" class="st1" width="15.4" height="15.4"/>
	<rect x="103.1" y="97.5" class="st1" width="26.9" height="13.2"/>
	<rect x="122.3" y="80.4" class="st1" width="31" height="8.2"/>
	<rect x="130" y="74.3" class="st1" width="64" height="14.2"/>
	<rect x="145.4" y="59" class="st1" width="33.6" height="10.5"/>
	<rect x="184.2" y="42.6" class="st1" width="31.5" height="5.4"/>
	<rect x="119.6" y="468.6" class="st1" width="74.8" height="36"/>
	<rect x="153.3" y="511" class="st1" width="62.4" height="16.4"/>
	<rect x="136" y="492.6" class="st1" width="31.2" height="23.4"/>
	<rect x="401" y="482" class="st1" width="42.3" height="34"/>
	<rect x="388.6" y="516" class="st1" width="50" height="9.1"/>
	<rect x="359" y="520" class="st1" width="34.4" height="22.6"/>
	<rect x="401" y="97.5" class="st1" width="63.7" height="402.5"/>
	<rect x="438.7" y="80.4" class="st1" width="27.5" height="27.5"/>
	<rect x="428.9" y="140.9" class="st1" width="90.9" height="297"/>
	<rect x="449.9" y="94.1" class="st1" width="33.5" height="46.8"/>
	<rect x="463.2" y="104.1" class="st1" width="25" height="46.8"/>
	<rect x="466.1" y="117.5" class="st1" width="36.7" height="36.7"/>
	<rect x="471.1" y="209.3" class="st1" width="80.5" height="175.7"/>
	<rect x="497.3" y="150.9" class="st1" width="28.1" height="52.2"/>
	<rect x="513.7" y="166.5" class="st1" width="20.3" height="58.3"/>
	<rect x="516" y="193.8" class="st1" width="31" height="31"/>
	<rect x="505.8" y="182" class="st1" width="36.2" height="21.1"/>
	<rect x="488.2" y="129.5" class="st1" width="25.5" height="15.5"/>
	<rect x="466.7" y="110.7" class="st1" width="29.8" height="18.8"/>
	<rect x="449.3" y="88.6" class="st1" width="25.1" height="15.5"/>
	<rect x="449.3" y="431.7" class="st1" width="50.4" height="40.7"/>
	<rect x="466.7" y="409.9" class="st1" width="49.3" height="38.4"/>
	<rect x="428.9" y="462" class="st1" width="55.5" height="29.7"/>
	<rect x="456.7" y="434.7" class="st1" width="51.3" height="21.3"/>
	<rect x="505.8" y="375.6" class="st1" width="25.7" height="53.5"/>
	<rect x="234" y="519.2" class="st1" width="23" height="37"/>
	<rect x="248.8" y="486.6" class="st1" width="105.8" height="75.4"/>
	<rect x="181.8" y="524.9" class="st1" width="18.3" height="18.3"/>
	<rect x="525.4" y="388.9" class="st1" width="16.6" height="16.6"/>
	<rect x="547" y="236" class="st1" width="9.1" height="116.1"/>
	<rect x="531.5" y="268.5" class="st1" width="31.5" height="38.5"/>
	<rect x="408" y="59" class="st1" width="30.7" height="15.3"/>
	<rect x="368" y="42.6" class="st1" width="33" height="16.4"/>
	<rect x="215.7" y="30.7" class="st1" width="152.3" height="5.5"/>
	<rect x="248.8" y="24.5" class="st1" width="92.8" height="18.1"/>
	<rect x="172" y="45.3" class="st1" width="28" height="7.8"/>
	<rect x="239" y="24.5" class="st1" width="9.8" height="9.1"/>
	<rect x="374.4" y="35.2" class="st1" width="10.1" height="10.1"/>
	<rect x="399" y="46.9" class="st1" width="11.1" height="11.1"/>
	<rect x="404.6" y="52.4" class="st1" width="24.4" height="14.2"/>
	<ellipse class="st0" cx="293.7" cy="291.8" rx="271.7" ry="271.8"/>
	<rect x="222" y="537.7" class="st0" width="12" height="19.4"/>
	<rect x="375" y="525.9" class="st1" width="33" height="12.6"/>
	<rect x="329.2" y="538.6" class="st1" width="34.5" height="15.9"/>
	<rect x="216.3" y="534.8" class="st1" width="17.7" height="17.7"/>
	<ellipse class="st2" cx="292.5" cy="292.2" rx="270.5" ry="272.2"/>
	<rect x="29" y="348.9" class="st3" width="31.9" height="12"/>
	<rect x="23.2" y="336.4" width="56.3" height="28.6"/>
	<rect x="554.1" y="304" width="11.3" height="11.4"/>
</g>
<g id="Capa_2">
	<g>
		<path class="st4" d="M292.9,379.6c-24.4,0-44.1-19.8-44.1-44.1c0-24.4,19.8-44.1,44.1-44.1c24.4,0,44.1-19.8,44.1-44.1
			c0-24.4-19.8-44.1-44.1-44.1l0,0c-48.7,0-88.3,39.5-88.3,88.3C204.7,340.1,244.2,379.6,292.9,379.6z"/>
		<path class="st5" d="M292.9,203.1c24.4,0,44.1,19.8,44.1,44.1c0,24.4-19.8,44.1-44.1,44.1c-24.4,0-44.1,19.8-44.1,44.1
			c0,24.4,19.8,44.1,44.1,44.1l0,0c48.7,0,88.3-39.5,88.3-88.3C381.2,242.6,341.7,203.1,292.9,203.1z"/>
		<path class="st6" d="M301.8,342.2c0-0.5-0.7-1.3-2.1-2c-0.2-0.2-0.4-0.3-0.5-0.4c-0.5-0.4-0.9-0.5-1.1-0.5l0,0
			c-0.2,0-0.5,0.1-1,0.3c-0.5,0.1-1.1,0.3-1.8,0.5c-0.3,0.1-0.7,0.1-1,0.2c-0.1,0-0.1,0-0.2,0c-0.5,0.1-1,0.2-1.5,0.3
			c-0.7,0.1-1.4,0.3-2.1,0.4c-1,0.2-2,0.3-2.9,0.4c-0.1,0-0.1,0-0.2,0.1c-0.1,0-0.2,0-0.4,0c-0.1,0-0.3,0-0.4,0s-0.2,0-0.3,0
			c-0.1,0-0.2,0-0.4,0.1l0,0c0,0,0,0-0.1,0c0,0-0.1,0-0.1-0.1c-0.1,0-0.1,0-0.2,0l0,0l0,0l0,0h-0.1c-0.5-0.2-0.9-0.3-1-0.3
			c-0.4,0-0.5,0.2-0.5,0.6s0,0.6,0,0.9c0.3,1.2,0.4,2.4,0.5,3.7c0,0.6,0,1.3,0,1.9c0,1.2,0,2.5-0.1,3.6c0,0.6,0,1.2-0.1,1.7
			c0,0.6-0.1,1.3-0.1,2c-0.1,0.4-0.2,0.6-0.2,0.8c0,0.1,0,0.2,0,0.4c0.1,0.3,0.2,0.6,0.4,0.9c0.1,0.4,0.2,0.6,0.5,0.9l0,0l0,0l0,0
			c0.1,0.1,0.2,0.1,0.4,0.1c0.3,0,0.5-0.1,0.7-0.5v-0.1l0,0l0,0c0.1-0.2,0.2-0.3,0.3-0.5l0,0c0.1-0.1,0.1-0.3,0.2-0.4l0,0l0,0
			c0.1,0,0.1,0,0.2,0.1c0.1,0,0.2,0,0.2,0l0,0l0,0l0,0c0.1,0,0.4,0,0.6,0c0.4,0,1.1,0,1.9-0.1l4.8-0.2c0.3,0,0.5,0,0.8-0.1
			c0.5,0.7,1.2,1.7,1.9,3c0.3,0.6,0.6,0.9,1,1l0,0h0.1l0,0l0,0c0.4,0,0.9-0.3,1.4-0.8c0.2-0.2,0.4-0.4,0.6-0.6
			c0.7-1.3,1.1-2.4,1.2-3.8c-0.5-3.6-0.8-5.9-0.8-6.9c0.2-3.3,0.3-5.2,0.6-5.7C301.5,342.7,301.7,342.5,301.8,342.2z M297.9,349.6
			c-0.1,2.8-0.3,4.6-0.4,5.3c0,0.2,0,0.3-0.1,0.4c0,0,0,0-0.1-0.1c-0.2-0.1-0.5-0.3-0.7-0.4l0,0c-0.2-0.1-0.3-0.1-0.4-0.2
			c-0.3-0.1-0.5-0.2-0.7-0.2c-0.1,0-0.2,0-0.3,0c-0.4,0-1.2,0.1-2.3,0.2c-0.9,0.1-1.9,0.3-2.9,0.4c-0.9,0.1-1.9,0.1-2.8,0.2
			c-0.1,0-0.2,0-0.4,0l0,0v0.1l0,0v-0.1l0,0V355l0.2-5.2l0,0l0,0l0,0l0,0c0.1,0.1,0.2,0.1,0.3,0.1c0.2,0.1,0.4,0.1,0.7,0.1
			c0,0,0,0,0.1,0s0.2,0,0.3,0c0.1,0,0.3,0,0.4,0s0.3,0,0.4,0c0.5,0,1.1,0,1.9-0.2c1.1-0.1,2-0.2,2.7-0.3c0.5-0.1,0.9-0.1,1-0.2
			c0.5,0,1.3-0.1,2.1,0c0.5-0.1,0.9-0.2,1.2-0.4C297.9,349.1,297.9,349.4,297.9,349.6z M298,347.8c-0.2-0.1-0.5-0.2-0.9-0.3
			c-0.1-0.1-0.1-0.1-0.3-0.1c-0.4-0.1-0.7-0.1-0.9-0.2c-0.4-0.1-0.6-0.1-0.9-0.1c-0.1,0-0.4,0-1,0.1c-0.5,0.1-1,0.3-1.6,0.4l0,0
			c-0.1,0-0.2,0-0.3,0.1c-1.5,0.3-3,0.5-4.6,0.7c-0.1,0-0.3,0-0.3,0c-0.1,0-0.2,0-0.3,0l0,0l0,0l0,0l0,0l0.2-5.2c0.1,0,0.2,0,0.3,0
			c0.1,0,0.1,0,0.2,0c0.3,0,0.7-0.1,1.3-0.3c1.4-0.2,2.7-0.4,3.8-0.6c1.1-0.1,1.9-0.1,2.6-0.1l0,0h0.1c0.7,0,1.2,0,1.4,0
			c0.2,0,0.3,0,0.4,0.1c0.4,0.1,0.6,0.4,0.6,0.7C298,343.9,298,345.6,298,347.8z M286.2,358.1L286.2,358.1v0.1V358.1z M318.8,346.7
			c-0.1-0.1-0.2-0.1-0.4-0.2c-0.6-0.2-1.1-0.4-1.6-0.6c-3.7-1.4-6.5-2.7-8.3-3.8l0,0c-1-0.6-2.2-1.5-3.7-2.7c-0.7-0.6-1.5-1.3-2.4-2
			c-0.2-0.1-0.4-0.3-0.5-0.4c-0.8-0.7-1.7-1.5-2.6-2.3c-0.7-0.6-1.2-1.1-1.8-1.5c1.5,0,2.8,0,4,0c0.2,0,0.4,0,0.6,0
			c2.3,0.1,4.7,0.2,6.7,0.4c1.9,0.1,2.8-0.2,2.8-0.7c0-0.1,0-0.2,0-0.2c-0.1-0.6-0.7-1.2-1.9-1.9c-1.3-0.5-2.2-0.9-2.5-1h-0.1
			c-0.3,0-0.8,0.1-1.7,0.3c-0.8,0.1-1.7,0.3-2.7,0.4c-1.5,0.2-3.2,0.4-5.3,0.6c-0.5,0.1-0.9,0.1-1.4,0.2c-0.5,0-1.1,0-1.6,0.1
			c-0.4,0-0.8,0-1.1,0.1c-0.3,0-0.7,0-1,0c-0.1,0-0.3,0-0.4,0c-0.6,0-1.2,0.1-1.9,0.1l0,0c0.3-0.8,0.7-1.6,1-2.5l0,0
			c0.2-0.4,0.3-0.9,0.5-1.3l0,0c3-0.3,4.9-0.6,5.7-0.7c0.1,0,0.3,0,0.4,0c1.1-0.1,2.4-0.2,4-0.2c0.5-0.1,0.9-0.2,1.1-0.3
			c0.2-0.1,0.3-0.2,0.4-0.2c0.1-0.1,0.2-0.2,0.2-0.4c0-0.2-0.4-0.5-1.3-0.8l0,0c-0.8-0.2-1.3-0.4-1.7-0.4c-0.1,0-0.2,0-0.3,0
			c-0.1,0-0.9,0.1-2.3,0.2l0,0l0,0c-1.8,0.3-3.5,0.6-5.3,0.8c0.1-0.2,0.1-0.5,0.2-0.7c0-0.2,0.1-0.3,0.1-0.5
			c0.1-0.4,0.2-0.8,0.3-1.1c0.1-0.2,0.1-0.5,0.2-0.7c0.1-0.3,0.2-0.6,0.3-1v-0.1c0.5,0,0.9-0.1,1.4-0.1c0.3,0,0.7,0,1-0.1
			c0.2,0,0.5,0,0.7-0.1c0.4,0,0.8,0,1.2-0.1c2-0.2,3.6-0.4,4.6-0.6c0.3,0,0.6-0.1,0.8-0.1c0.9-0.2,1.4-0.5,1.4-0.7
			c0-0.4-0.4-0.8-0.9-1.1c-0.2-0.1-0.4-0.2-0.6-0.3l0,0c-0.4-0.2-0.8-0.3-1.1-0.4l0,0c-0.1,0-0.3-0.1-0.4-0.1
			c-0.3,0-0.6,0.1-1.2,0.2c-0.7,0.2-1.5,0.3-2.3,0.5c-0.2,0-0.4,0.1-0.5,0.1c-0.8,0.1-1.7,0.2-2.7,0.4c-0.1,0-0.1,0-0.2,0
			c-0.2,0-0.5,0-0.7,0c0.4-1.4,0.7-2.4,1.1-3.1c0.4-0.6,0.5-1,0.6-1.3c0-0.5-0.5-1-1.6-1.7l0,0c-1.1-0.7-2-1.1-2.5-1.1
			s-0.8,0.2-1,0.9c0,0.1,0.1,0.4,0.1,0.6c0,0.1,0,0.2,0.1,0.3c0.2,0.9,0.3,1.9,0.3,2.9c-0.1,0.9-0.2,1.8-0.3,2.7v0.1
			c-1.7,0.2-3.4,0.3-4.9,0.4c-0.9,0-1.7,0.1-2.5,0.2c-0.2,0-0.3,0-0.5,0c-0.9,0-1.4,0.1-1.5,0.2v0.1c0,0.3,0.2,0.7,0.7,1
			c0.1,0.1,0.3,0.1,0.5,0.2c0.5,0.2,1.2,0.3,2.2,0.3c0.5,0,1,0,1.8,0.1c0.1,0,0.1,0,0.2-0.1c0.3,0,0.6,0,0.9,0c0.1,0,0.2,0,0.4,0
			c0.7,0,1.5-0.1,2.4-0.1c-0.3,1.2-0.6,2.3-0.9,3.5c-0.1,0.2-0.2,0.5-0.2,0.7c-2,0.2-4.1,0.4-6.2,0.6c-1.1,0-1.8,0.2-1.8,0.6
			s0.4,0.6,1.1,0.9c0.5,0.2,1,0.2,1.8,0.2c0.4,0,1,0,1.6,0c0.3,0,0.5,0,0.8,0c0.2,0,0.5,0,0.7,0c0.1,0,0.1-0.1,0.2-0.1
			c0.2,0,0.3,0,0.5,0c0.1,0,0.1,0,0.2,0h0.1c0.1,0,0.1,0,0.2,0c-0.5,1.4-1.1,2.7-1.7,3.8l0,0l0,0l0,0l0,0l0,0l0,0
			c-0.1,0-0.3,0-0.4,0.1c-0.1,0-0.2,0-0.3,0c-0.6,0.1-1.2,0.1-1.7,0.2c-1.4,0.3-3.5,0.5-6.1,0.5c-0.9,0-1.8,0-2.8-0.1l0,0
			c-0.4,0-0.6,0-0.8,0.1c-0.2,0.1-0.4,0.3-0.4,0.6c0,0.1,0,0.1,0.1,0.2c0.2,0.3,0.8,0.7,1.6,1.1c1.3,0.6,2.1,0.8,2.8,0.9l0,0
			c0.1,0,0.2,0,0.4-0.1c0.3-0.1,0.8-0.2,1.4-0.4l0,0c1.3-0.3,2.6-0.6,3.8-0.9c0.3-0.1,0.7-0.1,1-0.2c-0.5,0.7-0.9,1.4-1.4,2.1l0,0
			c-0.2,0.3-0.5,0.6-0.7,0.9c0,0,0,0,0,0.1c-0.2,0.3-0.4,0.6-0.6,0.8l-0.1,0.1c-0.2,0.2-0.4,0.5-0.6,0.7c-0.1,0.1-0.1,0.1-0.2,0.2
			c-0.2,0.2-0.3,0.4-0.5,0.5c-0.1,0.1-0.2,0.2-0.4,0.4c-0.1,0.1-0.2,0.3-0.4,0.4c-0.2,0.2-0.5,0.5-0.7,0.7c-0.5,0.5-1.2,1-1.9,1.6
			c-1.9,1.4-4.5,3.1-7.9,5c-0.6,0.3-1,0.5-1.2,0.7c-0.1,0.1-0.1,0.2-0.1,0.2c0,0.1,0,0.1,0,0.2c0.1,0.1,0.2,0.1,0.5,0.1l0,0
			c0.6-0.1,1.7-0.3,3-0.7c3.7-0.9,7-2.8,10.1-5.6c0.6-0.6,1.2-1.3,1.8-1.9c0.6-0.6,1.1-1.2,1.6-1.8c0.3-0.5,0.7-1,1.1-1.5v-0.1l0,0
			v0.1c0.3-0.5,0.7-1,0.9-1.5l0,0c0.4-0.7,0.8-1.4,1.2-2.1c0.6,0,1.2-0.1,1.8-0.1c0.9-0.1,1.8-0.1,2.7-0.2c0.3,0,0.5,0,0.8-0.1
			c0.2,0.1,0.5,0.2,0.7,0.4c0.7,0.5,1.5,1,2.2,1.7c0,0.1,0.1,0.1,0.1,0.1c1.2,1.2,2.5,2.5,3.7,4.1c0.3,0.5,0.7,0.9,1.1,1.3
			c1.3,1.6,2.5,2.9,3.4,3.9c1.6,1.8,2.7,2.9,3.1,3.2c0.9,0.5,1.8,0.8,2.5,0.8c1.4,0.1,3.7-0.3,7.2-1c0.6-0.1,0.9-0.3,0.9-0.6l0,0
			C319.3,347,319.2,346.9,318.8,346.7z"/>
		<path class="st7" d="M275.6,243L275.6,243L275.6,243h-0.1c-1,0-1.7,0.3-1.7,0.6c0,0.4,0.4,0.6,1.1,0.8l0,0
			c0.1,0.1,0.2,0.1,0.3,0.1c0.2,0,0.3,0.1,0.5,0.1s0.3,0,0.5,0l0,0c0.3,0,0.4,0,0.5,0l0,0c0.4,0,1-0.1,1.9-0.3l0,0
			c0.2,0,0.3-0.1,0.5-0.1h0.1c0.2-0.1,0.4-0.1,0.6-0.2c0.8-0.2,1.4-0.4,1.7-0.5l0,0c0.2-0.1,0.4-0.1,0.7-0.1c0.2,0,0.5-0.1,0.8-0.1
			c0.3-0.1,0.5-0.1,0.7-0.2h0.1c0.2-0.1,0.4-0.2,0.6-0.3c0.1-0.1,0.2-0.2,0.2-0.4l0,0l0,0c0-0.3-0.5-0.5-1.4-0.9
			c-0.6-0.1-1-0.2-1.4-0.3c-0.3,0-0.5-0.1-0.6-0.1c0,0-0.1,0-0.2,0.1c-0.1,0-0.3,0.1-0.6,0.2l0,0c-0.4,0.1-0.9,0.3-1.3,0.4
			c-1,0.4-1.9,0.6-3.1,0.9l0,0C276.1,242.9,275.9,242.9,275.6,243z M286,254.9c0.1-0.1,0.1-0.3,0.2-0.4v-0.1c0-0.1,0-0.2,0-0.2
			s0-0.1,0-0.2c0-0.1-0.1-0.2-0.1-0.2c0-0.1-0.1-0.2-0.1-0.2v0.1l0,0v-0.1c-0.1-0.1-0.4-0.4-0.6-0.5c-1.3-0.6-2.3-0.9-2.8-0.9h-0.1
			c-0.2,0-0.5,0.2-0.8,0.4c-0.2,0.1-0.5,0.2-0.7,0.3c-0.5,0.2-1.1,0.4-1.6,0.6l0,0c-0.3,0.1-0.6,0.3-1,0.4l0,0l0,0
			c-0.5,0.1-1.3,0.2-2,0.4l0,0l0,0l0,0c-0.3,0-0.5,0.1-0.8,0.1c-0.2,0-0.4,0-0.6,0l0,0l0,0l0,0h0.1l0,0H275l0,0l0,0l0,0
			c-0.1-0.1-0.3-0.1-0.4-0.1c-0.5-0.3-1.3-0.4-1.9-0.4c-0.5,0-0.8,0.3-0.8,0.8l0,0c0,0.1,0,0.1,0.1,0.2l0.1,0.1c0,0,0.1,0,0.2,0
			c0.3,0.2,0.5,0.4,0.7,0.7c0.3,0.3,0.5,0.6,0.6,0.9c0.1,0.1,0.1,0.3,0.2,0.4c0.2,0.5,0.3,1.2,0.5,2.1l0.5,2.4
			c0.1,0.4,0.2,0.8,0.3,1.2c0.1,0.2,0.2,0.5,0.4,0.7c0,0.1,0.1,0.1,0.1,0.3l0,0c0.1,0.1,0.1,0.1,0.2,0.2s0.2,0.2,0.3,0.2
			c0.1,0,0.1,0,0.2,0l0,0h0.1l0,0l0,0l0,0c0.2,0,0.3-0.1,0.3-0.2c0.1-0.1,0.1-0.2,0.2-0.3l0,0c0.1-0.1,0.1-0.2,0.2-0.3l0,0
			c0-0.1,0.1-0.2,0.1-0.3h0.1c0.1,0,0.3,0,0.4,0l0,0c0.3,0,0.8-0.1,1.3-0.1l3-0.4l0,0c0.4-0.1,0.7-0.1,1-0.2h0.1
			c0.3,0,0.7-0.1,1-0.1s0.4,0,0.4-0.3c0-0.2-0.3-0.5-0.7-0.8c-0.1-0.1-0.2-0.1-0.3-0.2l0.8-2.3l0.3-0.8c0.1-0.4,0.3-0.7,0.4-1
			c0.2-0.5,0.5-1,0.7-1.3l0,0C285.7,255.1,285.8,255,286,254.9L286,254.9z M281.9,255.4c0,0.3,0,0.7,0,1.1c0,0.2,0,0.4-0.1,0.7
			c-0.1,0.9-0.4,1.8-0.5,2.8c0,0,0,0,0,0.1c-0.3,0-0.6,0.1-1,0.2l0,0c-0.5,0.1-1,0.3-1.5,0.3c-0.1,0-0.3,0-0.4,0.1h-0.1
			c-0.4,0-0.8,0.1-1.2,0.1c0-0.5-0.1-1-0.2-1.7V259c0-0.3-0.1-0.5-0.1-0.8c0-0.1,0-0.2,0-0.3c-0.1-0.3-0.1-0.7-0.2-1.1
			c0-0.1,0-0.2-0.1-0.3c0-0.2,0-0.5,0-0.7c0.4-0.1,0.9-0.2,1.5-0.3c0.4-0.1,0.9-0.2,1.5-0.3c0.9-0.3,1.5-0.4,2.2-0.4l0,0
			c0.2,0,0.3,0,0.4,0.1s0.1,0.2,0.1,0.3C281.9,255.2,281.9,255.3,281.9,255.4z M293.9,225.5c0,0.1,0,0.1,0.1,0.2
			c0.2,0.5,0.6,1.3,1.3,2.4c0.3,0.5,0.6,1,1,1.4l0,0c1,1.5,1.8,2.4,2.5,2.9c0.3,0.2,0.6,0.3,0.9,0.3c1.3,0,1.9-0.6,1.9-2
			c0-0.9-0.3-1.7-0.8-2.5c-0.4-0.8-1.4-1.5-2.9-2.3c-1.1-0.5-2-0.9-2.9-1l0,0c-0.3,0-0.5,0-0.8,0s-0.4,0.1-0.4,0.4
			C293.8,225.2,293.9,225.3,293.9,225.5C293.9,225.4,293.9,225.4,293.9,225.5z M295.6,249c0.4-0.6,0.8-1.3,1.3-1.8
			c0.3-0.4,0.4-0.6,0.4-1l0,0c0,0,0-0.1-0.1-0.2c-0.1-0.2-0.3-0.4-0.7-0.7c-0.1-0.1-0.2-0.2-0.4-0.3c-0.3-0.2-0.5-0.4-0.7-0.5
			c-0.4-0.2-0.6-0.4-0.8-0.4h-0.1c0,0-0.3,0.1-0.6,0.4c-1.8,0.7-3.8,1.2-6.1,1.6c-0.2,0-0.3,0.1-0.5,0.1c-0.5,0.1-0.8,0.3-0.8,0.4
			l0,0l0,0v0.1c0,0.1,0.2,0.3,0.4,0.4c0.2,0.1,0.4,0.2,0.6,0.4c0.6,0.4,1.1,0.6,1.5,0.6l0,0l0,0c0.2,0,0.9-0.3,2.2-0.9
			c0.2-0.1,0.4-0.2,0.7-0.3c0.1-0.1,0.2-0.1,0.3-0.1c0.2-0.1,0.4-0.1,0.5-0.1l0,0l0,0c0.2,0,0.2,0,0.2,0.3c0,0.1,0,0.2,0,0.3
			c-0.1,0.4-0.2,1-0.6,2c-0.2,0.5-0.4,1-0.6,1.5s-0.4,1-0.6,1.5c-0.3,0.6-0.6,1.2-1,1.9c-0.3,0.5-0.7,1.1-1.1,1.8
			c-0.8,1.2-1.7,2.4-3,3.8l0,0c0,0-0.1,0-0.1,0.1c-0.2,0.1-0.3,0.3-0.3,0.4s0.2,0.2,0.4,0.2c0.1,0,0.1,0,0.2,0l0,0
			c0.4,0,0.9-0.2,1.6-0.6c0.2-0.1,0.5-0.3,0.7-0.5c0.6-0.4,1.2-0.8,1.8-1.4c0.6-0.6,1.2-1.3,1.7-2.1
			C293.3,253.8,294.5,251.7,295.6,249z M316.4,257.8c-2.6-1.2-4.7-2.5-6.3-3.7c-0.9-0.7-1.7-1.3-2.4-1.9c-1.3-1.1-2.8-2.8-4.6-5.1
			c0.2-0.1,0.4-0.2,0.6-0.3l0,0c0.2-0.1,0.5-0.3,0.7-0.4c1.5-1,3-2,4.3-3c0.4-0.3,0.9-0.7,1.3-1c1-0.9,1.8-1.4,2.4-1.7
			c0.4-0.1,0.5-0.4,0.5-0.5c0-0.4-0.4-1-1.3-1.5c-0.1-0.1-0.3-0.2-0.4-0.2c-0.9-0.5-1.6-0.7-2.1-0.8c-0.2,0-0.3,0-0.4,0l0,0
			c-0.4,0-0.6,0.1-0.7,0.4c0,0.1,0,0.2,0,0.3c0,0.6-0.5,1.8-1.4,3.2c-0.6,0.8-1.2,1.7-2,2.7c-0.2,0.3-0.5,0.6-0.8,0.9
			c0,0,0,0-0.1,0.1c-0.4,0.4-0.8,0.8-1.2,1.3c-0.4-0.5-0.7-1-1.1-1.5v-1.6c0-0.3,0-0.5,0-0.8c0.1-1.8,0.2-3.2,0.6-4.2l0,0
			c0.3-0.5,0.4-0.9,0.4-1.3l0,0l0,0c0-0.1,0-0.2-0.1-0.3c-0.1-0.4-0.4-0.7-1-1.1c-1.3-0.5-2-0.8-2.3-0.8s-0.8,0.1-1.5,0.5
			c0,0,0,0-0.1,0c-0.5,0.2-1,0.4-1.5,0.6c-1.5,0.5-3.2,1-5,1.3c-0.4,0.1-0.6,0.1-0.8,0.2c-0.2,0.1-0.2,0.1-0.2,0.2
			c0,0.1,0.3,0.4,0.6,0.6c0.2,0.2,0.4,0.3,0.6,0.3c0.2,0.1,0.4,0.1,0.6,0.1c0.1,0,0.3,0,0.5,0l0,0l0,0c0.6,0,1.5-0.1,2.9-0.4
			c1.1-0.1,2-0.3,2.5-0.3c0.2,0,0.5,0.3,0.5,0.6c0,0.1,0.1,0.3,0.1,0.4c0.2,1.1,0.3,2.5,0.3,4.4c0,9.3-0.1,15.2-0.5,17.6
			c-0.4,1.3-0.8,1.8-1.1,1.8l0,0c-0.1,0-0.1,0-0.2,0l0,0c-0.1,0-0.2,0-0.3-0.1c-0.6-0.1-1.5-0.4-2.9-0.8c-0.5-0.1-0.9-0.3-1.1-0.3
			l0,0c-0.1,0-0.6,0.1-0.6,0.3c0,0.1-0.2,0.6,0.3,0.9c0.6,0.6,2.2,1.4,2.9,2.3l0,0c0.5,0.5,1,1.1,1.7,1.9c0.1,0.2,0.3,0.4,0.4,0.6
			c0.3,0.3,0.6,0.5,0.8,0.5c0.8,0,1.5-0.6,2.3-1.9c0.9-1.5,1.4-3.4,1.4-5.7l-0.1-13.1c0.2,0.4,0.4,0.7,0.6,1.1l0,0
			c0.9,1.5,1.7,2.9,2.4,4.1c1.7,2.8,3,4.8,3.9,5.9c0.1,0.2,0.3,0.4,0.5,0.5c0.4,0.3,0.8,0.5,1.4,0.6c0.3,0,0.6,0.1,0.9,0.1
			c0.8,0,1.7-0.1,2.5-0.2c1-0.2,2.1-0.4,3-0.7c0.6-0.1,0.9-0.3,0.9-0.5C317.5,258.4,317.1,258.2,316.4,257.8z M276.8,249.9
			c0.1,0,0.2,0,0.4,0c0.4,0,0.9-0.1,1.5-0.2l0,0c0.2,0,0.4,0,0.6-0.1c1-0.2,1.8-0.4,2.2-0.4c0.1,0,0.1,0,0.2,0
			c0.4-0.1,0.9-0.3,1.5-0.3c0.1,0,0.3-0.1,0.4-0.1c0.9-0.2,1.3-0.5,1.3-0.8c0-0.2-0.4-0.5-1.1-0.8c-0.1,0-0.2-0.1-0.3-0.1
			c-1-0.3-1.7-0.4-2-0.4l0,0c-0.1,0-0.3,0.1-0.7,0.2c-1.5,0.5-2.9,0.8-4.4,1.2c-0.1,0-0.3,0-0.5,0.1l0,0l0,0h-0.1l0,0l0,0l0,0
			c-1,0-1.7,0.3-1.7,0.8c0,0.1,0,0.1,0.1,0.2c0.1,0.2,0.5,0.4,1.1,0.6l0,0c0.1,0,0.3,0.1,0.4,0.1c0,0,0.1,0,0.1,0.1l0,0
			c0.3,0,0.5,0,0.8,0l0,0l0,0l0,0C276.5,249.9,276.7,249.9,276.8,249.9z M274,239.3c0.5-0.1,1-0.3,1.5-0.4l0,0l0,0l0,0h0.1
			c4.1-1,7.6-1.7,10.6-2.1c0.3,0,0.7,0,1-0.1c0.5,0,0.8-0.1,1-0.2c0,0,0.1-0.1,0.1-0.2c0-0.1,0-0.2-0.1-0.3c0,0,0,0,0-0.1
			c0,0,0,0,0-0.1s-0.1-0.2-0.2-0.3c-0.2-0.2-0.4-0.4-0.7-0.6l0,0l0,0c-0.4-0.3-0.9-0.4-1.3-0.5l0,0c-0.3,0-0.6,0-0.9,0l0,0
			c-0.1,0-0.1,0-0.2,0s-0.3,0-0.5,0.1c-0.4,0.1-0.9,0.1-1.6,0.3c-0.1,0-0.2,0-0.3,0l0,0c-0.3,0.1-0.5,0.1-0.8,0.1
			c0.2-0.1,0.4-0.3,0.5-0.6c0.2-0.3,0.2-0.8,0.2-1.4c0-0.3,0-0.5,0-0.8c-0.1-0.6-0.2-1.2-0.5-1.7c-0.1-0.2-0.2-0.4-0.4-0.6
			c-0.6-0.6-1.7-1.1-3.1-1.7c-0.6-0.3-1.1-0.5-1.5-0.5c-0.1,0-0.2,0-0.2,0l0,0c-0.2,0.1-0.3,0.2-0.4,0.3v0.1v-0.1v0.4l0,0
			c0.1,0.1,0.1,0.3,0.3,0.5c1.2,2.6,2.2,4.5,3,5.4c0,0,0,0,0,0.1l0,0c0.3,0.4,0.7,0.6,0.9,0.6c-1.3,0.2-2.5,0.5-3.6,0.7
			c-0.2,0-0.5,0.1-0.7,0.1c-0.3,0-0.5,0.1-0.8,0.1l0,0c-2.9,0.5-5.2,0.9-6.8,1.1l0,0c-0.2,0-0.3,0-0.5,0.1c-0.2,0-0.3,0.1-0.3,0.2
			l0,0c0,0.1,0,0.2,0.1,0.4c0.1,0.3,0.4,0.6,0.9,0.9c0.1,0.1,0.2,0.1,0.3,0.2c1.3,0.5,2.2,0.8,2.7,0.8c0,0,0.1,0,0.2,0
			C272.4,239.8,273,239.6,274,239.3z"/>
	</g>
	<g>
		<path class="st8" d="M65.2,321.5l2.8,14.1l-1.4,0.3c-0.2-0.6-0.4-1.4-0.8-2.2c-0.4-0.8-0.7-1.2-1-1.2c-0.1,0-0.2,0-0.3,0.1
			s-0.3,0.1-0.5,0.3l-4.9,3.3l1.8,8.9c0.5,0.1,1.2,0.2,1.9,0.3c0.7,0.1,1.4,0.2,1.9,0.3c0.7,0.1,1.2,0.1,1.6,0.1
			c0.3,0,0.5,0,0.6-0.1c0.4-0.1,0.7-0.4,0.8-1.1c0.2-0.6,0.2-1.7,0-3.1l1.4-0.3l2.1,10.6l-1.4,0.3c-0.1-0.4-0.3-0.8-0.5-1.3
			s-0.4-0.9-0.7-1.1c-0.4-0.4-0.8-0.8-1.3-1.1c-0.5-0.3-1.1-0.5-1.7-0.6c-3.7-0.7-7.4-1.5-11.1-2.2c-3.7-0.7-7.8-1.6-12.2-2.5
			l-0.7-3.6c5.4-3.5,9.6-6.3,12.8-8.3c3.1-2,5.7-3.7,7.8-5.1c0.3-0.2,0.6-0.5,0.9-0.8c0.2-0.3,0.5-0.7,0.6-1.2
			c0.1-0.4,0.2-0.8,0.2-1.3s0-0.9-0.1-1.3L65.2,321.5z M57.4,337.1l-8.6,5.6l10.1,1.8L57.4,337.1z"/>
		<path class="st8" d="M65.4,312.8c0.1,1.2,0,2.4-0.2,3.5c-0.3,1.2-0.5,2.1-0.9,2.7l1.3,0.4l0.1,1.4l-6.9,0.9l-0.1-1.3
			c0.5-0.2,1.1-0.6,1.8-1.1s1.2-1,1.7-1.6s0.9-1.3,1.2-2.1s0.4-1.6,0.4-2.4c-0.1-1.1-0.4-1.9-0.9-2.4s-1.2-0.7-2.1-0.6
			c-0.5,0-0.9,0.2-1.2,0.5s-0.5,0.6-0.7,1.1s-0.4,1-0.5,1.6s-0.3,1.3-0.4,2.2c-0.2,0.9-0.4,1.6-0.6,2.2c-0.2,0.6-0.5,1.3-1,2
			c-0.4,0.6-1,1.1-1.6,1.5s-1.4,0.6-2.4,0.7c-1.7,0.2-3.2-0.5-4.4-1.8c-1.2-1.4-1.9-3.2-2.1-5.6c-0.1-1.1-0.1-2.2,0.1-3.1
			c0.1-1,0.3-1.8,0.5-2.4l-1.1-0.3l-0.1-1.4l6.3-0.9l0.1,1.3c-1.2,0.5-2.3,1.4-3.1,2.5s-1.2,2.3-1.1,3.5c0.1,0.9,0.3,1.7,0.8,2.2
			c0.4,0.5,1,0.7,1.7,0.7c0.9-0.1,1.6-0.5,1.9-1.4c0.3-0.8,0.6-2,0.9-3.4c0.4-2.3,1-3.9,1.9-5s2.1-1.7,3.6-1.9c2-0.2,3.7,0.5,4.9,2
			C64.5,308.3,65.2,310.3,65.4,312.8z"/>
		<path class="st8" d="M47.6,283.2c0.8-0.9,1.9-1.6,3-2.1c1.2-0.5,2.5-0.7,3.8-0.8c1.4,0,2.7,0.2,3.9,0.7s2.3,1.2,3.1,2.1
			c0.9,1,1.7,2.1,2.2,3.5c0.5,1.3,0.8,2.9,0.8,4.6c0,1.5-0.2,2.9-0.6,4.2c-0.4,1.3-1.1,2.4-1.9,3.4c-0.8,0.9-1.8,1.7-3.1,2.2
			s-2.6,0.8-4.1,0.8s-2.8-0.2-4-0.7s-2.2-1.2-3.1-2.1c-0.9-0.9-1.6-2-2-3.4c-0.5-1.3-0.7-2.8-0.7-4.5s0.2-3.3,0.7-4.6
			C46.1,285.3,46.8,284.2,47.6,283.2z M60.5,287.9c-0.7-0.3-1.5-0.5-2.5-0.6s-2.1-0.2-3.4-0.2c-0.9,0-1.9,0.1-3,0.2s-2,0.3-2.6,0.6
			c-0.8,0.3-1.4,0.7-1.8,1.2c-0.4,0.5-0.7,1.2-0.7,2c0,0.9,0.3,1.6,0.7,2.1c0.5,0.5,1.1,0.9,1.9,1.2c0.7,0.3,1.5,0.4,2.5,0.5
			c0.9,0.1,1.9,0.1,3,0.1c1.3,0,2.5-0.1,3.3-0.2c0.9-0.1,1.8-0.3,2.7-0.7c0.8-0.3,1.4-0.7,1.8-1.2c0.4-0.5,0.7-1.2,0.7-2
			c0-0.7-0.2-1.4-0.6-1.9C61.9,288.6,61.3,288.2,60.5,287.9z"/>
		<path class="st8" d="M65.8,267.4c-0.2,1.7-0.6,3.2-1.2,4.5s-1.4,2.3-2.4,3c-1,0.8-2.1,1.3-3.3,1.6c-1.2,0.3-2.6,0.4-4,0.2
			c-1.3-0.1-2.5-0.5-3.6-1.1s-2-1.4-2.8-2.4s-1.4-2.2-1.8-3.6c-0.4-1.4-0.5-2.9-0.4-4.5c0.2-2.3,0.8-4,1.8-5.2s2.2-1.8,3.7-1.6
			c0.9,0.1,1.6,0.4,2.1,0.9s0.7,1.4,0.6,2.5c-0.1,0.9-0.4,1.7-0.9,2.2c-0.5,0.6-1.1,0.8-1.8,0.8c-0.6-0.1-1.2-0.2-1.8-0.5
			s-1-0.4-1.3-0.5c-0.2,0.1-0.4,0.3-0.6,0.5c-0.1,0.2-0.2,0.5-0.3,1c-0.1,0.6,0,1.1,0.2,1.6s0.6,1,1.2,1.4c0.6,0.4,1.4,0.8,2.4,1.2
			c1,0.3,2.2,0.6,3.7,0.7c2.2,0.2,4-0.1,5.4-1s2.2-2,2.4-3.5c0.1-1.4-0.1-2.5-0.6-3.3c-0.5-0.9-1.3-1.7-2.4-2.4l1.1-1.3
			c0.7,0.5,1.4,1,1.9,1.6c0.6,0.6,1.1,1.3,1.5,2.1c0.4,0.8,0.7,1.7,0.9,2.5C65.9,265.4,65.9,266.4,65.8,267.4z"/>
		<path class="st8" d="M43.1,244.6c0.9,0.2,1.7,0.7,2.2,1.5s0.7,1.7,0.5,2.7s-0.6,1.8-1.4,2.4c-0.8,0.6-1.6,0.8-2.6,0.7
			c-0.9-0.2-1.7-0.7-2.2-1.5s-0.7-1.7-0.5-2.7s0.7-1.8,1.4-2.4C41.3,244.6,42.2,244.4,43.1,244.6z M68.5,246.3l-2,11.5l-1.3-0.2
			c0-0.3,0.1-0.6,0.1-0.9s0-0.6,0-0.8c-0.1-0.4-0.2-0.7-0.5-0.9s-0.6-0.3-1-0.4l-10.8-2c-0.4-0.1-0.8,0-1.2,0.1s-0.7,0.3-0.9,0.6
			c-0.2,0.2-0.4,0.5-0.6,0.9c-0.2,0.4-0.4,0.8-0.5,1.2l-1.3-0.2l1.1-9l0.3-0.2l14.5,2.6c0.4,0.1,0.8,0,1.1-0.1
			c0.3-0.1,0.6-0.4,0.8-0.7c0.2-0.2,0.3-0.5,0.4-0.8s0.3-0.6,0.3-0.9L68.5,246.3z"/>
		<path class="st8" d="M73.6,224c0.1,0.6,0.1,1.3,0.1,2c0,0.8-0.1,1.5-0.3,2.3c-0.4,1.5-0.9,2.5-1.5,3.1s-1.4,0.9-2.2,0.9v0.1
			c0.3,0.5,0.5,1,0.7,1.4c0.2,0.5,0.3,0.9,0.4,1.4c0.1,0.6,0.2,1.2,0.2,1.8s-0.1,1.3-0.4,2.2c-0.4,1.4-1.1,2.5-2.2,3.2
			c-1.1,0.8-2.3,1-3.6,0.6c-0.8-0.2-1.4-0.5-1.9-0.8c-0.5-0.4-0.9-0.8-1.2-1.3s-0.5-1-0.6-1.5s-0.2-1.1-0.3-1.7
			c-0.1-1.2-0.2-2.6-0.2-4.2c0-1.6-0.1-2.8-0.3-3.6l-1.7-0.4c-0.3-0.1-0.7-0.2-1.2-0.2c-0.5-0.1-0.9-0.1-1.3,0
			c-0.4,0.1-0.8,0.2-1.2,0.5s-0.6,0.7-0.8,1.3c-0.1,0.5-0.2,1-0.1,1.4c0.1,0.4,0.1,0.7,0.2,1c0.2,0,0.6,0,1.2,0c0.5,0,1,0,1.5,0.1
			c0.2,0.1,0.4,0.2,0.7,0.4s0.5,0.4,0.6,0.7c0.2,0.3,0.3,0.7,0.3,1.1c0,0.4,0,0.9-0.2,1.6c-0.3,1-0.7,1.7-1.3,2.1
			c-0.6,0.4-1.3,0.5-2.1,0.3c-0.7-0.2-1.2-0.6-1.6-1.3c-0.4-0.7-0.7-1.4-0.8-2.3c-0.2-0.8-0.2-1.8-0.2-2.8c0.1-1,0.2-2,0.4-2.8
			c0.3-1.2,0.6-2.2,1-3.1c0.4-0.9,0.9-1.7,1.5-2.4c0.6-0.6,1.4-1.1,2.3-1.3c0.9-0.2,2-0.2,3.3,0.2c1.4,0.4,2.9,0.8,4.8,1.3
			c1.8,0.5,3.1,0.9,3.6,1s1,0.2,1.3,0.1c0.4-0.1,0.7-0.3,0.9-0.6c0.1-0.2,0.3-0.5,0.4-0.9s0.2-0.8,0.3-1.2L73.6,224z M61.9,230.5
			c0.1,0.7,0.1,1.5,0.3,2.2c0.1,0.7,0.3,1.4,0.5,1.9s0.6,1,1,1.4c0.5,0.4,1,0.7,1.7,0.9c0.9,0.2,1.7,0.2,2.2-0.1s0.9-0.8,1-1.4
			c0.2-0.7,0.2-1.2,0-1.7s-0.4-1-0.7-1.4L61.9,230.5z"/>
		<path class="st8" d="M78.7,213c-0.6,1.6-1.3,3-2.3,4c-0.9,1.1-1.9,1.9-3,2.4s-2.3,0.7-3.6,0.7c-1.3,0-2.6-0.3-3.9-0.7
			c-1.2-0.4-2.3-1.1-3.2-2s-1.6-1.9-2.2-3c-0.5-1.2-0.8-2.5-0.9-3.9c0-1.4,0.2-2.9,0.8-4.4c0.8-2.1,1.8-3.7,3-4.6
			c1.3-0.9,2.6-1.2,3.9-0.7c0.8,0.3,1.4,0.8,1.8,1.4s0.3,1.5-0.1,2.6c-0.3,0.9-0.8,1.5-1.4,2c-0.6,0.4-1.3,0.5-2,0.3
			c-0.6-0.2-1.1-0.5-1.6-0.9s-0.9-0.7-1.2-0.8c-0.3,0.1-0.5,0.2-0.7,0.3c-0.2,0.2-0.3,0.4-0.5,0.9s-0.2,1-0.2,1.6s0.4,1.1,0.9,1.7
			c0.4,0.6,1.1,1.1,2,1.7c0.9,0.6,2,1.1,3.4,1.6c2.1,0.8,3.9,0.9,5.5,0.4s2.7-1.4,3.2-2.8c0.5-1.3,0.6-2.4,0.3-3.4s-0.9-1.9-1.7-2.9
			l1.4-1c0.6,0.6,1.1,1.3,1.5,2s0.7,1.5,0.9,2.4c0.2,0.9,0.3,1.8,0.3,2.6C79.2,211.1,79,212,78.7,213z"/>
		<path class="st8" d="M62.2,185.3c0.9,0.4,1.4,1,1.7,2c0.3,0.9,0.3,1.8-0.1,2.7s-1.1,1.6-2,2s-1.8,0.4-2.6,0c-0.9-0.4-1.4-1-1.8-2
			c-0.3-0.9-0.3-1.9,0.1-2.8c0.4-0.9,1.1-1.6,2-1.9C60.4,184.9,61.3,184.9,62.2,185.3z M86.4,193.2l-4.8,10.7l-1.2-0.6
			c0.1-0.3,0.2-0.6,0.3-0.9c0.1-0.3,0.1-0.6,0.2-0.8c0-0.4-0.1-0.8-0.2-1s-0.5-0.5-0.9-0.7l-9.8-4.4c-0.4-0.2-0.8-0.2-1.2-0.2
			c-0.4,0-0.7,0.2-1,0.4c-0.2,0.1-0.5,0.4-0.8,0.7c-0.3,0.4-0.6,0.7-0.7,1l-1.2-0.6l3.3-8.5l0.4-0.1l13.4,6c0.4,0.2,0.8,0.2,1.1,0.2
			c0.4,0,0.7-0.2,0.9-0.4c0.2-0.2,0.4-0.4,0.6-0.6c0.2-0.2,0.4-0.5,0.5-0.8L86.4,193.2z"/>
		<path class="st8" d="M71.2,164.1c0.5,0.3,0.8,0.6,1,1s0.3,0.9,0.3,1.6c0.1,0.7,0.1,1.8,0.1,3.3s0,3.2,0.1,5.1l-1,0.3
			c-0.7-1.6-1.3-2.9-1.8-3.9c-0.5-0.9-0.9-1.7-1.2-2.4c-0.4-0.8-0.6-1.5-0.6-2.1s0.2-1.1,0.5-1.8c0.3-0.5,0.7-0.9,1.2-1.2
			C70.3,163.9,70.8,163.9,71.2,164.1z M81.9,167.2c1.2-0.4,2.4-0.5,3.7-0.4c1.3,0.2,2.5,0.6,3.7,1.2c1.2,0.7,2.2,1.5,3.1,2.5
			c0.8,1,1.4,2.1,1.7,3.3c0.3,1.3,0.4,2.7,0.2,4.1c-0.2,1.4-0.8,2.9-1.6,4.4c-0.7,1.3-1.6,2.4-2.6,3.3c-1,0.9-2.1,1.6-3.3,2
			c-1.2,0.4-2.4,0.6-3.8,0.5s-2.7-0.5-4-1.3c-1.3-0.7-2.3-1.6-3.1-2.5c-0.8-1-1.3-2.1-1.7-3.4c-0.3-1.2-0.4-2.5-0.1-3.9
			c0.2-1.4,0.7-2.8,1.5-4.3s1.8-2.7,2.8-3.7C79.6,168.2,80.7,167.6,81.9,167.2z M90.9,177.5c-0.5-0.6-1.1-1.2-1.9-1.7
			c-0.8-0.6-1.8-1.2-2.9-1.8c-0.8-0.4-1.7-0.8-2.7-1.3c-1-0.4-1.9-0.7-2.6-0.8c-0.8-0.1-1.6-0.1-2.2,0.2c-0.6,0.2-1.2,0.7-1.5,1.4
			c-0.4,0.8-0.6,1.5-0.4,2.2s0.5,1.3,1.1,2c0.5,0.6,1.1,1.1,1.9,1.7c0.8,0.5,1.6,1.1,2.5,1.6c1.2,0.7,2.2,1.2,3,1.5
			c0.8,0.4,1.7,0.6,2.6,0.7c0.8,0.1,1.5,0.1,2.2-0.2c0.6-0.2,1.2-0.7,1.6-1.4c0.4-0.6,0.5-1.3,0.4-2
			C91.7,178.8,91.4,178.2,90.9,177.5z"/>
		<path class="st8" d="M112.8,150.4l-6.4,9.1l-1.1-0.8c0.1-0.2,0.3-0.5,0.4-0.8c0.2-0.3,0.3-0.5,0.3-0.7c0-0.3,0-0.6-0.2-0.8
			c-0.1-0.2-0.4-0.5-0.8-0.8l-7.1-5c-1-0.7-1.9-1.1-2.7-1.1c-0.8,0-1.4,0.4-2,1.1c-0.3,0.4-0.5,0.8-0.6,1.3
			c-0.1,0.4-0.2,0.9-0.2,1.4c0,0.4,0,0.8,0.1,1.1s0.2,0.6,0.2,0.8l8.1,5.7c0.4,0.2,0.7,0.4,1,0.5s0.6,0,0.9-0.1
			c0.2-0.1,0.4-0.2,0.7-0.4c0.2-0.2,0.5-0.4,0.7-0.6l1.1,0.8l-6.5,9.2l-1.1-0.8c0.2-0.3,0.3-0.5,0.5-0.8c0.1-0.3,0.3-0.5,0.3-0.8
			c0.1-0.4,0.1-0.7,0-1s-0.4-0.6-0.8-0.8l-8.8-6.2c-0.3-0.2-0.7-0.4-1.1-0.4c-0.4-0.1-0.8,0-1.2,0.1c-0.2,0.1-0.5,0.3-0.8,0.5
			s-0.5,0.5-0.8,0.8l-1.1-0.8l4.7-7.5l0.4-0.1l2.2,1.5v-0.1c-0.1-0.5-0.1-1-0.2-1.7s-0.1-1.2-0.1-1.7s0.2-1.2,0.4-1.9
			c0.3-0.7,0.6-1.4,1.1-2.1c1.2-1.6,2.5-2.6,4-2.7c1.5-0.2,3,0.3,4.6,1.4l7.4,5.2c0.4,0.3,0.7,0.4,1,0.5c0.3,0,0.6,0,1-0.2
			c0.2-0.1,0.4-0.3,0.6-0.4c0.2-0.2,0.5-0.4,0.7-0.7L112.8,150.4z"/>
		<path class="st8" d="M122.4,111.1l-1,1c-1-0.4-2.1-0.7-3.5-0.8c-1.3-0.1-2.4,0.1-3.1,0.6c-0.3,0.2-0.7,0.5-1.2,1s-0.9,0.8-1.2,1.2
			l-2.7,2.7l7.3,7.1l1.9-1.9c0.5-0.5,0.8-1,1.1-1.5c0.3-0.5,0.4-1.1,0.4-1.7c0-0.4-0.2-1-0.5-1.7s-0.6-1.3-0.9-1.7l1-1l7.9,7.7l-1,1
			c-0.4-0.3-1-0.6-1.8-1c-0.8-0.3-1.4-0.5-1.8-0.5c-0.6,0-1.2,0.1-1.7,0.4s-1,0.7-1.5,1.2l-1.9,1.9l5.4,5.3c0.6,0.6,1.1,0.9,1.5,1.2
			c0.4,0.2,0.8,0.3,1.2,0.3c0.4-0.1,0.8-0.3,1.2-0.6c0.4-0.3,1-0.8,1.6-1.5c0.3-0.3,0.7-0.7,1.1-1.1s0.8-0.8,1-1.2
			c0.3-0.4,0.6-0.8,0.8-1.2c0.2-0.4,0.3-0.8,0.3-1.1c0-0.8-0.2-2-0.6-3.4s-0.7-2.4-1-3l0.9-1l5.5,6.1l-17.2,17.7l-1-1
			c0.2-0.3,0.5-0.6,0.9-1.1s0.6-0.8,0.7-1.1c0.2-0.5,0.2-0.9,0.1-1.2s-0.3-0.7-0.7-1l-13.3-13c-0.3-0.3-0.6-0.5-0.9-0.6
			s-0.7-0.1-1.3,0.2c-0.3,0.1-0.7,0.4-1.2,0.7c-0.5,0.3-0.9,0.6-1.1,0.8l-1-1l16.3-16.7L122.4,111.1z"/>
		<path class="st8" d="M146.4,117.3c-0.9,0.8-1.9,1.4-3,1.8c-1.1,0.5-2,0.7-2.8,0.8l0.4,1.3l-1.1,0.9l-4.6-5.2l1-0.9
			c0.5,0.3,1.1,0.6,1.9,0.8c0.8,0.3,1.6,0.4,2.3,0.5c0.8,0.1,1.6,0,2.4-0.2c0.8-0.2,1.6-0.6,2.2-1.1c0.9-0.7,1.4-1.4,1.5-2.1
			s-0.1-1.4-0.7-2.1c-0.3-0.4-0.7-0.6-1.1-0.7c-0.4-0.1-0.8-0.1-1.3,0s-1.1,0.3-1.6,0.5c-0.6,0.2-1.2,0.5-2,0.9
			c-0.8,0.3-1.5,0.6-2.1,0.8c-0.6,0.2-1.4,0.3-2.2,0.3c-0.7,0-1.4-0.2-2.1-0.5c-0.7-0.3-1.3-0.8-1.9-1.5c-1.1-1.3-1.5-2.9-1-4.7
			c0.4-1.8,1.6-3.4,3.4-4.9c0.9-0.7,1.7-1.3,2.6-1.7c0.9-0.4,1.6-0.7,2.3-1l-0.4-1.1l1.1-0.9l4.3,4.7l-1,0.8
			c-1.2-0.7-2.4-1.1-3.8-1.1c-1.4,0-2.6,0.3-3.5,1.1c-0.7,0.6-1.2,1.2-1.3,1.9c-0.2,0.7,0,1.2,0.4,1.8c0.6,0.7,1.3,1,2.2,0.8
			s2-0.6,3.3-1.2c2.1-1,3.8-1.4,5.2-1.3s2.6,0.7,3.6,1.9c1.3,1.6,1.7,3.3,1.2,5.1S148.3,115.6,146.4,117.3z"/>
		<path class="st8" d="M167.9,89.6c1.5,2.2,2,4.5,1.6,7s-1.7,4.5-3.9,6c-1,0.7-1.8,1.1-2.6,1.3c-0.7,0.2-1.4,0.3-2,0.3l-0.1,0.1
			l2.9,4.3c0.2,0.4,0.5,0.6,0.9,0.8c0.3,0.2,0.7,0.2,1.1,0.1c0.4-0.1,0.8-0.2,1.4-0.5s1-0.5,1.4-0.7l0.8,1.1l-11.1,7.6l-0.8-1.1
			c0.2-0.2,0.5-0.5,0.9-0.8c0.3-0.3,0.6-0.6,0.8-0.8c0.2-0.3,0.3-0.7,0.3-1c-0.1-0.4-0.2-0.7-0.5-1l-10.7-15.7
			c-0.3-0.3-0.5-0.6-0.8-0.7c-0.3-0.2-0.7-0.3-1.1-0.3c-0.3,0-0.6,0.1-1,0.2s-0.8,0.3-1.1,0.5l-0.8-1.1l7.2-5.5h0.4l1.2,1.7l0.1-0.1
			c0.2-1.1,0.6-2.2,1.2-3.1c0.6-0.9,1.2-1.7,2-2.2c2.1-1.4,4.3-1.8,6.5-1.2C164.3,85.6,166.2,87.1,167.9,89.6z M162.4,93.4
			c-0.5-0.8-1.1-1.5-1.7-2.1c-0.6-0.6-1.2-1.1-1.9-1.5s-1.3-0.6-2-0.6s-1.3,0.2-2,0.6c-0.7,0.5-1.1,0.9-1.4,1.4
			c-0.2,0.5-0.4,1-0.4,1.6l5.9,8.7c0.2,0.2,0.5,0.3,0.9,0.5s0.7,0.3,1,0.4c0.4,0.1,0.9,0.1,1.3,0c0.4-0.1,0.8-0.3,1.2-0.5
			c1-0.7,1.4-1.8,1.3-3.3C164.6,97.3,163.9,95.5,162.4,93.4z"/>
		<path class="st8" d="M193.5,85.4c-0.4,0.5-0.8,1-1.4,1.5c-0.6,0.5-1.2,1-1.9,1.4c-1.3,0.7-2.4,1.1-3.3,1c-0.8-0.1-1.6-0.4-2.2-1
			l-0.1,0.1c-0.2,0.6-0.4,1.1-0.6,1.5c-0.2,0.4-0.4,0.9-0.7,1.3c-0.4,0.5-0.8,1-1.2,1.3c-0.4,0.4-1,0.8-1.9,1.3
			c-1.3,0.7-2.5,0.9-3.8,0.6s-2.3-1-2.9-2.2c-0.4-0.7-0.6-1.4-0.7-2c-0.1-0.6,0-1.2,0.1-1.8c0.1-0.5,0.4-1,0.7-1.5s0.7-0.9,1.1-1.4
			c0.8-0.9,1.8-1.9,2.9-3c1.2-1.1,2-2,2.4-2.7l-0.8-1.6c-0.1-0.3-0.4-0.6-0.6-1c-0.3-0.4-0.6-0.7-0.9-1c-0.3-0.3-0.7-0.4-1.2-0.5
			s-0.9,0-1.5,0.3c-0.5,0.3-0.8,0.5-1.1,0.9c-0.2,0.3-0.4,0.6-0.6,0.8c0.2,0.2,0.4,0.5,0.8,0.8c0.4,0.4,0.7,0.8,0.9,1.2
			c0.1,0.2,0.2,0.4,0.2,0.8s0,0.6-0.1,0.9c-0.1,0.4-0.3,0.7-0.6,1c-0.2,0.3-0.7,0.6-1.3,1c-0.9,0.5-1.7,0.6-2.4,0.5
			c-0.7-0.2-1.3-0.6-1.6-1.3c-0.3-0.6-0.4-1.3-0.2-2s0.6-1.5,1.1-2.2s1.2-1.4,2-2c0.8-0.7,1.6-1.2,2.3-1.6c1.1-0.6,2.1-1,3-1.4
			s1.9-0.5,2.8-0.5c0.9,0,1.7,0.3,2.5,0.8s1.5,1.3,2.1,2.5c0.7,1.2,1.4,2.7,2.3,4.4c0.9,1.7,1.4,2.8,1.7,3.4c0.3,0.5,0.5,0.8,0.8,1
			s0.6,0.3,1,0.3c0.2,0,0.6-0.1,1-0.3c0.4-0.2,0.8-0.4,1.1-0.6L193.5,85.4z M180.8,81.3c-0.5,0.5-1,1.1-1.4,1.7s-0.8,1.1-1,1.6
			s-0.3,1.1-0.3,1.7s0.2,1.2,0.6,1.9c0.5,0.9,1,1.4,1.6,1.5c0.6,0.2,1.2,0.1,1.7-0.2c0.6-0.3,1-0.7,1.3-1.2s0.4-0.9,0.5-1.5
			L180.8,81.3z"/>
		<path class="st8" d="M217.6,75.8L207.3,80l-0.5-1.3c0.2-0.1,0.5-0.2,0.8-0.4c0.3-0.2,0.5-0.3,0.6-0.5c0.2-0.2,0.3-0.5,0.3-0.8
			s-0.1-0.7-0.3-1.1l-3.3-8c-0.5-1.2-1.1-2-1.7-2.4c-0.7-0.4-1.4-0.4-2.3-0.1c-0.5,0.2-0.9,0.4-1.2,0.7c-0.3,0.3-0.6,0.7-0.9,1.1
			c-0.2,0.4-0.4,0.7-0.5,1s-0.2,0.6-0.2,0.8l3.8,9.2c0.2,0.4,0.4,0.7,0.6,0.9c0.2,0.2,0.5,0.3,0.8,0.4c0.2,0,0.5,0,0.8,0
			s0.6-0.1,0.9-0.2l0.5,1.3l-10.4,4.3l-0.5-1.3c0.3-0.1,0.6-0.3,0.8-0.4c0.3-0.2,0.5-0.3,0.7-0.5c0.3-0.3,0.5-0.6,0.5-0.9
			s0-0.7-0.2-1.1l-4.1-10c-0.1-0.4-0.4-0.7-0.7-0.9c-0.3-0.3-0.7-0.4-1.1-0.5c-0.3-0.1-0.6-0.1-0.9,0c-0.4,0-0.7,0.1-1.1,0.2
			l-0.5-1.3l8-3.8l0.4,0.2l1,2.5h0.1c0.2-0.4,0.5-0.9,0.7-1.5c0.3-0.6,0.6-1.1,0.9-1.5c0.3-0.4,0.8-0.9,1.4-1.4
			c0.6-0.5,1.3-0.9,2.1-1.2c1.9-0.8,3.5-0.8,4.8-0.1c1.4,0.7,2.4,1.9,3.1,3.6l3.4,8.4c0.2,0.4,0.4,0.7,0.6,0.9
			c0.2,0.2,0.5,0.3,0.9,0.3c0.2,0,0.5,0,0.8,0s0.6-0.1,1-0.2L217.6,75.8z M203.3,52c0.1,0.5,0.1,1.2,0,1.9s-0.2,1.5-0.5,2.1
			c-0.3,0.8-0.6,1.4-1,2s-0.9,1-1.6,1.2c-0.8,0.3-1.6,0.5-2.3,0.6s-1.3,0.1-1.9,0c-0.5,0-1-0.1-1.6-0.1s-1.1,0.1-1.5,0.2
			c-0.5,0.2-0.9,0.6-1.1,1.1c-0.2,0.5-0.3,1.4-0.4,2.5H190c0-0.5,0-1.1,0.1-1.8s0.2-1.4,0.4-2.2c0.2-0.7,0.5-1.3,0.9-1.9
			c0.4-0.6,1-1.1,1.6-1.3c0.8-0.3,1.5-0.5,2.1-0.5c0.7-0.1,1.3-0.1,1.9,0c0.6,0,1.2,0.1,1.6,0.1c0.4,0,0.9,0,1.4-0.2
			c0.9-0.4,1.4-0.9,1.6-1.5c0.2-0.6,0.2-1.3,0.1-2.1L203.3,52z"/>
		<path class="st8" d="M233,54.5c1.1,0.6,2.1,1.4,2.9,2.4c0.8,1,1.4,2.2,1.8,3.5c0.4,1.3,0.5,2.6,0.4,3.9s-0.5,2.5-1.1,3.6
			c-0.7,1.2-1.6,2.2-2.8,3s-2.6,1.5-4.3,2c-1.5,0.4-2.8,0.6-4.2,0.5c-1.3-0.1-2.6-0.4-3.8-0.9c-1.1-0.5-2.1-1.3-3-2.3
			s-1.5-2.3-1.9-3.7c-0.4-1.4-0.5-2.8-0.4-4s0.5-2.4,1.2-3.6c0.6-1.1,1.5-2,2.7-2.9c1.2-0.8,2.5-1.5,4.1-1.9
			c1.7-0.5,3.2-0.7,4.6-0.6C230.6,53.6,231.9,54,233,54.5z M232,68.2c0.1-0.7,0-1.6-0.1-2.6s-0.4-2.1-0.8-3.4
			c-0.2-0.8-0.6-1.8-1-2.8s-0.8-1.8-1.3-2.4c-0.5-0.7-1.1-1.1-1.7-1.4c-0.6-0.3-1.3-0.3-2.1-0.1s-1.5,0.7-1.8,1.3
			c-0.4,0.6-0.6,1.3-0.7,2.1c-0.1,0.7,0,1.6,0.2,2.5s0.4,1.9,0.7,2.9c0.4,1.3,0.7,2.4,1,3.2c0.3,0.8,0.8,1.6,1.3,2.4
			c0.5,0.7,1,1.1,1.7,1.4c0.6,0.3,1.3,0.3,2.1,0.1c0.7-0.2,1.3-0.6,1.7-1.1C231.7,69.7,231.9,69,232,68.2z"/>
		<path class="st8" d="M253.7,66.8l-11.5,2.3l-0.3-1.3c0.3-0.1,0.6-0.2,0.9-0.3c0.3-0.1,0.5-0.2,0.8-0.3c0.4-0.2,0.6-0.5,0.7-0.8
			c0.1-0.3,0.1-0.7,0-1.1l-4-20.1c-0.1-0.5-0.3-0.9-0.5-1.2c-0.3-0.4-0.6-0.6-0.9-0.7c-0.3-0.1-0.7-0.2-1.2-0.2s-1,0-1.4,0l-0.3-1.3
			l9.1-2.3l0.3,0.2l4.8,24.3c0.1,0.4,0.2,0.8,0.5,1c0.2,0.2,0.5,0.4,0.9,0.5c0.3,0.1,0.5,0.1,0.8,0.1s0.6,0,1,0L253.7,66.8z"/>
		<path class="st8" d="M276.4,63.5c-0.5,0.3-1.1,0.6-1.8,0.9c-0.7,0.3-1.5,0.5-2.3,0.6c-1.5,0.2-2.6,0.1-3.4-0.3s-1.3-0.9-1.7-1.8
			h-0.1c-0.4,0.5-0.7,0.9-1.1,1.2c-0.4,0.3-0.7,0.6-1.2,0.9s-1.1,0.6-1.6,0.8c-0.5,0.2-1.3,0.4-2.2,0.5c-1.4,0.2-2.7-0.1-3.8-0.8
			c-1.1-0.7-1.7-1.8-1.9-3.2c-0.1-0.8-0.1-1.5,0.1-2.1c0.2-0.6,0.4-1.1,0.8-1.6c0.3-0.4,0.7-0.8,1.2-1.1s1-0.6,1.5-0.9
			c1.1-0.5,2.3-1.1,3.8-1.7c1.5-0.6,2.6-1.1,3.3-1.6l-0.2-1.8c0-0.3-0.1-0.7-0.2-1.2s-0.3-0.9-0.5-1.2c-0.2-0.4-0.5-0.7-0.9-0.9
			s-0.9-0.3-1.5-0.2c-0.5,0.1-1,0.2-1.3,0.4s-0.6,0.4-0.8,0.6c0.1,0.2,0.2,0.6,0.4,1.1c0.2,0.5,0.4,1,0.4,1.4c0,0.2,0,0.5-0.1,0.8
			s-0.2,0.6-0.4,0.8c-0.3,0.3-0.5,0.5-0.9,0.7c-0.3,0.2-0.9,0.3-1.6,0.4c-1,0.1-1.8,0-2.4-0.5c-0.6-0.4-0.9-1.1-1-1.8
			s0.1-1.3,0.6-1.9c0.5-0.6,1.1-1.1,1.8-1.6c0.7-0.5,1.6-0.9,2.6-1.2s1.9-0.5,2.8-0.6c1.2-0.1,2.3-0.2,3.3-0.2s1.9,0.2,2.8,0.6
			c0.8,0.3,1.5,0.9,2,1.7s0.9,1.8,1,3.1c0.2,1.4,0.3,3,0.5,4.9s0.3,3.2,0.4,3.8s0.2,1,0.4,1.3c0.2,0.3,0.5,0.5,0.8,0.6
			c0.2,0.1,0.6,0.1,1,0.1s0.9-0.1,1.2-0.1L276.4,63.5z M266.1,55c-0.7,0.3-1.3,0.7-2,1c-0.6,0.4-1.2,0.8-1.6,1.1
			c-0.4,0.4-0.7,0.9-0.9,1.4c-0.2,0.6-0.3,1.2-0.2,1.9c0.1,1,0.4,1.6,0.9,2s1.1,0.5,1.7,0.5c0.7-0.1,1.2-0.3,1.6-0.6s0.7-0.7,1-1.2
			L266.1,55z"/>
		<path class="st8" d="M311.5,63.6l-9.1,0.3l-0.3-0.3v-1.7H302c-0.6,0.6-1.5,1.2-2.5,1.6c-1,0.5-2.1,0.7-3.1,0.6
			c-2.5-0.1-4.5-1.1-6.1-2.9c-1.6-1.9-2.3-4.3-2.2-7.3c0.1-2.6,1-4.8,2.9-6.6s4.1-2.7,6.6-2.6c1,0,2,0.2,2.8,0.4
			c0.9,0.3,1.6,0.5,2.1,0.9l0.2-6.1c0-0.5-0.1-0.9-0.2-1.3c-0.2-0.4-0.4-0.7-0.7-1c-0.4-0.3-0.8-0.5-1.4-0.6s-1.1-0.2-1.7-0.3v-1.4
			l10-0.2l0.3,0.3l-0.7,24.3c0,0.5,0.1,0.9,0.2,1.2s0.4,0.6,0.7,0.8c0.3,0.1,0.6,0.3,1.1,0.3c0.5,0.1,0.9,0.1,1.2,0.1L311.5,63.6z
			 M302.1,60l0.3-10.5c-0.1-0.3-0.2-0.6-0.3-1c-0.1-0.4-0.3-0.7-0.6-1c-0.2-0.3-0.6-0.5-1-0.7s-0.9-0.3-1.4-0.3
			c-1.2,0-2.3,0.6-3.1,2c-0.8,1.4-1.3,3.3-1.3,5.9c0,1,0,1.9,0.1,2.7s0.3,1.5,0.7,2.2c0.3,0.7,0.8,1.2,1.3,1.6
			c0.6,0.4,1.2,0.6,2,0.6s1.4-0.1,1.9-0.4C301.2,60.9,301.7,60.5,302.1,60z"/>
		<path class="st8" d="M333,62.4c-0.5,0.6-1.1,1.2-1.8,1.8c-0.7,0.5-1.4,1-2.3,1.3c-0.9,0.4-1.8,0.6-2.6,0.7c-0.9,0.1-1.9,0.1-2.9,0
			c-1.8-0.2-3.3-0.7-4.6-1.4c-1.3-0.7-2.2-1.5-3-2.5c-0.7-1-1.3-2.1-1.5-3.3c-0.3-1.2-0.3-2.5-0.1-3.9c0.2-1.2,0.5-2.4,1.2-3.5
			c0.6-1.1,1.4-2,2.4-2.8c0.9-0.8,2.1-1.3,3.4-1.7s2.8-0.5,4.4-0.3c1.7,0.2,3.1,0.6,4.1,1.2c1,0.6,1.9,1.3,2.5,2.1s1,1.7,1.2,2.7
			s0.2,2,0.1,3l-0.2,1.2l-12.4-1.6c-0.3,2.5-0.1,4.5,0.7,5.9c0.8,1.4,2.3,2.3,4.4,2.6c1.2,0.1,2.2,0,3.2-0.5s1.9-1.2,2.7-2.1
			L333,62.4z M326.9,54.5c0.1-0.7,0.2-1.5,0.2-2.3s0-1.4-0.1-1.9c-0.1-0.6-0.4-1.1-0.7-1.4s-0.8-0.5-1.3-0.6
			c-0.9-0.1-1.8,0.3-2.4,1.1s-1.2,2.4-1.5,4.4L326.9,54.5z"/>
		<path class="st8" d="M391.8,57.8c-0.4-0.1-0.8-0.1-1.2-0.1c-0.4,0-0.8,0-1.2,0.1c-0.6,0.1-1.1,0.3-1.5,0.6
			c-0.3,0.3-0.7,0.7-1.1,1.1c-1.2,1.6-3.1,4.1-5.8,7.6c-2.6,3.5-5.3,7.1-8.2,10.9l-3.6-1.2l-0.6-20.7l-12,16.7l-3.6-1.2
			c-0.1-6.3-0.2-11.2-0.2-14.7c0-3.4-0.1-6.3-0.1-8.6c0-0.7-0.1-1.3-0.3-1.6c-0.2-0.4-0.5-0.8-0.8-1.2c-0.3-0.3-0.5-0.6-0.9-0.8
			c-0.3-0.2-0.7-0.4-1.2-0.6l0.4-1.4l13.3,4.3l-0.4,1.3c-0.8-0.2-1.4-0.3-1.8-0.3s-0.8,0-1,0s-0.4,0.1-0.5,0.2
			c-0.1,0.1-0.1,0.2-0.2,0.3c-0.1,0.2-0.1,0.3-0.1,0.5s0,0.4,0,0.6c0,1,0,2.9,0,5.8s0.1,6.4,0.1,10.6l11.6-16.4l3.7,1.2l0.5,20.9
			c2-2.7,3.5-4.9,4.7-6.7c1.2-1.7,2.2-3.2,3.1-4.4c0.5-0.8,0.9-1.4,1.2-1.9c0.3-0.5,0.6-1,0.7-1.4c0.1-0.2,0-0.5-0.1-0.7
			s-0.4-0.5-0.8-0.8c-0.3-0.2-0.7-0.4-1.2-0.7s-0.9-0.4-1.3-0.6l0.5-1.4l10.1,3.3L391.8,57.8z"/>
		<path class="st8" d="M394.8,87.5l-10.6-5l0.6-1.2c0.3,0.1,0.6,0.2,0.9,0.3c0.3,0.1,0.6,0.2,0.8,0.2c0.4,0,0.8,0,1-0.2
			c0.3-0.2,0.5-0.5,0.7-0.9l4.6-9.8c0.2-0.4,0.3-0.8,0.2-1.2c0-0.4-0.2-0.7-0.3-1c-0.1-0.2-0.4-0.5-0.7-0.8c-0.4-0.3-0.7-0.6-1-0.8
			l0.6-1.2l8.4,3.4l0.1,0.4L393.8,83c-0.2,0.4-0.3,0.8-0.2,1.1c0,0.4,0.2,0.7,0.4,1c0.2,0.2,0.4,0.4,0.6,0.6s0.5,0.4,0.8,0.6
			L394.8,87.5z M403,63.4c-0.4,0.9-1.1,1.4-2,1.7s-1.8,0.2-2.7-0.2c-0.9-0.4-1.5-1.1-1.9-2s-0.4-1.8,0-2.6c0.4-0.9,1.1-1.4,2-1.7
			s1.9-0.2,2.8,0.2s1.5,1.1,1.9,2C403.4,61.7,403.4,62.5,403,63.4z"/>
		<path class="st8" d="M417.6,100.3l-9.6-5.6l0.7-1.2c0.2,0.1,0.5,0.2,0.8,0.3c0.3,0.1,0.6,0.2,0.8,0.2c0.3,0,0.6-0.1,0.8-0.2
			c0.2-0.2,0.5-0.5,0.7-0.9l4.3-7.5c0.6-1.1,0.9-2,0.8-2.8s-0.5-1.4-1.3-1.9c-0.4-0.2-0.9-0.4-1.3-0.5s-0.9-0.1-1.4-0.1
			c-0.4,0-0.8,0.1-1.1,0.2s-0.6,0.2-0.8,0.3l-5,8.6c-0.2,0.4-0.3,0.7-0.4,1c0,0.3,0,0.6,0.2,0.9c0.1,0.2,0.3,0.4,0.5,0.6
			s0.4,0.4,0.7,0.6l-0.7,1.2l-9.8-5.6l0.7-1.2c0.3,0.1,0.6,0.3,0.9,0.4s0.6,0.2,0.8,0.3c0.4,0.1,0.8,0,1-0.1
			c0.3-0.2,0.5-0.5,0.7-0.9l5.4-9.3c0.2-0.3,0.3-0.7,0.3-1.1s-0.1-0.8-0.2-1.2c-0.1-0.2-0.3-0.5-0.5-0.7c-0.2-0.3-0.5-0.5-0.9-0.7
			l0.7-1.2l7.9,4l0.1,0.4l-1.3,2.3h0.1c0.5-0.1,1-0.2,1.6-0.3c0.6-0.1,1.2-0.2,1.7-0.2s1.2,0.1,1.9,0.2c0.7,0.2,1.5,0.5,2.2,0.9
			c1.7,1,2.8,2.3,3.1,3.8c0.3,1.5,0,3.1-1,4.7l-4.5,7.9c-0.2,0.4-0.4,0.7-0.4,1s0.1,0.6,0.3,0.9c0.1,0.2,0.3,0.4,0.5,0.6
			s0.5,0.4,0.8,0.7L417.6,100.3z"/>
		<path class="st8" d="M445.4,100.3l-3.3-2.4c0.1,0.7,0,1.4-0.1,2c-0.2,0.6-0.4,1.2-0.8,1.7c-0.5,0.7-1.2,1.2-2,1.5
			s-1.7,0.5-2.5,0.4c-0.9-0.1-1.8-0.3-2.8-0.6c-1-0.4-1.9-0.9-2.9-1.6l-2.4-1.8c-0.2,0-0.4,0.1-0.7,0.1c-0.3,0.1-0.5,0.2-0.6,0.4
			c-0.3,0.4-0.4,0.9-0.1,1.3c0.2,0.4,0.8,1,1.7,1.7c0.9,0.7,1.8,1.4,2.7,2.1c0.9,0.7,1.5,1.2,1.9,1.5c0.6,0.5,1,1,1.5,1.6
			c0.4,0.6,0.7,1.2,0.9,1.9c0.2,0.7,0.3,1.4,0.2,2.2c-0.1,0.8-0.4,1.5-0.9,2.2c-0.6,0.8-1.3,1.3-2.1,1.7c-0.9,0.4-1.8,0.6-2.9,0.5
			c-1.2-0.1-2.4-0.4-3.7-0.9c-1.3-0.5-2.8-1.4-4.4-2.6c-2.6-1.9-4.4-3.7-5.3-5.3s-0.9-3.1,0-4.4c0.6-0.8,1.4-1.2,2.5-1.1
			s2.5,0.6,4.1,1.7l0.1-0.2c-0.7-1-1.1-1.9-1.2-2.8s0-1.7,0.5-2.4c0.3-0.4,0.7-0.7,1.1-0.8c0.4-0.1,0.9-0.2,1.3-0.2s0.9,0.1,1.4,0.3
			c0.5,0.2,0.9,0.3,1.2,0.4l0.1-0.2c-1-1.5-1.5-2.8-1.6-4s0.2-2.3,1-3.3c1.1-1.5,2.6-2.2,4.6-2c2,0.1,4,0.9,6.1,2.4
			c0.7,0.5,1.3,1,1.8,1.6s1,1,1.2,1.4l5.8,4.2L445.4,100.3z M429.6,112.5c0.2-0.3,0.4-0.7,0.5-1.2s-0.2-1.1-0.7-1.7
			c-0.3-0.3-0.9-0.8-1.7-1.4c-0.8-0.6-1.9-1.4-3.4-2.5c-0.6,0-1.1,0.2-1.6,0.4c-0.5,0.2-1,0.6-1.4,1.2c-0.2,0.2-0.3,0.6-0.4,1
			s-0.1,0.8,0,1.3s0.4,1.1,0.7,1.5c0.3,0.5,0.9,1,1.8,1.7c1.3,0.9,2.5,1.4,3.5,1.4C427.9,114.2,428.8,113.6,429.6,112.5z
			 M436.3,98.1c0.8-1.2,1.3-2.2,1.5-3.2c0.1-0.9-0.2-1.7-1-2.3c-0.4-0.3-0.8-0.4-1.2-0.5s-0.9,0.1-1.3,0.3c-0.4,0.2-0.8,0.5-1.2,0.9
			s-0.8,0.9-1.1,1.3c-0.8,1.1-1.3,2.1-1.4,3.1s0.2,1.7,0.9,2.2c0.7,0.5,1.5,0.6,2.3,0.3C434.6,100,435.5,99.2,436.3,98.1z"/>
		<path class="st8" d="M453.6,130.7c-1.4-1.4-2.4-2.8-3.2-4.5c-0.8-1.6-1.2-3.3-1.2-5c-0.1-1.7,0.3-3.4,1-5.1s1.8-3.3,3.2-4.8
			c1.4-1.5,3-2.6,4.7-3.3s3.5-1.1,5.3-1.1s3.5,0.4,5.3,1.1c1.7,0.7,3.3,1.8,4.8,3.2c1,1,1.9,2.1,2.5,3.2s1,2.1,1.3,3l1.5,0.1
			l1.2,1.1l-6.6,7l-1.2-1.1c1.4-2.7,2.1-5.1,2.2-6.9c0-1.9-0.6-3.5-1.9-4.8c-1.7-1.6-3.6-2.1-5.9-1.5s-4.7,2.2-7.3,4.9
			c-1.5,1.5-2.6,2.9-3.3,4.3s-1.2,2.6-1.3,3.7c-0.1,1.2,0,2.3,0.4,3.3s1,1.9,1.8,2.7c1.2,1.2,2.7,2,4.3,2.2c1.6,0.3,3.5,0.1,5.6-0.5
			l0.5,1.8c-1.1,0.4-2.3,0.7-3.3,0.8c-1.1,0.1-2.2,0.1-3.2-0.1c-1.2-0.2-2.3-0.6-3.4-1.1C455.9,132.7,454.7,131.9,453.6,130.7z"/>
		<path class="st8" d="M478.5,158.3l-7-8.7l1.1-0.8c0.2,0.2,0.4,0.4,0.6,0.6c0.2,0.2,0.4,0.4,0.6,0.5c0.3,0.1,0.5,0.1,0.8,0.1
			c0.3-0.1,0.6-0.3,1-0.6l6.8-5.4c1-0.8,1.6-1.6,1.8-2.3c0.2-0.8,0-1.5-0.5-2.2c-0.3-0.4-0.7-0.7-1-0.9c-0.4-0.2-0.8-0.4-1.3-0.6
			c-0.4-0.1-0.8-0.2-1.1-0.2c-0.3,0-0.6,0-0.9,0l-7.7,6.2c-0.4,0.3-0.6,0.6-0.7,0.8c-0.1,0.3-0.2,0.6-0.1,0.9c0,0.2,0.1,0.5,0.2,0.8
			s0.3,0.6,0.4,0.8l-1.1,0.8l-7.1-8.8l1.1-0.8c0.2,0.2,0.4,0.5,0.7,0.7c0.2,0.2,0.4,0.4,0.7,0.5c0.4,0.2,0.7,0.3,1,0.2
			s0.6-0.2,1-0.5l16.1-13c0.3-0.2,0.6-0.6,0.8-1c0.2-0.4,0.3-0.8,0.3-1.2c0-0.3-0.2-0.7-0.4-1.1c-0.2-0.4-0.4-0.8-0.7-1.1l1.1-0.8
			l6.2,6.9l-0.1,0.4l-9.9,8v0.1c0.6,0.1,1.2,0.2,1.7,0.3s1.1,0.2,1.7,0.4c0.5,0.2,1.1,0.5,1.7,0.9s1.2,1,1.7,1.7
			c1.3,1.6,1.8,3.1,1.5,4.6s-1.1,2.8-2.6,4l-7.1,5.7c-0.4,0.3-0.6,0.6-0.7,0.8c-0.1,0.3-0.1,0.6,0,1c0.1,0.2,0.2,0.5,0.3,0.7
			c0.1,0.3,0.3,0.6,0.5,0.9L478.5,158.3z"/>
		<path class="st8" d="M492.8,179.9l-5.2-7.2l0.1-0.4l2-1.3l-0.1-0.1c-0.5-0.1-1.1-0.3-1.6-0.4c-0.5-0.1-1.1-0.4-1.6-0.7
			c-0.6-0.4-1.1-0.7-1.6-1.1c-0.4-0.4-0.9-1-1.5-1.9c-1-1.6-1.3-3.1-0.9-4.5s1.5-2.7,3.2-3.8l7-4.5c0.4-0.3,0.7-0.5,0.8-0.9
			c0.2-0.3,0.3-0.7,0.3-1.1c0-0.3,0-0.6-0.2-1c-0.1-0.4-0.3-0.7-0.4-1l1.1-0.7l5.2,7.3l-0.1,0.3l-10.4,6.6c-1.1,0.7-1.7,1.4-2,2.1
			c-0.3,0.7-0.1,1.5,0.3,2.2c0.5,0.7,1.1,1.3,1.8,1.6c0.8,0.3,1.4,0.5,2.1,0.5l8.4-5.4c0.4-0.2,0.6-0.5,0.8-0.8s0.3-0.7,0.3-1
			s-0.1-0.6-0.3-1c-0.2-0.4-0.4-0.8-0.6-1.1l1.1-0.7l5.2,7.3l-0.1,0.4l-12.1,7.7c-0.4,0.2-0.6,0.5-0.8,0.8c-0.2,0.3-0.2,0.7-0.2,1.1
			c0,0.3,0.1,0.6,0.2,0.9s0.3,0.7,0.5,1L492.8,179.9z"/>
		<path class="st8" d="M503.9,203.5l-4.9-10l1.2-0.6c0.1,0.2,0.3,0.4,0.5,0.7s0.3,0.5,0.5,0.6c0.2,0.2,0.5,0.3,0.8,0.2
			s0.7-0.1,1.1-0.4l7.8-3.8c1.1-0.6,1.9-1.2,2.3-1.9s0.4-1.5,0-2.3c-0.2-0.4-0.5-0.8-0.8-1.1s-0.7-0.6-1.1-0.8s-0.7-0.4-1.1-0.4
			c-0.3-0.1-0.6-0.1-0.9-0.2l-8.9,4.4c-0.4,0.2-0.7,0.4-0.9,0.6c-0.2,0.2-0.3,0.5-0.3,0.8c0,0.2,0,0.5,0.1,0.8s0.1,0.6,0.2,0.9
			l-1.2,0.6l-4.9-10.1l1.2-0.6c0.2,0.3,0.3,0.5,0.5,0.8s0.3,0.5,0.5,0.6c0.3,0.3,0.6,0.4,0.9,0.5c0.3,0,0.7-0.1,1.1-0.3l9.7-4.7
			c0.3-0.2,0.6-0.4,0.9-0.8c0.2-0.3,0.4-0.7,0.5-1.1c0-0.3,0-0.6,0-0.9c-0.1-0.3-0.2-0.7-0.3-1.1l1.2-0.6l4.3,7.7l-0.1,0.4l-2.4,1.2
			v0.1c0.4,0.2,0.9,0.4,1.6,0.6c0.6,0.3,1.1,0.5,1.5,0.8c0.5,0.3,1,0.7,1.5,1.3s1,1.2,1.3,2c0.9,1.8,1,3.4,0.4,4.8
			c-0.6,1.4-1.7,2.5-3.4,3.3l-8.2,4c-0.4,0.2-0.7,0.4-0.9,0.7c-0.2,0.2-0.3,0.6-0.3,1c0,0.2,0,0.5,0.1,0.8c0,0.3,0.1,0.6,0.3,1
			L503.9,203.5z"/>
		<path class="st8" d="M511.4,227.7c-0.6-1.8-0.8-3.7-0.7-5.5c0.1-1.8,0.6-3.5,1.3-5c0.8-1.5,1.9-2.8,3.3-4s3.1-2.1,5.1-2.6
			c2-0.6,3.9-0.8,5.7-0.6c1.9,0.2,3.6,0.7,5.2,1.6c1.6,0.8,2.9,2,4.1,3.5c1.2,1.5,2,3.2,2.6,5.1c0.4,1.4,0.6,2.7,0.6,4
			s-0.1,2.3-0.3,3.3l1.3,0.8l0.5,1.5l-9.1,2.9l-0.5-1.6c2.5-1.7,4.3-3.4,5.2-5.1c0.9-1.6,1.1-3.3,0.6-5.1c-0.7-2.2-2.2-3.6-4.5-4.2
			c-2.3-0.6-5.2-0.3-8.8,0.8c-2,0.6-3.7,1.3-4.9,2.1c-1.3,0.8-2.3,1.7-3,2.6c-0.7,1-1.1,2-1.2,3c-0.1,1.1,0,2.2,0.3,3.3
			c0.5,1.7,1.4,3,2.7,4s3,1.8,5.1,2.3l-0.5,1.8c-1.2-0.2-2.3-0.5-3.3-0.9s-2-0.9-2.8-1.6c-0.9-0.7-1.8-1.6-2.5-2.6
			C512.5,230.5,511.9,229.3,511.4,227.7z"/>
		<path class="st8" d="M517.9,251.3l-2.4-11.4l1.3-0.3c0.1,0.3,0.2,0.6,0.3,0.9c0.1,0.3,0.2,0.5,0.3,0.8c0.2,0.4,0.5,0.6,0.8,0.7
			c0.3,0.1,0.7,0.1,1.1,0l20.1-4.2c0.5-0.1,0.9-0.3,1.2-0.5c0.4-0.3,0.6-0.6,0.7-0.9c0.1-0.3,0.2-0.7,0.2-1.2s0-1,0-1.4l1.3-0.3
			l2.4,9l-0.2,0.3l-24.3,5c-0.4,0.1-0.8,0.2-1,0.5c-0.2,0.2-0.4,0.5-0.5,0.9c-0.1,0.3-0.1,0.5-0.1,0.8s0,0.6,0,1L517.9,251.3z"/>
		<path class="st8" d="M521.4,274c-0.3-0.5-0.6-1.1-0.9-1.8c-0.3-0.7-0.5-1.5-0.6-2.3c-0.2-1.5-0.1-2.6,0.2-3.4s0.9-1.3,1.7-1.7
			v-0.1c-0.5-0.4-0.9-0.7-1.2-1.1c-0.3-0.3-0.6-0.7-0.9-1.1c-0.3-0.5-0.6-1.1-0.8-1.6s-0.4-1.3-0.5-2.2c-0.2-1.4,0.1-2.7,0.8-3.8
			s1.8-1.8,3.2-1.9c0.8-0.1,1.5-0.1,2.1,0.1c0.6,0.1,1.1,0.4,1.6,0.8c0.4,0.3,0.8,0.7,1.1,1.2s0.6,1,0.9,1.5
			c0.5,1.1,1.1,2.3,1.8,3.8c0.6,1.5,1.2,2.6,1.6,3.2l1.8-0.2c0.3,0,0.7-0.1,1.2-0.2s0.9-0.3,1.2-0.5c0.4-0.2,0.7-0.5,0.9-0.9
			s0.3-0.9,0.2-1.5c-0.1-0.5-0.2-1-0.4-1.3s-0.4-0.6-0.6-0.8c-0.2,0.1-0.6,0.2-1.1,0.5c-0.5,0.2-1,0.4-1.4,0.4c-0.2,0-0.5,0-0.8-0.1
			s-0.6-0.2-0.8-0.4c-0.3-0.3-0.5-0.5-0.7-0.9c-0.2-0.3-0.3-0.9-0.4-1.6c-0.1-1,0-1.8,0.4-2.4c0.4-0.6,1-0.9,1.8-1
			c0.7-0.1,1.3,0.1,2,0.6c0.6,0.5,1.1,1.1,1.6,1.8s0.9,1.6,1.2,2.6s0.5,1.9,0.7,2.8c0.2,1.2,0.2,2.3,0.2,3.3s-0.2,1.9-0.5,2.8
			c-0.3,0.8-0.9,1.5-1.6,2c-0.8,0.6-1.8,0.9-3.1,1.1c-1.4,0.2-3,0.4-4.9,0.5s-3.2,0.3-3.8,0.4s-1,0.2-1.3,0.4
			c-0.3,0.2-0.5,0.5-0.6,0.9c-0.1,0.2-0.1,0.6,0,1c0,0.4,0.1,0.9,0.1,1.2L521.4,274z M529.8,263.6c-0.3-0.7-0.7-1.3-1.1-1.9
			c-0.4-0.6-0.8-1.2-1.2-1.5c-0.4-0.4-0.9-0.7-1.5-0.9c-0.6-0.2-1.2-0.2-1.9-0.1c-1,0.1-1.6,0.4-2,0.9s-0.5,1.1-0.4,1.7
			c0.1,0.7,0.3,1.2,0.6,1.6s0.7,0.7,1.2,1L529.8,263.6z M547.1,264.8c-0.6,0.1-1,0-1.4-0.2s-0.8-0.6-1.2-1.1c-0.5-0.6-1.1-1.4-2-2.6
			s-1.9-2.6-3.1-4.1l0.6-0.9c1.6,0.9,2.8,1.6,3.7,2.1s1.7,0.9,2.4,1.2c0.8,0.4,1.4,0.9,1.7,1.3s0.5,1,0.6,1.7c0.1,0.6,0,1.1-0.3,1.7
			C547.9,264.5,547.5,264.7,547.1,264.8z"/>
		<path class="st8" d="M520.7,284.1c0-1.2,0.1-2.4,0.4-3.5c0.3-1.2,0.7-2.1,1-2.7l-1.3-0.5l-0.1-1.4l6.9-0.5v1.4
			c-0.5,0.2-1.2,0.5-1.8,1c-0.7,0.5-1.3,1-1.8,1.5c-0.5,0.6-1,1.3-1.3,2c-0.4,0.8-0.5,1.6-0.5,2.4c0,1.1,0.3,2,0.7,2.5
			c0.5,0.5,1.1,0.8,2.1,0.8c0.5,0,0.9-0.2,1.2-0.4c0.3-0.3,0.6-0.6,0.8-1c0.2-0.5,0.4-1,0.6-1.6c0.2-0.6,0.3-1.3,0.6-2.1
			c0.2-0.8,0.4-1.6,0.7-2.2c0.2-0.6,0.6-1.2,1.1-1.9c0.5-0.6,1-1,1.7-1.4s1.5-0.6,2.4-0.6c1.7-0.1,3.2,0.6,4.3,2s1.7,3.3,1.8,5.7
			c0,1.1,0,2.2-0.2,3.1s-0.4,1.8-0.7,2.4l1.1,0.4v1.4l-6.3,0.5v-1.3c1.3-0.5,2.4-1.3,3.2-2.3c0.9-1.1,1.3-2.2,1.3-3.4
			c0-1-0.3-1.7-0.7-2.2s-1-0.8-1.7-0.8c-0.9,0-1.6,0.5-2,1.3s-0.7,1.9-1.1,3.4c-0.5,2.2-1.2,3.9-2.2,4.9c-0.9,1.1-2.2,1.6-3.7,1.7
			c-2,0.1-3.6-0.7-4.8-2.2C521.4,288.7,520.8,286.6,520.7,284.1z"/>
		<path class="st8" d="M521.1,306.6l0.4-11.7h1.4c0,0.3,0,0.6,0.1,0.9c0,0.3,0.1,0.6,0.2,0.8c0.1,0.4,0.3,0.7,0.6,0.9
			c0.3,0.2,0.6,0.3,1.1,0.3l10.8,0.4c0.4,0,0.8-0.1,1.2-0.3c0.3-0.2,0.6-0.4,0.8-0.7c0.2-0.2,0.3-0.5,0.5-1c0.2-0.4,0.3-0.9,0.3-1.2
			h1.4l0.2,9.1l-0.3,0.3l-14.7-0.5c-0.4,0-0.8,0.1-1.1,0.2c-0.3,0.2-0.5,0.4-0.7,0.8c-0.1,0.2-0.2,0.5-0.3,0.8s-0.2,0.6-0.2,0.9
			L521.1,306.6z M546.4,304.8c-0.9,0-1.7-0.4-2.4-1.2c-0.6-0.7-0.9-1.6-0.9-2.6s0.4-1.8,1.1-2.5s1.5-1,2.4-1s1.7,0.4,2.4,1.2
			c0.6,0.7,0.9,1.6,0.9,2.6s-0.4,1.8-1.1,2.5S547.4,304.9,546.4,304.8z"/>
		<path class="st8" d="M519.3,318.8c0.2-1.7,0.6-3.2,1.2-4.4c0.6-1.3,1.4-2.3,2.4-3c1-0.8,2.1-1.3,3.3-1.6c1.2-0.3,2.6-0.4,4-0.2
			c1.3,0.1,2.5,0.5,3.6,1.2s2,1.4,2.8,2.4s1.4,2.2,1.8,3.6c0.4,1.4,0.5,2.9,0.3,4.5c-0.2,2.3-0.9,4-1.9,5.2s-2.2,1.8-3.7,1.6
			c-0.9-0.1-1.6-0.4-2.1-0.9s-0.7-1.4-0.5-2.5c0.1-0.9,0.4-1.7,0.9-2.2s1.1-0.8,1.8-0.7c0.6,0.1,1.2,0.2,1.8,0.5s1,0.4,1.3,0.5
			c0.2-0.1,0.4-0.3,0.6-0.5s0.2-0.5,0.3-1c0.1-0.6,0-1.1-0.2-1.6s-0.6-1-1.2-1.4c-0.6-0.4-1.4-0.8-2.4-1.2c-1-0.3-2.2-0.6-3.7-0.7
			c-2.2-0.2-4,0.1-5.5,1s-2.3,2-2.4,3.5c-0.1,1.4,0,2.5,0.6,3.4c0.5,0.9,1.3,1.7,2.4,2.4l-1.1,1.3c-0.7-0.5-1.3-1-1.9-1.6
			s-1-1.3-1.4-2.1c-0.4-0.8-0.7-1.7-0.9-2.5C519.2,320.8,519.2,319.9,519.3,318.8z"/>
		<path class="st8" d="M530.9,350.2c-1,0.7-2.2,1.2-3.4,1.4c-1.3,0.2-2.6,0.2-3.9-0.1c-1.3-0.3-2.6-0.8-3.7-1.5
			c-1.1-0.7-2-1.6-2.6-2.7c-0.7-1.1-1.2-2.4-1.4-3.9c-0.2-1.4-0.1-3,0.2-4.7c0.3-1.5,0.8-2.8,1.5-3.9c0.7-1.2,1.5-2.1,2.6-2.9
			c1-0.8,2.2-1.3,3.5-1.6c1.3-0.3,2.7-0.3,4.2,0s2.7,0.8,3.7,1.5s1.9,1.6,2.6,2.7c0.7,1.1,1.1,2.3,1.3,3.7c0.2,1.4,0.1,2.9-0.2,4.5
			c-0.4,1.7-0.9,3.1-1.6,4.3C532.8,348.5,531.9,349.5,530.9,350.2z M519.3,343c0.6,0.4,1.4,0.8,2.3,1.1c0.9,0.3,2.1,0.6,3.3,0.9
			c0.8,0.2,1.8,0.3,2.9,0.4c1.1,0.1,2,0.1,2.7,0c0.8-0.1,1.5-0.4,2-0.8s0.9-1,1.1-1.8c0.2-0.9,0.1-1.6-0.3-2.2
			c-0.4-0.6-0.9-1.1-1.6-1.6c-0.6-0.4-1.4-0.7-2.3-1c-0.9-0.3-1.9-0.5-2.9-0.7c-1.3-0.3-2.4-0.5-3.3-0.6c-0.9-0.1-1.8-0.1-2.7,0.1
			c-0.8,0.1-1.5,0.4-2,0.8s-0.9,1-1.1,1.8c-0.2,0.7-0.1,1.4,0.2,2C518,342,518.6,342.5,519.3,343z"/>
	</g>
	<circle class="st9" cx="292.7" cy="292.3" r="203.8"/>
	<circle class="st10" cx="292.7" cy="292.3" r="276.6"/>
	<path class="st11" d="M487,417.3L487,417.3c0-0.2,0-0.4-0.1-0.5c-0.1-1.7-0.4-3.4-0.7-5.2c-0.7-2.7-1.3-5-1.9-6.7
		c-0.2-0.6-0.4-1.1-0.5-1.6c0-0.1-0.1-0.1-0.1-0.1c-0.1-0.3-0.2-0.6-0.3-0.9l0,0c0.3-0.1,0.6-0.2,0.8-0.2c0.4-0.1,0.7-0.2,1.1-0.2
		c1.2-0.3,2.6-0.5,4-0.7c0.2,0,0.3,0,0.5-0.1c0.5,0,1.1-0.1,1.7-0.2c7.4-0.7,11.7-1.3,12.7-1.7c1-0.5,1.8-1.1,2.4-1.9
		c0.9-1.3,2.2-3.6,3.7-7.1c0.3-0.7,0.3-1,0.1-1.1c-0.1,0-0.1-0.1-0.2-0.1c-0.2,0-0.5,0.1-0.9,0.5c-3.5,2.4-6.3,4.2-8.6,5.5
		c-0.7,0.4-1.4,0.8-2.1,1c-0.8,0.4-1.9,0.8-3.2,1.2c-2.1,0.7-4.8,1.4-8.1,2.2c-0.6,0.1-1.1,0.3-1.6,0.4c-0.3,0.1-0.5,0.1-0.8,0.2
		c0,0,0,0-0.1,0l0,0c-0.7,0.2-1.4,0.4-1.9,0.7l0,0c-0.2-0.5-0.3-0.7-0.4-0.8c-0.6-0.4-1.7-0.3-3.5,0.3c-0.7,0.3-1.1,0.6-1.3,0.9
		c-0.3,0.5-0.1,0.9,0.7,1.5c0.3,0.2,0.7,0.5,1,0.8c0.9,0.8,1.5,1.8,1.8,2.8c0.3,0.7,0.6,1.4,0.8,2.1c0.1,0.3,0.2,0.5,0.3,0.8
		c0.2,0.6,0.4,1.3,0.6,2c0.4,1.4,0.7,2.8,0.9,4.2c0,0.2,0.1,0.5,0.1,0.7c0.1,0.5,0.2,1,0.2,1.5c0.1,0.6,0.2,1.1,0.2,1.6
		c0.6,4.8,0.7,8.8,0.4,12c0,0.5-0.1,0.8,0,0.9s0.3,0,0.6-0.3c0.7-1,1.3-3.5,1.7-7.4c0-0.4,0.1-0.9,0.1-1.3c0.1-1.7,0.1-3.4,0-5.1
		C487,417.5,487,417.4,487,417.3z M504.6,418.2L504.6,418.2L504.6,418.2l1.9-3.4c0.1-0.2,0.2-0.3,0.3-0.5c0.8-1.3,1.6-2.7,2.7-4.1
		c0.2,0.1,0.4,0.1,0.6,0.1c0.5,0,0.7,0,0.9-0.2c0.3-0.5,0.1-1.1-0.4-2.1l-3.1-4.3c-0.7-0.9-1.2-1.7-1.6-2.5
		c-0.1-0.4-0.2-0.7-0.4-0.8c-0.2-0.2-1-0.2-2.2,0s-2.1,0.5-2.4,0.8c-0.1,0-0.1,0.1-0.1,0.1c-0.2,0.3-0.5,0.9-0.7,1.7
		c-0.4,0.8-0.7,1.6-1.1,2.4c-0.8,1.6-1.6,3.3-2.6,5.1c-0.3,0.5-0.5,0.9-0.8,1.3c-0.3,0.7-0.7,1.4-1.1,2.1c-0.5,0.8-0.9,1.7-1.4,2.6
		c-0.1,0.1-0.1,0.2-0.2,0.3c0,0.1-0.1,0.2-0.1,0.2c-0.8,1.4-1.7,2.9-2.6,4.4c-0.1,0-0.1,0.1-0.2,0.1s-0.1,0.1-0.2,0.1h-0.1
		c-0.2,0.2-0.4,0.3-0.6,0.5l0,0c-0.2,0.2-0.5,0.5-0.7,0.8c-0.3,0.5-0.1,0.9,0.3,1.3l0,0c0.1,0,0.2-0.1,0.4-0.2
		c0.8-0.1,1.5-0.1,2.1,0.1c0.7,0.3,1.7,0.7,3.1,1.5l2.8,1.3c0,0,0.1,0.1,0.2,0.2c0.1,0,0.1,0,0.2,0.1c0.5,0.2,1.1,0.4,1.7,0.4l0,0
		c0.4,0,0.7-0.1,1-0.2c0.1,0,0.1-0.1,0.2-0.2s0.1-0.1,0.1-0.2c0,0,0-0.1,0-0.2c0.1-0.1-0.1-0.4-0.2-0.6c0-0.1-0.1-0.1-0.1-0.2
		s-0.1-0.1-0.2-0.2c0.2-0.2,0.3-0.4,0.5-0.6c0.3-0.4,0.6-0.9,1-1.5c0.1-0.2,0.3-0.4,0.4-0.6c0-0.1,0-0.1,0.1-0.2
		c0.1-0.2,0.3-0.4,0.4-0.7L504.6,418.2z M498.9,409.1c0-0.1,0.1-0.2,0.1-0.3c0.2-0.3,0.4-0.6,0.5-0.9c0.9-1.6,1.5-2.7,1.8-3.3
		c0.1-0.1,0.1-0.2,0.2-0.3c0.2-0.3,0.4-0.4,0.6-0.5c0.1,0,0.2,0,0.3,0c0.1,0,0.2,0.1,0.3,0.1c1.1,0.8,2.4,1.9,3.8,3.4
		c0.7,0.7,1.2,1.3,1.6,1.7c-0.7,0.4-1.3,0.8-1.5,1.1c-0.3,0.5-0.7,1-1.2,1.9l0,0l0,0l0,0c0,0,0,0.1-0.1,0.2c-0.3,0.5-0.6,1.1-1,1.8
		c-0.3,0.6-0.6,1.3-0.9,1.9c-2-1.4-3.9-2.8-5.8-4.3l0,0C498.1,410.7,498.5,409.9,498.9,409.1z M502,418.6c-0.6,1.1-1.2,2.2-1.9,3.3
		c-0.4,0.7-0.9,1.5-1.3,2.3c-0.1,0.2-0.2,0.4-0.3,0.5c-0.3-0.2-0.6-0.4-0.9-0.6c0,0-0.1,0-0.1-0.1c-0.3-0.2-0.6-0.4-1-0.6
		c0,0,0,0-0.1,0c-0.4-0.2-0.7-0.4-1.1-0.7c-0.1-0.1-0.2-0.1-0.3-0.2c-0.4-0.2-0.8-0.5-1.3-0.8c-0.2-0.2-0.5-0.3-0.7-0.5
		c-0.2-0.1-0.3-0.2-0.4-0.3c0.3-0.6,0.8-1.5,1.5-2.7c0.1-0.2,0.2-0.3,0.3-0.5c0.1-0.2,0.2-0.4,0.3-0.6c0.4-0.8,0.9-1.7,1.4-2.7
		c0-0.1,0.1-0.1,0.1-0.2c0.3,0.2,0.5,0.3,0.8,0.5c0.1,0.1,0.2,0.1,0.3,0.2c0.2,0.1,0.4,0.3,0.7,0.4c0.1,0.1,0.2,0.1,0.3,0.2
		c0.3,0.2,0.6,0.4,1,0.7c0.7,0.5,1.7,1.2,3,2.2l0,0C502.1,418.5,502,418.5,502,418.6z M525,421.6c-0.5-1.1-1.1-2-1.8-2.8
		c-0.3-0.2-0.5-0.5-0.9-0.7c-2.6-1.4-4.4-2.3-5-2.7c-1.9-1.5-3-2.3-3.1-2.7c-0.1-0.4-0.1-0.8-0.2-0.9c-0.5-0.3-1.5,0-3,0.8
		c-0.2,0.1-0.5,0.2-0.6,0.3c-0.6,0.3-1,0.5-1.1,0.7l0,0c-0.1,0.1-0.3,0.5-0.5,0.9c0,0.1-0.1,0.3-0.1,0.4c-0.2,0.5-0.3,1-0.5,1.7
		c-0.4,1.1-0.8,2.1-1.4,3.1c-0.8,1.8-1.5,3.6-2.5,5.1c0,0.1-0.1,0.1-0.1,0.2s-0.1,0.1-0.1,0.2l0,0c-0.2,0.1-0.4,0.2-0.7,0.3
		c-0.7,0.2-1.1,0.6-1.5,1.2c0,0.1-0.1,0.1-0.1,0.2c0,0.2,0.1,0.5,0.3,0.7c0.2,0.2,0.5,0.2,1,0.2c1,0.2,2.3,0.9,4,2.1
		c1.1,0.8,2,1.5,2.8,2.1c0.7,0.5,1.3,1.1,1.8,1.8c0.1,0.3,0.4,0.4,0.4,0.4c0.5,0.3,1.3,0.8,2.6,1c0.2,0,0.4,0.1,0.6,0.1
		c0.5,0.1,0.9,0,1-0.1c0-0.1,0.1-0.1,0.1-0.2c0-0.2-0.1-0.5-0.2-0.8c-0.1-0.2-0.2-0.3-0.3-0.5c-0.2-0.2-0.5-0.6-1-1l0,0
		c0.1-0.1,0.1-0.1,0.2-0.2c0.2-0.2,0.2-0.3,0.4-0.6c0.3-0.5,0.8-1.1,1.3-2.1l1.3-2l1.9-3.1c0.2-0.3,0.5-0.7,0.7-1
		c0.2,0,0.4,0.1,0.6,0.1c0.2,0,0.4,0.1,0.6,0.1c0.1,0,0.1,0,0.2,0c0.3,0.1,0.6,0.1,0.9,0.2c0.2,0,0.4,0.1,0.6,0.1l0,0
		c0.7,0.2,1.2,0.2,1.4,0l0,0c0-0.1,0.1-0.2,0.1-0.3C525.5,423.5,525.4,422.7,525,421.6z M509,427.9c-0.1,0.1-0.1,0.1-0.2,0.2l0,0
		c-0.4-0.3-0.9-0.7-1.4-1c-0.6-0.4-1.1-0.8-1.7-1.3c0.1-0.1,0.3-0.3,0.4-0.5c0.2-0.2,0.4-0.8,0.6-1.6c0.4-0.7,0.6-1.3,0.9-1.9
		c1-1.9,1.8-3.4,2.5-4.3c0.1-0.2,0.2-0.3,0.3-0.5c0.3-0.4,0.5-0.7,0.6-0.9c0.3-0.4,0.6-0.7,0.8-0.7c0.1,0,0.2,0,0.3,0.1
		c0.1,0.1,0.2,0.1,0.3,0.2c0.6,0.4,1.7,1.1,3,2c-0.2,0.1-0.4,0.3-0.7,0.5c-0.2,0-0.3,0.1-0.4,0.3c-0.1,0.1-0.2,0.2-0.2,0.2
		c-0.5,0.4-0.8,0.7-1,1c0,0,0,0,0,0.1c-0.1,0.2-0.2,0.5-0.6,1C511.5,423.2,510.3,425.6,509,427.9z M519.3,422
		c-0.1,0.1-0.2,0.2-0.2,0.3c-0.2,0.3-0.7,1.2-1.5,2.6c-0.4,0.6-0.7,1.2-1.1,1.8c-0.7,1.5-1.8,3.2-2.9,4.8c0,0.1,0,0.1-0.1,0.2
		c-1-0.8-2.1-1.7-3.3-2.6c0.2-0.2,0.5-0.5,0.7-0.9c0.1-0.1,0.1-0.2,0.2-0.2c0.2-0.2,0.3-0.5,0.5-0.7c0.3-0.4,0.6-1,1.1-1.7
		c0.2-0.3,0.4-0.8,0.6-1.1c0.9-1.4,1.3-2.3,1.6-2.8c0.2-0.5,0.7-1.2,1.2-2.1c0.2-0.4,0.3-0.8,0.4-1.1l0,0c1.7,1.2,2.8,2.1,3.2,2.8
		c0.1,0.1,0.2,0.2,0.2,0.3C519.6,421.7,519.4,421.9,519.3,422z M500.6,408.8c0.4,0.4,0.7,1,1,1.6c0.1,0.2,0.2,0.4,0.3,0.7
		c0.4,0.8,0.7,1.7,1,2.6c0,0.2,0,0.2,0.1,0.3c0,0,0.1,0.1,0.2,0s0.2-0.3,0.2-0.5c0.3-1.6,0.4-2.9,0.4-4c0-0.6,0.1-1.1,0-1.5
		c0-0.2,0-0.4-0.1-0.5l-0.1-0.1c-0.1-0.1-0.7,0-1.8,0.3c-0.9,0.2-1.4,0.5-1.6,0.8c-0.1,0.1,0,0.2,0.1,0.4
		C500.6,408.8,500.6,408.8,500.6,408.8z M489.2,414.1l0.1-0.1c0.6-0.3,1.3-0.9,2.2-2.1c0.4-0.5,0.8-1.3,1.4-2.5
		c0.4-0.8,0.8-1.6,1.2-2.5c0.4-0.8,0.7-1.5,1-2c0.2-0.5,0.4-0.9,0.5-1.2c0-0.1,0.1-0.3,0.1-0.4c0.1-0.4,0.2-0.7,0-0.9
		c-0.1,0-0.1-0.1-0.2-0.1c-0.3,0-0.7,0.1-1.1,0.3c-0.6,0.3-1,0.6-1.3,0.8c-0.3,0.2-0.5,0.5-0.6,0.7c-0.1,0.1-0.2,0.2-0.2,0.5
		c-0.3,1-0.6,2.1-1.2,3.3c-0.1,0.1-0.1,0.1-0.2,0.2c-0.7,1.7-1.5,3.4-2.4,4.8c-0.3,0.7-0.5,0.9-0.2,1
		C488.2,414.2,488.6,414.2,489.2,414.1z M498.9,418.3c-0.5-0.3-1.1-0.4-1.5-0.2c-0.5,0.2-1.1,0.6-1.9,1.2c-0.2,0.3-0.5,0.5-0.8,0.8
		c-0.2,0.2-0.1,0.4,0.1,0.6c0.1,0.1,0.2,0.2,0.4,0.1c1.7,0.2,2.9,0.2,3.5,0.1c0.4-0.1,0.6-0.1,0.7-0.3
		C500,419.8,499.8,418.9,498.9,418.3z"/>
	<path class="st11" d="M483.3,460.9l-0.1-0.1c-0.2,0-0.5,0-1.1,0.1c-3.7,1.4-6.9,2.4-9.3,3c-0.8,0.2-1.5,0.4-2.2,0.5
		c-1.4,0.2-3.4,0.4-5.9,0.5c-0.8,0-1.6,0-2.5,0c-0.2,0-0.4,0-0.6,0c-1.2,0-2.5,0-4-0.1c-1,0-1.8,0-2.5,0.1c1.2-1.1,2.3-2,3.3-2.8
		l0,0c0.1,0,0.1-0.1,0.2-0.1c2.1-1.7,4.2-3.4,6.1-4.8c1.6-1.3,2.2-2.2,1.9-2.6c-0.4-0.5-1.4-0.6-3.1-0.3c-1.7,0.6-2.7,0.9-2.9,1.1
		c-0.2,0.2-0.6,0.6-1.2,1.5c-0.6,0.6-1.2,1.5-1.9,2.3c-1.1,1.3-2.4,2.6-3.9,4.3c-0.3,0.5-0.7,0.7-1,1.2c-0.4,0.3-1,0.8-1.3,1.2
		c-0.5,0.4-0.9,0.9-1.4,1.3c-0.3,0.3-0.5,0.5-0.8,0.8c-0.4,0.4-0.9,0.8-1.3,1.3l0,0c-0.1-0.4-0.3-0.9-0.5-1.4l0,0
		c-0.1-0.3-0.2-0.6-0.3-0.8c-0.1-0.2-0.1-0.3-0.2-0.5c0,0,0-0.1-0.1-0.1c-0.2-0.4-0.3-0.9-0.5-1.3c0,0,0,0,0-0.1
		c2.2-2.4,3.7-4,4.2-4.7l0.3-0.3l0,0l0,0l0,0c0.9-0.9,1.9-1.9,3.1-3.1c0.4-0.4,0.6-0.8,0.7-1.1c0.1-0.2,0.1-0.3,0.1-0.5
		s0-0.3-0.1-0.5s-0.6-0.2-1.3,0.1c-0.1,0-0.3,0.1-0.4,0.2c-0.3,0.1-0.5,0.2-0.7,0.3c-0.6,0.3-1.1,0.5-1.3,0.7
		c-0.1,0.1-0.7,0.7-1.8,1.8c-1.2,1.5-2.5,3-3.8,4.5c-0.1-0.2-0.2-0.5-0.3-0.7c-0.1-0.2-0.2-0.4-0.3-0.7c-0.2-0.3-0.3-0.7-0.5-1
		c-0.1-0.3-0.2-0.5-0.4-0.8c-0.2-0.3-0.3-0.6-0.5-1v-0.1c0.4-0.4,0.7-0.8,1.1-1.2c0.3-0.2,0.5-0.5,0.7-0.8c0.5-0.5,1-1,1.5-1.5
		c1.5-1.6,2.6-2.9,3.4-3.7c0.2-0.3,0.4-0.5,0.6-0.7c0.6-0.8,0.8-1.4,0.7-1.6c-0.3-0.3-0.9-0.4-1.5-0.3c-0.3,0.1-0.6,0.2-0.9,0.3
		c-0.4,0.1-0.7,0.3-1,0.4l0,0c-0.1,0.1-0.3,0.2-0.4,0.2c-0.2,0.2-0.5,0.5-0.8,1c-0.2,0.3-0.4,0.5-0.6,0.8c-0.3,0.4-0.6,0.7-0.9,1.1
		c-0.2,0.2-0.3,0.4-0.5,0.6c-0.6,0.7-1.3,1.4-2,2.2l-0.1,0.1c-0.2,0.1-0.4,0.3-0.5,0.5c-0.7-1.4-1.1-2.6-1.3-3.4
		c0-0.2-0.1-0.4-0.1-0.5c-0.1-0.5-0.2-0.7-0.4-0.9c-0.4-0.4-1.1-0.5-2.6-0.3c-1.4,0.2-2.4,0.5-2.9,0.9c-0.4,0.4-0.5,0.7-0.3,1.5
		c0.1,0.1,0.5,0.3,0.8,0.6c0.8,0.6,1.6,1.4,2.3,2.2c0.6,0.8,1.2,1.7,1.7,2.6c-1.3,1.4-2.6,2.7-3.8,3.9c-0.7,0.6-1.3,1.3-1.9,1.9
		c-1.2,1-1.7,1.5-1.5,1.7s0.7,0.4,1.4,0.3c0.6-0.1,1.5-0.6,2.6-1.5c0.4-0.4,0.9-0.7,1.5-1.2c0-0.1,0.1-0.1,0.1-0.2
		c0.2-0.2,0.5-0.4,0.8-0.7c0.1-0.1,0.2-0.2,0.3-0.3c0.6-0.5,1.2-1.1,1.9-1.8c0.6,1.2,1.2,2.3,1.8,3.6c0.1,0.3,0.2,0.5,0.3,0.7
		c-1.5,1.7-3.1,3.3-4.7,5l0,0c-0.2,0.2-0.5,0.4-0.6,0.6c-0.1,0.1-0.2,0.2-0.2,0.3c-0.3,0.4-0.4,0.7-0.2,1c0.3,0.3,0.8,0.3,1.6,0
		c0.5-0.2,1-0.6,1.6-1.1c0.3-0.3,0.8-0.7,1.3-1.2c0.2-0.2,0.5-0.4,0.7-0.7c0.2-0.1,0.4-0.3,0.6-0.5V468v0.1c0.1-0.1,0.1-0.2,0.2-0.3
		c0.1-0.1,0.1-0.1,0.2-0.2s0.1-0.1,0.2-0.2c0,0,0-0.1,0.1-0.1l0.1-0.1c0.6,1.6,1,3,1.4,4.4c-0.1,0.1-0.2,0.2-0.3,0.3
		c-0.1,0.1-0.1,0.1-0.2,0.2c-0.5,0.5-0.9,0.9-1.2,1.4c-1.3,1.8-3.6,4-7.1,6.8c-0.7,0.5-0.8,1-0.5,1.4c0.2,0.2,1.1,0.2,2.4-0.1
		c1.4-0.4,2.4-0.8,2.9-1.3c0.1-0.1,0.6-0.6,1.2-1.7c0.8-1.2,1.7-2.4,2.6-3.4c0.2-0.3,0.5-0.6,0.7-0.9l0,0c0.3,1.9,0.4,3.6,0.5,5.2
		c0,0.1,0,0.2,0,0.3c0,0.7,0,1.4,0,2.1c0,0.8-0.1,1.5-0.2,2.2c-0.3,2.8-1.4,6.9-3.4,12.5c-0.5,0.9-0.6,1.5-0.4,1.7s0.3,0.1,0.6-0.1
		c0.5-0.5,1.2-1.5,2-2.7c2.5-3.4,3.8-7.4,4.4-12c0.1-1.2,0.2-2.4,0.2-3.6c0-0.6,0-1.3,0-1.9c-0.1-0.6-0.2-1.3-0.2-2
		c-0.1-0.6-0.2-1.3-0.3-1.9c-0.2-0.9-0.3-1.8-0.5-2.6c0.5-0.5,0.9-0.9,1.4-1.4c0.6-0.7,1.4-1.4,2-2c0.2-0.2,0.5-0.5,0.7-0.7
		c0.3-0.1,0.6-0.2,0.9-0.2c1-0.1,2-0.2,3.1-0.2c0.1,0.1,0.2,0,0.2,0c1.9,0.1,3.8,0.3,6,0.7c0.6,0.2,1.3,0.2,1.9,0.3
		c1.5,0.2,2.9,0.4,4.1,0.6c3.5,0.5,5.7,0.7,6.4,0.6c1.1-0.2,2-0.6,2.7-1.1c1.2-1,2.9-2.9,5.2-6C483.4,461.5,483.5,461.1,483.3,460.9
		z M474.6,480.8c-3-2.6-4.9-4.3-5.6-5.2c-1.9-2.6-3.2-4.1-3.5-4.9c-0.1-0.1-0.1-0.2-0.1-0.3c0-0.5,0-0.9-0.2-1.1
		c-0.4-0.4-1.5-0.6-3.2-0.1c-1.1,0-1.8,0.2-2,0.4c-0.1,0.1-0.4,0.5-0.7,1c-0.3,0.4-0.6,1-1.1,1.7c-0.2,0.3-0.4,0.5-0.6,0.8
		c-0.1,0.1-0.1,0.1-0.2,0.2c-0.3,0.4-0.6,0.8-0.9,1.2c-0.5,0.7-1,1.3-1.5,1.9c-0.7,0.8-1.4,1.6-2.1,2.3c0,0.1-0.1,0.1-0.1,0.2
		c-0.1,0.1-0.1,0.1-0.2,0.2s-0.2,0.2-0.3,0.3c-0.2,0.2-0.3,0.4-0.5,0.6l0,0l0,0l0,0l0,0l0,0l0,0c-0.1,0.1-0.3,0.1-0.4,0.1
		c0,0-0.1,0-0.1,0.1c-0.6,0.2-1,0.5-1,0.5c-0.3,0.3-0.3,0.6,0,0.9s0.4,0.5,0.6,0.8c1.1,0.7,2.1,1.7,3.1,2.7c1.9,2.1,3.5,4.2,5.1,6.1
		c0.4,0.5,0.9,1.1,1.4,1.7c0.2,0.4,0.3,0.6,0.4,0.7s0.1,0.2,0.2,0.2c0.2,0.2,0.6,0.4,1.1,0.5c0.4,0.2,0.7,0.4,1.1,0.4
		c0.2,0,0.3-0.1,0.4-0.2c0.2-0.2,0.3-0.5,0.2-0.9l-0.1-0.1l0,0c0-0.2-0.1-0.4-0.1-0.6c0,0,0,0,0-0.1c0-0.2-0.1-0.3-0.2-0.5l0,0
		c0.1,0,0.1-0.1,0.2-0.1s0.2-0.1,0.2-0.2c0.1-0.1,0.3-0.3,0.5-0.4c0.3-0.3,1-0.8,1.5-1.4l3.9-3.7c0.2-0.2,0.4-0.4,0.6-0.6
		c1,0.2,2.2,0.6,3.7,1.1c0.7,0.2,1.2,0.3,1.5,0.1l0,0c0,0,0,0,0-0.1c0,0,0,0,0.1,0l0,0c0.5-0.5,0.6-1.3,0.6-2.6
		C476,483.3,475.6,482,474.6,480.8z M457.7,484.8c-0.1,0.1-0.2,0.1-0.3,0.2l-1.3-1.7l-2.3-2.9c0.1-0.1,0.1-0.1,0.2-0.2
		c0.2-0.2,0.6-0.6,1-1.4c1-1.2,2-2.3,2.8-3.2c0.8-0.8,1.5-1.5,2.1-1.9c0.7-0.5,1.1-0.9,1.3-1.1c0.5-0.4,1-0.5,1.4,0
		c0.6,0.8,1.9,2.2,3.5,4.1c-0.3,0.1-0.6,0.2-1,0.3c-0.2,0-0.2,0-0.3,0.1c-0.3,0.2-0.6,0.4-0.9,0.5c-0.4,0.2-0.6,0.4-0.8,0.5
		c0,0-0.1,0-0.1,0.1c0,0-0.1,0.1-0.2,0.1c-0.1,0.1-0.3,0.3-0.5,0.6l0,0c-0.3,0.4-0.5,0.8-0.8,1.2c-1.2,1.5-2.4,3-3.6,4.4
		L457.7,484.8z M471,483.4c-0.3,0.1-0.6,0.1-0.9,0.2c-0.2,0.1-0.3,0.1-0.5,0.2c-0.3,0.1-0.5,0.2-0.7,0.3c-0.1,0.1-0.2,0.1-0.3,0.2
		c-0.3,0.3-0.9,0.9-1.8,1.8c-0.7,0.8-1.4,1.6-2.2,2.4c-0.7,0.7-1.4,1.5-2.2,2.2c-0.1,0.1-0.2,0.2-0.3,0.3l-3.7-4.7
		c0.1,0,0.2,0,0.3-0.1c0.4-0.2,0.8-0.5,1.3-0.9c0.4-0.4,1.1-0.9,1.8-1.8c0.9-0.9,1.6-1.6,2-2.2c0.3-0.5,0.7-0.7,0.7-0.9
		c0.4-0.4,1-1,1.7-1.5c0.4-0.4,0.6-0.8,0.7-1.1c0.2,0.2,0.3,0.4,0.5,0.6c1.9,2.4,3.1,4,3.5,4.7c0.1,0.1,0.2,0.3,0.3,0.4
		C471,483.4,471,483.4,471,483.4z"/>
	<path class="st11" d="M383.2,502.6c0.7-0.3,1-0.5,0.9-0.8c-0.2-0.5-0.7-0.8-1.6-0.9c-0.5-0.1-1.1,0-1.5,0c-0.3,0.1-0.7,0.3-0.9,0.4
		c-0.2,0.1-0.6,0.3-1.2,0.6l0,0l0,0c-0.4,0.2-0.8,0.5-1.4,0.8c0,0,0,0-0.1,0c-0.2,0.1-0.4,0.3-0.7,0.4c0.4-0.5,0.4-1.2,0-2.3
		c-0.5-1.3-1.2-2.2-2.1-2.8c-0.9-0.4-2.2-0.5-3.8-0.5c-0.8,0-1.4-0.1-1.8,0.1c-0.1,0-0.2,0.1-0.2,0.1l0,0c-0.1,0.1-0.2,0.3-0.3,0.5
		l0.1,0.1l0,0l0.1,0.2c0.2,0.1,0.2,0.2,0.5,0.4c2.4,2.2,4.2,3.8,5.3,4.4c0.5,0.2,0.9,0.3,1.2,0.3c-1,0.6-1.9,1.2-2.8,1.7
		c-0.4,0.3-0.8,0.5-1.3,0.8c-0.3,0.1-0.5,0.3-0.7,0.4c-2.8,1.7-5,3-6.6,3.9c-0.5,0.2-0.7,0.4-0.7,0.6c0.2,0.5,0.7,0.8,1.9,1.1
		c0.4,0,0.7,0,1,0c0.9,0,1.6-0.1,2-0.3s0.9-0.7,2-1.4c0.5-0.3,0.9-0.7,1.4-1c0,0,0,0,0.1-0.1c3.7-2.7,7.1-4.8,10-6.4
		C382.5,503,382.9,502.8,383.2,502.6z M375.2,515.2c0.3-0.1,0.4-0.2,0.5-0.2c0.4-0.2,1-0.5,1.9-1c0.2-0.1,0.3-0.2,0.5-0.3
		c0,0,0.1,0,0.1-0.1c0.2-0.2,0.3-0.3,0.5-0.4c0.8-0.6,1.3-1,1.6-1.2c0.3-0.3,0.9-0.5,1.5-0.9c1.1-0.7,1.5-1.2,1.3-1.6
		c0-0.1-0.1-0.1-0.2-0.2c-0.3-0.1-0.8-0.2-1.6-0.2c-1.1,0.1-1.8,0.3-2.2,0.4c0,0-0.2,0.2-0.7,0.6c-0.3,0.3-0.8,0.6-1.2,0.9
		c-0.9,0.8-1.7,1.4-2.8,2.1c-0.1,0.2-0.3,0.3-0.5,0.5l-0.1,0.1c-1,0.4-1.6,0.9-1.4,1.3c0.2,0.4,0.6,0.5,1.5,0.3c0.1,0.1,0.2,0,0.4,0
		c0.2,0,0.4,0,0.6-0.1C374.9,515.3,375,515.2,375.2,515.2z M423,513c-0.1-0.3-0.6-0.4-1.5-0.5c-4.8-0.4-8.4-1.2-11.2-2.2
		c-1.8-0.6-4-1.8-6.7-3.4c0.1-0.2,0.3-0.4,0.5-0.6l0,0c0.2-0.2,0.4-0.5,0.6-0.8c1.6-2.1,3-4.3,4.1-6.4c0.7-1.3,1.3-2.1,1.8-2.7
		c0.3-0.3,0.4-0.6,0.3-0.7c0-0.1-0.1-0.1-0.1-0.2c-0.3-0.4-1.1-0.8-2.4-0.9c-1.4-0.2-2.4-0.1-3,0.1c-0.5,0.2-0.7,0.6-0.5,1.1
		c0.1,0.2,0.1,0.6,0.2,1c0,0.7-0.1,1.7-0.3,2.8c-0.2,1.1-0.6,2.2-0.9,3.5c-0.1,0.4-0.2,0.7-0.4,1.1c0,0.1-0.1,0.2-0.1,0.3
		c-0.2,0.6-0.4,1.1-0.7,1.8c-0.5-0.3-1.1-0.7-1.7-1.1l-0.6-1.6c-0.7-2.3-1.3-4-1.3-5.3c0.1-0.6,0-1.1-0.1-1.5
		c-0.2-0.5-0.7-0.8-1.6-1c-1.5,0-2.4,0-2.7,0.1c-0.3,0.1-0.7,0.4-1.4,1.1c-0.4,0.4-0.9,0.8-1.4,1.2c-1.4,1.1-2.9,2.3-4.6,3.4
		c-0.7,0.4-0.9,0.7-0.9,0.8c0.1,0.1,0.4,0.3,0.9,0.4c0.7,0.2,1.2,0.1,1.9-0.1c0.7-0.3,1.5-0.7,2.8-1.6c0.8-0.4,1.4-0.8,1.9-1
		c0.2-0.1,0.4-0.2,0.6-0.3c0.1,0,0.1,0,0.2,0s0.3,0.1,0.4,0.2s0.1,0.2,0.1,0.2c0.7,1.1,1.5,2.6,2.3,4.8c3.7,9.5,5.9,15.6,6.5,18.2
		c0,0.4,0,0.7,0,0.9c0,0.8-0.2,1.2-0.5,1.3l0,0c-0.1,0-0.2,0-0.3,0.1c0,0,0,0-0.1,0s-0.2,0-0.3,0.1c-0.7,0.1-1.7,0.2-3.2,0.3
		c-0.6,0.1-1,0.1-1.3,0.2c-0.1,0-0.1,0.2,0,0.4c0.1,0.1,0.5,0.4,1.1,0.6c0.9,0.4,1.9,0.9,3,1.5c0.7,0.3,1.5,0.8,2.5,1.3
		c0.7,0.6,1.4,0.8,1.6,0.7c0.8-0.3,1.3-1.3,1.6-2.9c0.1-0.5,0.1-1,0.1-1.5c0-1.5-0.3-3.2-1-4.9l-5.3-13.4c0.4,0.3,0.7,0.6,1.1,0.9
		c1.6,1.3,3,2.4,4.3,3.4c2.7,2.1,4.8,3.6,6.2,4.4c0.8,0.6,1.9,0.6,3.3,0.1c2-0.8,3.8-1.9,5.2-3.1c0.5-0.3,0.7-0.5,0.7-0.7
		C423,513.2,423,513.1,423,513z M395.6,507.5c-0.4-0.1-0.7-0.2-0.9-0.2c-0.6-0.1-1-0.2-1.2-0.1c0,0-0.2,0.2-0.5,0.6
		c-1.6,1.5-3.7,2.9-6.1,4.3c-0.5,0.3-0.7,0.6-0.6,0.7c0.1,0.3,0.6,0.4,1.4,0.5s1.4,0.2,1.8,0c0,0,0.1,0,0.1-0.1
		c0.3-0.2,1.1-1,2.4-2.4c0.3-0.4,0.5-0.5,0.7-0.6c0.3-0.1,0.3-0.1,0.4,0.2c0.1,0.3,0.3,1.1,0.3,2.6c0,1.6,0,3.6-0.3,5.8
		c-0.3,1.9-0.8,4.4-1.9,7.4c0,0-0.1,0-0.1,0.1c-0.1,0.2-0.1,0.4-0.1,0.5s0.3,0.1,0.6,0.1c0.1,0,0.1,0,0.2-0.1
		c0.5-0.2,1.2-0.9,1.9-2.1c1-1.3,1.7-2.9,2.1-4.9c0.5-1.9,0.8-4.1,1-6.6c0-0.2,0-0.3,0-0.5c0-0.3,0-0.7,0.1-1
		c0.1-0.8,0.3-1.6,0.6-2.3c0.1-0.2,0.1-0.4,0.1-0.6s0-0.4-0.1-0.6C397.2,508.2,396.6,507.8,395.6,507.5z M385.5,488.4
		C385.5,488.4,385.5,488.5,385.5,488.4c0.1,0.1,0.1,0.2,0.2,0.2c0.4,0.5,1.2,1.2,2.4,2c0.5,0.3,0.9,0.7,1.5,1c2,1.4,3.5,2.1,4.4,2
		c0.1,0,0.3,0,0.4-0.1c1-0.4,1.4-1,1.4-1.9c0-0.3-0.1-0.6-0.2-1c-0.1-0.3-0.3-0.6-0.5-0.9c-0.3-0.5-0.8-1-1.3-1.4
		c-0.7-0.6-2-1-3.9-1.2c-1.4-0.1-2.4-0.1-3.4,0.1c-0.3,0.1-0.5,0.2-0.8,0.3c-0.3,0.1-0.3,0.3-0.2,0.5
		C385.4,488.3,385.4,488.3,385.5,488.4z M388.8,528.6l-0.2-3.5c0-1.2,0.1-2.1,0.3-2.8l0.2-0.5c0-0.2,0-0.3,0-0.5
		c0-0.1,0-0.3-0.1-0.4c0,0-0.1-0.1-0.1-0.2c0-0.1-0.1-0.1-0.2-0.2c-0.1-0.1-0.2-0.1-0.2-0.2c-0.2-0.1-0.5-0.2-0.9-0.3
		c-1.6-0.1-2.7,0-3.2,0.2c-0.3,0.1-0.5,0.3-0.8,0.7c-0.6,0.7-1.3,1.3-2,1.8c-0.2,0.2-0.6,0.5-0.9,0.8c-0.5,0.3-1.2,0.8-1.9,1.2
		c-0.3,0.1-0.5,0.3-0.7,0.4c-0.2,0.1-0.4,0.2-0.6,0.3l0,0l0,0l0,0h0.1l0,0h-0.1l0,0l0,0c-0.2,0-0.3,0-0.5,0
		c-0.6-0.1-1.5,0.1-2.1,0.4c-0.5,0.2-0.7,0.6-0.5,1.1c0.1,0.1,0.2,0.2,0.5,0.1c0.9,0.3,1.6,0.6,1.9,1.1c0.5,0.4,0.9,1.2,1.7,2.4
		l1.5,2.3c0.4,0.6,0.8,1.2,1.5,1.6c0.1,0.1,0.2,0.1,0.2,0.2c0.1,0,0.1,0,0.1,0.1c0.2,0.1,0.3,0.1,0.5,0.1h0.1h0.1l0,0h0.1
		c0.2-0.1,0.2-0.2,0.3-0.4c0-0.1,0.1-0.2,0.1-0.4c0-0.1,0-0.2,0-0.4l0,0l0,0c0-0.1,0-0.2-0.1-0.4h0.1c0.2,0,0.3-0.1,0.5-0.1
		c0.3-0.1,0.7-0.4,1.3-0.6l3-1.6c0.7-0.4,1.3-0.8,2.1-1.1c0.3-0.1,0.4-0.2,0.3-0.4C390.2,529,389.6,528.7,388.8,528.6z M385.4,529.5
		c-0.4,0.3-0.9,0.6-1.3,0.9c-0.2,0.1-0.4,0.2-0.6,0.3c-0.4,0.2-0.8,0.4-1.2,0.6l0,0c-0.2-0.5-0.5-1-0.9-1.6c0-0.1-0.1-0.1-0.1-0.2
		c-0.1-0.2-0.3-0.5-0.4-0.8c-0.1-0.1-0.1-0.2-0.2-0.3c-0.2-0.3-0.4-0.7-0.6-1c0-0.1-0.1-0.2-0.1-0.2c-0.2-0.2-0.3-0.5-0.4-0.8
		c0.4-0.2,0.8-0.6,1.4-0.9c0.4-0.3,0.8-0.5,1.3-0.9c0.8-0.6,1.4-1,2.1-1.3c0.4-0.2,0.6-0.1,0.7,0.2c0.2,0.5,0.5,1.3,0.7,2.1
		c0.2,1,0.3,2,0.6,3.1c0,0,0,0,0,0.1C386.1,529,385.8,529.3,385.4,529.5z M375.9,520.9c0.1,0,0.3,0,0.4-0.1c0,0,0.1,0,0.2,0
		c0.3-0.1,0.5-0.2,0.8-0.3s0.4-0.2,0.5-0.2c0.4-0.2,1-0.4,1.9-1c0.2-0.1,0.4-0.2,0.6-0.3c1.1-0.7,1.9-1.2,2.2-1.4
		c0.3-0.3,0.8-0.6,1.5-0.9c1.1-0.7,1.5-1.2,1.3-1.6c-0.1-0.3-0.8-0.4-1.8-0.4c-1.1,0.1-1.8,0.3-2.2,0.4c0,0-0.2,0.2-0.7,0.6
		c-1.3,1.1-2.7,2-4.1,3c-0.1,0.1-0.3,0.1-0.5,0.3l-0.1,0.1c-1,0.4-1.6,0.9-1.4,1.4C374.5,520.8,375,520.9,375.9,520.9z"/>
	<path class="st11" d="M337.7,529.7c-1.1-0.4-2-0.5-2.1-0.5c-0.2,0-0.4,0-0.7,0.1c-0.8,0.1-2.1,0.3-3.9,0.7l0,0
		c-3.2,0.5-6.7,1.1-10.6,1.7c-2,0.3-4.1,0.7-6.3,1c-0.4,0.1-0.9,0.1-1.3,0.2c-2.1,0.3-4.2,0.6-6.5,0.9c-0.7,0.2-1.4,0.2-2.1,0.4
		c-0.8,0.2-1.2,0.3-1.2,0.6c0,0.4,0.6,0.8,1.7,1.2c0.8,0.4,1.5,0.6,2.2,0.6c0.2,0,0.4,0,0.6,0c0.3,0,1,0,1.9-0.4
		c0.9-0.1,1.7-0.3,2.5-0.4c0.1,0,0.2,0,0.2,0c0.8-0.1,1.6-0.3,2.3-0.4h0.1c1.6-0.2,3-0.5,4.3-0.6l0,0c0.1,0.2,0.2,0.6,0.4,1.1
		c0.5,1,0.7,2.8,0.8,5.7c0.1,3.5,0.1,6.2,0,7.8c-0.1,1.3-0.2,2.4-0.1,3.5c0,0.6,0.3,1.1,0.6,1.9c0.2,0.6,0.4,0.8,0.6,1.1
		c0.3,0.3,0.4,0.4,0.7,0.4c0.6,0,1-0.5,1.2-1.2c0.4-0.9,0.6-1.7,0.6-2.8l-0.4-11.3c0-1.3,0.1-2.4,0.1-3.5c0.1-0.8,0.2-1.4,0.2-1.7
		c0-0.2,0-0.3-0.1-0.5c0-0.1-0.1-0.2-0.2-0.3l-0.1-0.1c-0.1-0.1-0.2-0.2-0.4-0.3l0,0c-0.1,0-0.1-0.1-0.1-0.1
		c-0.1-0.1-0.3-0.1-0.4-0.2l0,0c4.4-0.6,8.4-1,12-1.3c1.2-0.1,2.4-0.2,3.5-0.3c1.4-0.1,2.1-0.4,2.2-0.8
		C340.1,531.3,339.3,530.7,337.7,529.7z M339.4,512.2c-0.2-0.2-0.5-0.4-0.7-0.5c-0.4-0.3-0.8-0.6-1.1-0.8c-1-0.7-1.8-1.1-2.2-1l0,0
		c-0.4,0-1.1,0.2-2.4,0.5c-3.5,0.9-6.9,1.6-10.1,2.2c0.4-0.5,0.5-1.1,0.5-2c0-0.7-0.2-1.4-0.6-2.1s-1.4-1.2-3-1.8
		c0,0-0.1-0.1-0.3-0.1c-0.1,0-0.3-0.1-0.4-0.1c-1-0.3-2-0.5-2.8-0.5c-0.3,0-0.6,0.2-0.5,0.4c0,0.6,0.8,1.9,2.4,4.1
		c0.6,1,1.2,1.6,1.6,2c0.2,0.2,0.4,0.3,0.6,0.5c-0.2,0-0.4,0.1-0.6,0.1c-4.4,0.9-8.8,1.3-12.5,1.6h-0.7c0-0.1-0.1-0.3-0.1-0.4
		c-0.2-0.4-0.5-0.8-0.7-1.1l-0.1-0.1c-0.3-0.4-0.6-0.5-0.9-0.5s-0.4,0.3-0.5,0.9c-0.2,0.5-0.3,0.9-0.5,1.3c-1,2.9-1.8,4.9-2.5,5.9
		c-0.4,0.4-0.5,1-0.5,1.6c0,0.7,0.2,1.3,0.5,1.8c0.1,0.1,0.3,0.3,0.4,0.4c0.4,0.3,0.9,0.6,1.3,0.5c0.2,0,0.4-0.1,0.6-0.2
		c0.2-0.1,0.4-0.3,0.6-0.4c0.5-0.6,1.1-1.6,1.7-3c0-0.1,0.1-0.3,0.1-0.4c0.6-1.4,0.9-2.5,1-3.4l0,0l0,0c0.2,0,0.5,0.1,0.7,0.1
		c0.3,0,0.5,0,0.8,0c0.1,0,0.7-0.2,1.5-0.3c2.6-0.6,5.1-1.2,7.4-1.8c4-0.9,7.6-1.6,10.7-2.1c1.8-0.2,3.4-0.4,4.8-0.5
		c0.7,0,1.1,0.1,1.1,0.5c0,0.5-0.5,2.2-1.5,4.9c-0.2,0.4-0.3,0.8-0.5,1.2c0,0.3,0.2,0.4,0.3,0.4c2.9-1.5,5.2-2.4,7.3-2.9
		c0.2,0,0.3-0.1,0.4-0.1c1-0.3,1.5-0.9,1.4-1.8C341.6,514.4,340.9,513.4,339.4,512.2z M335.5,540.6c-1.6-0.6-3-1.3-4.5-1.8
		c-0.8-0.1-1.3-0.2-1.7-0.2c-0.1,0-0.3,0.2-0.3,0.4c0,0.3,0.4,0.7,1,1.2c0.9,0.8,2.2,2.3,4,4.6c1.3,1.8,2.5,2.8,3.4,3.5
		c0.6,0.3,0.9,0.5,1.1,0.5c0.6,0,1-0.3,1.2-0.9c0.3-0.7,0.4-1.4,0.3-2c0-1-0.2-1.8-0.7-2.6C338.6,542.6,337.3,541.7,335.5,540.6z
		 M315.3,526.1c0.1,0,0.3,0,0.5,0l0,0c0.9-0.1,2.4-0.3,4.4-0.6c0.4-0.1,0.8-0.2,1.3-0.3s1-0.2,1.6-0.3c2.6-0.7,4.3-1,5.1-1.5
		c0.6-0.2,1-0.3,1-0.6c0-0.6-0.5-1-1.2-1.2c-1-0.4-1.8-0.6-2.5-0.6c-0.1,0-0.4,0-0.8,0.2c-1.2,0.5-2.8,0.9-4.7,1.4
		c-2.6,0.7-5.1,1.2-7.5,1.5c-0.7,0-1.1,0.1-1.3,0.3c-0.1,0.1-0.1,0.1-0.1,0.2c0,0.3,0.3,0.7,0.9,1.1
		C312.5,526.1,313.6,526.2,315.3,526.1z M312.2,540.9c-1.3-0.5-2.1-0.6-2.4-0.6c-0.4,0-0.7,0.2-0.7,0.3c0,1,0.1,1.5-0.2,2
		c-0.4,0.9-0.8,1.8-1.4,2.9c-0.3,0.5-0.6,1-1,1.6c-0.1,0.1-0.2,0.3-0.3,0.4c-0.9,1.4-1.9,2.7-2.9,4c0,0.1,0,0.1,0,0.2
		c0.1,0.1,0.2,0.1,0.5,0.1c0.1,0,0.4-0.1,0.7-0.3c0.1-0.1,0.2-0.1,0.3-0.2c0.4-0.1,0.8-0.3,1.3-0.7c0.2-0.2,0.5-0.3,0.8-0.5
		c0.1-0.1,0.3-0.3,0.4-0.4c0.4-0.3,0.7-0.6,1.1-0.9c1.1-0.9,2.2-2,3.2-3.2c0.7-1,1.3-1.7,2-2.2c0.3-0.3,0.4-0.4,0.4-0.7
		C314.1,542,313.5,541.3,312.2,540.9z"/>
	<path class="st11" d="M276.5,551c-0.3-0.5-0.7-1-1.2-1.5c-1.3-1-2.2-1.6-2.6-1.8c-0.1,0-0.1-0.1-0.2-0.1c-0.2-0.1-0.8-0.2-1.7-0.4
		c-0.2,0-0.5-0.1-0.8-0.1c-0.7-0.1-1.4-0.2-2.2-0.3c-2.9-0.4-6.5-1.1-11-2c-1.1-0.3-2-0.5-3-0.8l0,0l0,0l0,0h-0.1l1.1-3.2l0.1-0.4
		l0,0l-0.1,0.5l3.3-9.8l0,0l0,0l0,0l0,0l0,0l0,0l0,0l0,0c0.1,0,0.1,0.1,0.3,0.1c0.8,0.4,1.7,0.8,2.5,1c0.4,0.1,0.8,0.2,1.2,0.3
		c0.5,0.1,1.1,0.2,1.7,0.2c1.5,0.3,3,0.5,4.4,0.7c0.5,0.1,1.1,0.2,1.6,0.2l0,0l0,0c0.6,0,1.1,0,1.5-0.1c0.5-0.1,0.8-0.3,0.9-0.6
		c0-0.1,0-0.2,0-0.3c-0.1-0.4-0.5-0.8-1.2-1.5c-0.7-0.4-1.2-0.8-1.5-1c-0.1-0.1-0.2-0.1-0.2-0.1s0,0-0.1,0s-0.4,0-0.8,0
		c-0.3,0-0.7,0-1.2,0c-0.3,0-0.8,0-1.4,0c-1.1,0-2.6-0.1-4.7-0.2c-0.6,0-1.2-0.1-1.9-0.1l0,0c-0.2,0-0.4,0-0.5,0l2.7-8.1
		c0.2-0.5,0.4-1.2,0.9-1.9c0.3-0.4,0.3-0.6,0.5-1c0-0.1,0-0.2,0-0.3c0-0.5-0.3-1-0.9-1.5l0,0c-0.1-0.1-0.3-0.2-0.4-0.3
		s-0.3-0.2-0.4-0.3c0.8,0.1,1.7,0.3,2.6,0.5c4.3,0.6,7.2,0.9,8.5,0.8l0,0l0,0c0.9,0,1.4-0.1,1.7-0.3c0.1-0.1,0.2-0.2,0.2-0.3
		c0.1-0.4-0.2-0.9-0.8-1.6c-0.7-0.6-1.3-1.1-1.8-1.4c-0.2-0.1-0.3-0.2-0.5-0.2c-0.1,0-0.3-0.1-0.5-0.1c0,0,0,0-0.1,0
		c-0.2,0-0.5,0-0.8,0l0,0c-0.4,0-0.9,0-1.4-0.1c-0.1,0-0.2,0-0.3,0c-1.3-0.1-2.8-0.2-4.5-0.4c-0.4-0.1-0.9-0.1-1.4-0.2
		c-0.1,0-0.3-0.1-0.4-0.1v0.1l0,0v-0.1c-4.3-0.4-8.2-1-11.7-1.8v0.1l0,0v-0.1l-0.2,0.1c-1.5-0.4-2.2-0.5-2.3-0.1c0,0.1,0,0.1,0,0.2
		c0,0.3,0.2,0.7,0.6,1.2l0,0c0.2,0.2,0.5,0.4,0.8,0.6c0.1,0.1,0.2,0.1,0.4,0.2l0,0l0,0l0,0c0.1,0,0.1,0.1,0.2,0.1
		c0.5,0.2,1.1,0.5,1.7,0.7c0.1,0,0.3,0.1,0.5,0.1h0.1h0.1l0,0c1.3,0.3,3.3,0.7,6,1.2c-0.1,0.1-0.1,0.2-0.2,0.3c0,0.1,0,0.3,0,0.4
		c0,0.2,0.1,0.3,0.3,0.5c0,0.9,0.1,1.5-0.1,2.2l-7,24.3l0,0l0,0l0,0l0,0l0,0l0,0l0,0l0,0c-2.2-0.5-4.4-0.9-6.4-1.3
		c-0.6-0.1-1.2-0.2-1.8-0.3l0.8-2.5l3.6-10.8c0.1-0.4,0.3-0.8,0.5-1.4c0.1-0.1,0.1-0.3,0.2-0.5c0.1-0.1,0.1-0.1,0.2-0.2
		c0.2-0.2,0.3-0.5,0.4-0.7c0.2-0.5-0.1-1.1-0.8-1.7l0,0c-0.4-0.4-0.9-0.7-1.3-1l0,0l0,0l0,0c-0.5-0.3-0.9-0.4-1.4-0.6
		c-0.7-0.2-1.2,0.1-1.4,0.7c0,0.1,0,0.2,0,0.3s0,0.2,0.1,0.3c0,0.1,0.1,0.1,0.1,0.2c0.2,0.8,0.1,1.5,0,2l-2.1,7.9l-1.9,7.3l0,0
		c-0.3,0-0.6-0.1-0.9-0.1c-0.1,0-0.2,0-0.3,0c-0.3,0-0.6-0.1-0.9-0.2c-0.1,0-0.3,0-0.4-0.1c-0.3-0.1-0.6-0.1-0.9-0.2
		c-0.2,0-0.3-0.1-0.5-0.1c-0.3-0.1-0.6-0.1-0.9-0.2c-0.2,0-0.4-0.1-0.6-0.2c-0.3-0.1-0.6-0.1-0.9-0.2c-0.3-0.1-0.5-0.1-0.8-0.2
		c-0.3-0.1-0.6-0.2-0.9-0.2c-0.3-0.1-0.7-0.2-1-0.3s-0.5-0.1-0.8-0.2c-0.6-0.2-1.3-0.4-1.9-0.6c-0.5-0.1-0.9-0.1-1.2,0
		c-0.1,0-0.2,0.1-0.2,0.1c-0.1,0.1-0.1,0.2-0.2,0.3c-0.1,0.4,0.3,1,1.2,1.8c0.1,0.1,0.3,0.2,0.5,0.4c1.1,1.1,2,1.6,2.7,1.8
		c0.1,0,0.2,0.1,0.4,0.1c0.1,0,0.2,0,0.3,0c0.5,0.1,1.2,0.1,2.2,0.2l0,0c2.3,0.1,4.5,0.4,6.7,0.7c2.8,0.4,5.4,1,8,1.6l0,0
		c1.3,0.3,2.5,0.5,3.6,0.8h0.1c3.8,0.9,7.1,1.7,9.9,2.5c0.1,0,0.2,0,0.2,0.1c0.5,0.1,0.9,0.3,1.4,0.4l0,0c3.6,1.1,7,2.3,10.3,3.3
		c1,0.3,1.8,0.5,2.4,0.5s0.9-0.1,1-0.4c0-0.1,0-0.2,0-0.3C277,551.8,276.8,551.4,276.5,551z M253.8,544.1L253.8,544.1L253.8,544.1
		L253.8,544.1L253.8,544.1z M258.6,529.7L258.6,529.7L258.6,529.7L258.6,529.7z"/>
	<path class="st11" d="M215.7,498.2c0.1-0.3,0-0.7-0.2-1.1c0-0.1-0.1-0.2-0.2-0.3c-0.7-1.3-1.2-2-1.8-2.4c-0.1,0-0.1-0.1-0.2-0.1
		c-0.3-0.1-0.7-0.2-1.2-0.4c-0.1,0-0.1,0-0.2-0.1c-0.9-0.4-1.9-0.8-3-1.3c-1.5-0.6-3.2-1.4-5-2.2l0,0c-0.3-0.2-0.7-0.5-1.1-0.6l0,0
		l0,0l0,0c-1-0.4-1.9-0.9-2.8-1.3c-0.9-0.5-1.8-0.9-2.7-1.4h-0.1c-0.8-0.4-1.6-0.8-2.3-1.2c-0.5-0.3-1-0.6-1.6-0.8
		c-0.6-0.3-1.2-0.7-1.8-1c-0.1,0-0.1-0.1-0.2-0.1c-0.9-0.6-1.6-0.9-2.1-1.1h-0.1c0,0,0,0-0.1,0s-0.1,0-0.2,0c-0.1,0-0.2,0-0.3,0.1
		c-0.2,0.2,0,0.8,0.1,1.6c0.4,0.5,1.1,1.3,2.1,2l-0.1,0.1l-0.6,0.9c-0.2,0.4-0.5,0.7-0.7,1c-1.8,2.3-4.2,4.2-7.3,5.8
		c-1.2,0.4-2.1,0.8-2.4,1.4c-0.2,0.4-0.1,0.9,0.1,1.9c0.3,0.9,0.5,1.5,0.7,1.7s0.9,0.2,1.6,0.4c2.6,0.4,5.7,1.6,9.2,3.4
		c1.1,0.5,2.2,1,3.2,1.6c-0.2,0.1-0.4,0.3-0.6,0.4c-0.1,0.1-0.2,0.1-0.3,0.2l0,0c-0.5,0.3-1.1,0.5-1.7,0.7c-0.6,0.2-1.2,0.4-1.7,0.5
		c-3.9,1.1-7.4,1.8-10.5,2.3c-1.7,0.2-3.8,0.3-6.4,0.3c-0.6,0-1.3,0-2,0c-2,0-4.3-0.1-6.8-0.3c-0.2,0-0.4,0-0.6-0.1
		c-0.1,0-0.2,0-0.3,0c-0.3,0-0.4,0.1-0.5,0.1c-0.1,0.2-0.1,0.2,0,0.3c0,0,0.1,0.1,0.2,0.1c1.8,0.6,3.5,1.2,5.1,1.6
		c1.5,0.4,2.9,0.7,4.3,0.8c3.4,0.4,6.8,0.3,10-0.1c1.3-0.2,2.7-0.5,4-0.8c0.9-0.2,1.8-0.4,2.7-0.6V510l0,0v0.1
		c1-0.3,2.1-0.6,3.1-0.9c0.2-0.1,0.4-0.2,0.6-0.2c0.4-0.1,0.8-0.2,1.2-0.3c-5.4,8.2-8.8,13-10.3,14.7c-0.5,0.7-1,1.1-1.3,1.4
		c-0.4,0.3-0.7,0.3-0.9,0.2c-0.4-0.3-1.1-0.9-2.1-1.7c-0.3-0.3-0.7-0.7-1.1-1l0,0c-0.4-0.4-0.6-0.6-0.9-0.7
		c-0.1-0.1-0.2-0.1-0.3-0.1h-0.1c-0.1,0-0.1,0.1-0.2,0.2c-0.1,0.2-0.1,0.5,0.2,1.1c0,0.1,0.1,0.2,0.1,0.3c0.2,0.8,0.3,1.5,0.5,2.2
		c0.4,1.7,0.6,3.1,0.8,4.5c-0.1,0.6,0.2,1.2,0.6,1.4c0.2,0.1,0.4,0.2,0.6,0.2c0.1,0,0.2,0,0.4,0c0.7,0,1.6-0.2,2.8-0.7
		s2.7-2.3,4.4-4.9c1.2-1.8,2.3-3.5,3.4-5.2c1.3-1.9,2.5-3.9,3.7-5.8c1.3-2.1,2.9-4.5,4.7-7.4c1.6,0.9,3.2,1.9,4.8,2.9
		c1.3,0.8,3,2.1,5.2,3.8c0.7,0.4,1.3,0.7,1.7,0.8c0,0,0,0,0.1,0c0.2,0,0.3,0,0.4,0c0,0,0,0,0.1,0c0.5,0.1,1,0.1,1.2-0.1
		c0.1,0,0.2-0.1,0.2-0.2c0.3-0.5,0.3-1.2-0.1-2.1c-0.2-0.4-0.4-0.8-0.7-1.1c-0.5-0.7-1-1.2-1.3-1.4c-0.3-0.2-0.9-0.5-1.5-0.9
		c-0.5-0.3-1.1-0.6-1.8-0.9c-0.9-0.4-1.9-1-3-1.5s-2.2-1.1-3.3-1.6c-0.1,0-0.2-0.1-0.3-0.1c0.8-1.2,1.6-2.4,2.4-3.7
		c0.3-0.4,0.5-0.7,0.7-1.1c0.7-1,1.3-1.7,1.7-2.2c0.3-0.3,0.6-0.5,0.8-0.7c0.1-0.1,0.1-0.1,0.2-0.2c0.5-0.7,0.5-1.4,0-1.9
		c1,0.5,1.8,0.9,2.6,1.2c1.9,0.9,3.2,1.5,4.1,1.7c0.6,0.2,1.1,0.4,1.5,0.4c0.2,0,0.3,0,0.4,0c0.2,0,0.3-0.1,0.3-0.2
		C215.7,498.3,215.7,498.3,215.7,498.2z M197.7,503.3c-4-1.9-8.1-3.8-12.4-5.7c-0.2-0.2-0.4-0.4-0.2-0.8s1.6-1.4,4.2-3.3
		c2.3-1.7,3.7-2.8,4.1-3.5c0.2-0.4,0.1-0.9-0.3-1.9c-0.1-0.1-0.1-0.2-0.2-0.4l0,0c0.2,0.1,0.3,0.2,0.5,0.3c1.8,1,4.3,2.4,7.5,4.1
		l0,0l0,0l0,0c0.3,0.1,0.6,0.3,0.9,0.5c0.3,0.1,0.6,0.3,0.9,0.5c-0.2,0.5-0.5,1.2-0.8,2.1C201.1,497.6,199.6,500.3,197.7,503.3z"/>
	<path class="st11" d="M111.5,467.2c0.3,0.1,0.5,0.3,0.8,0.3c1.7,0.7,3.3,1.3,4.6,1.8c1.1,0.4,2,0.7,2.9,1c0.3,0.1,0.6,0.2,0.9,0.3
		l0,0c0.2,0.1,0.4,0.1,0.5,0.1l0,0c0.1,0,0.2,0,0.2-0.1c0.1-0.1,0.2-0.2,0.2-0.2c0.1-0.2,0.1-0.3,0-0.5c0,0-0.1-0.1-0.2-0.1
		s-0.1-0.1-0.2-0.1c-0.2-0.1-0.4-0.3-0.7-0.5c-0.3-0.1-0.7-0.3-1.1-0.6c-0.7-0.4-1.4-0.8-2.1-1.2c-0.2-0.1-0.4-0.2-0.6-0.4
		c-0.6-0.3-1.1-0.7-1.7-1l0,0l7.5-6.2c0.1,0.1,0.3,0.2,0.4,0.3c0,0,0,0,0.1,0.1l0,0c0.1,0.1,0.2,0.1,0.2,0.2l0.1,0.1l0.1,0.1
		c0.1,0.1,0.1,0.1,0.2,0.2c0.6,0.4,1.1,1.1,1.9,1.7c0.7,0.5,1.2,0.8,1.5,0.9l0,0c0.4,0,0.5-0.1,0.6-0.2s0.2-0.2,0.1-0.5
		c0-0.1,0-0.1,0-0.2c0-0.3-0.2-0.7-0.4-1.1l0,0c-0.2-0.5-0.4-0.8-0.6-1.1c-0.3-0.5-0.6-0.8-0.8-1c-0.1-0.1-0.2-0.2-0.5-0.5
		c-0.1-0.1-0.3-0.3-0.5-0.5c-0.1-0.1-0.2-0.2-0.4-0.2l3.1-2.6c0.1-0.1,0.2-0.2,0.4-0.3c0.4-0.3,0.7-0.6,1.2-0.9
		c0.2-0.1,0.4-0.2,0.6-0.3c0.1-0.1,0.3-0.1,0.4-0.3c0.2-0.1,0.3-0.4,0.3-0.7l0,0c0-0.3,0-0.7-0.1-1.2c-0.1-0.1-0.1-0.3-0.2-0.4
		c0.4,0.4,0.9,0.8,1.4,1.2c1.9,1.5,3.1,2.5,3.8,2.8c0.2,0.2,0.5,0.3,0.7,0.3s0.3,0,0.4-0.1c0.1-0.1,0.1-0.1,0.2-0.2c0,0,0,0,0-0.1
		s0.1-0.2,0.1-0.3c0,0,0,0,0-0.1v-0.1c0-0.1,0-0.3,0-0.5c0-0.1,0-0.2-0.1-0.3c-0.1-0.3-0.1-0.5-0.2-0.7c-0.3-0.8-0.5-1.4-0.9-1.8
		c0,0,0,0-0.1,0c-0.1-0.1-0.2-0.1-0.4-0.2c-0.1,0-0.1-0.1-0.2-0.1l0,0c-0.9-0.6-2.1-1.3-3.4-2.4l-0.1,0.1l0,0l0.1-0.1h-0.2
		c-1.9-1.5-3.7-2.9-5.2-4.3c-0.3-0.3-0.5-0.5-0.7-0.6c-0.1-0.1-0.2-0.1-0.3-0.1c-0.1,0-0.1,0-0.2,0.1s-0.2,0.2-0.2,0.5
		c0,0.2-0.1,0.5-0.1,0.9c0.1,0.5,0.5,1.1,1.2,2c0.2,0.2,0.4,0.5,0.7,0.8c0.1,0.1,0.2,0.3,0.4,0.4l0.1,0.1c0.1,0.1,0.2,0.2,0.4,0.4
		l0,0l-0.1,0.1c0,0,0,0-0.1,0.1s-0.2,0.4-0.2,0.7c-0.1,0.4-0.3,0.7-0.4,1c-0.2,0.3-0.3,0.5-0.5,0.7l-4.7,4.2l0,0
		c-0.5-0.4-1-0.7-1.4-1.1c-0.7-0.5-1.3-1-1.9-1.6c-0.1-0.1-0.2-0.2-0.3-0.3c-0.8-0.6-1.3-0.9-1.6-0.6c-0.3,0.3-0.3,0.8,0.1,1.6
		c0.3,0.5,0.6,1.1,1.3,1.9c0.1,0.1,0.2,0.2,0.3,0.4c0,0,0.1,0.1,0.2,0.1c0.4,0.4,0.9,0.8,1.5,1.4l0.1,0.1l-7.5,6.7
		c-2.4-1.5-4.5-2.8-6-3.9c-0.8-0.4-1.5-0.9-2.1-1.5c-0.3-0.3-0.5-0.3-0.6-0.2c-0.3,0.3-0.6,1.2-0.6,2.5c0.1,1.6,0.3,2.7,0.9,3.3
		c0.2,0.2,0.5,0.3,1,0.5c1.3,0.4,2.6,0.9,3.8,1.2C109.7,466.6,110.6,466.9,111.5,467.2z M156.7,474.6c-0.2-1.1-0.6-1.9-1-2.5
		c-0.1-0.1-0.4-0.2-0.8-0.4c-1.1-0.6-2.3-1.5-3.8-2.6L151,469c-0.2-0.1-0.4-0.3-0.5-0.4c-1.7-1.4-3.4-2.8-4.8-4.1l0,0
		c-0.5-0.6-0.8-0.8-1-0.8c-0.1,0-0.1,0-0.2,0.1c-0.1,0.1-0.3,0.4-0.3,0.8c0,0.2,0,0.3,0,0.5c0,0.1,0.1,0.2,0.2,0.4
		c0.3,0.6,0.8,1.4,1.7,2.4c0,0,0,0,0.1,0.1l0.1,0.1l0,0c0.2,0.2,0.5,0.5,0.9,0.9c-0.1,0-0.1,0.1-0.2,0.1c-0.1,0-0.1,0.2-0.2,0.3
		c0,0.1-0.1,0.3-0.1,0.5c-0.1,0.3-0.2,0.5-0.3,0.7c-0.2,0.4-0.4,0.7-0.7,0.9l-2.6,2.3l-3.6,3.1c-1.1-0.9-2.3-1.9-3.4-2.8
		c-0.7-0.8-1.2-1.2-1.6-1.3h-0.1c-0.1,0-0.3,0-0.4,0.1c-0.1,0.1-0.2,0.2-0.2,0.4c-0.1,0.4,0,0.8,0.3,1.4c0.1,0.2,0.2,0.3,0.3,0.5
		c0.3,0.5,0.6,1,1.1,1.5c0,0,0,0,0.1,0.1s0.2,0.2,0.3,0.4c0.1,0.1,0.1,0.1,0.2,0.2c0.1,0.1,0.2,0.2,0.4,0.4c0,0,0.1,0.1,0.2,0.1
		c0.2,0.2,0.5,0.5,0.8,0.7l0.1,0.1l-3.1,2.7l-5.6,4.9l0,0l0,0l0,0l0,0c-0.5-0.5-1.1-1-1.8-1.6c-0.1-0.1-0.2-0.1-0.2-0.2
		c-0.4-0.4-0.8-0.8-1.3-1.2c-1.1-0.9-2.1-1.8-2.9-2.6c-0.2-0.2-0.4-0.4-0.5-0.6c-0.2-0.2-0.4-0.4-0.6-0.3c-0.1,0-0.1,0-0.2,0.1l0,0
		c-0.2,0.2-0.2,0.6-0.1,1.2c0,0.3,0,0.6,0.1,0.9c0,0.3,0.1,0.6,0.1,0.8c0.1,0.8,0.3,1.4,0.6,1.7c0,0,0,0,0.1,0.1
		c0.2,0.1,0.5,0.3,1,0.5c1,0.6,2.1,1.5,3.4,2.7c0.3,0.3,0.7,0.6,1.1,1l0,0c1.7,1.5,3,2.8,4,3.9c0.3,0.3,0.5,0.6,0.8,0.9
		c0.7,0.8,1.3,1.4,1.9,2.1c0.5,0.7,1,1.3,1.4,1.8c0.1,0.2,0.3,0.3,0.4,0.5c0.2,0.2,0.3,0.3,0.5,0.4c0.4,0.3,0.8,0.3,1.1,0.1
		c0.1-0.1,0.2-0.2,0.2-0.4c0.2-0.4,0.2-1.1,0-2.1c-0.1-0.2-0.1-0.3-0.2-0.5c-0.4-1.1-0.6-1.9-0.8-2.1c-0.1-0.1-0.9-0.6-2.3-1.7
		c-0.6-0.6-1.2-1.1-1.7-1.6c-0.6-0.6-1.2-1.2-1.7-1.6c0-0.1-0.1-0.1-0.2-0.2l9.1-7.2l0,0c0.2,0.2,0.5,0.4,0.7,0.6
		c0.1,0.1,0.2,0.2,0.3,0.3l0.1,0.1c0.1,0.1,0.2,0.1,0.2,0.2l0.1,0.1c0.1,0.1,0.2,0.2,0.2,0.2c0.4,0.3,0.8,0.6,1.2,1
		c0.3,0.3,0.6,0.6,0.9,0.9c0.3,0.2,0.6,0.4,0.8,0.6c0.5,0.3,0.9,0.4,1.2,0.4c0.2,0,0.3-0.1,0.4-0.2c0.2-0.1,0.2-0.6-0.1-1.4
		c-0.1-0.2-0.1-0.4-0.2-0.7c-0.7-1.2-1.2-2-1.4-2.3c0,0-0.1-0.1-0.3-0.2c-0.1-0.1-0.2-0.1-0.2-0.2c-0.2-0.1-0.4-0.3-0.7-0.6
		c-0.3-0.2-0.6-0.5-0.9-0.7l4.9-3.9c0.4-0.4,0.9-0.6,1.7-1.1c0.4-0.2,0.7-0.2,0.9-0.4c0.4-0.4,0.5-1,0.2-1.9l0,0
		c0-0.2-0.1-0.3-0.2-0.5l0,0l0,0v-0.1l0,0v0.1l0,0c0.2,0.2,0.5,0.4,0.7,0.7l0.1,0.1c0.3,0.2,0.5,0.4,0.8,0.6
		c1.7,1.4,2.9,2.4,3.7,2.9c0.1,0.1,0.2,0.1,0.3,0.2c0.6,0.4,1,0.5,1.2,0.3C156.9,476,157,475.4,156.7,474.6z M124.8,476.5
		c1.7-0.8,4.1-2.3,7-4.4c0.2-0.1,0.4-0.3,0.6-0.4c0.5-0.3,0.9-0.7,1.4-1.1c2.7-2,5.8-4.5,9.2-7.5l0,0c1.2-1,2.4-1.9,3.8-2.7
		c0.2-0.1,0.4-0.2,0.6-0.4c0.2-0.2,0.4-0.3,0.7-0.5l0,0c0.4-0.4,0.7-0.9,0.5-1.9c-0.1-0.1,0-0.2-0.1-0.3c-0.2-1.5-0.5-2.5-1.1-3.1
		c-0.2-0.2-0.3-0.3-0.5-0.4c-0.4-0.3-0.8-0.4-1-0.2c-0.2,0.2-0.5,0.8-0.8,1.4c-0.2,0.3-0.3,0.6-0.5,0.9c-0.4,0.7-0.9,1.4-1.5,2.2
		c-1.6,1.6-3.3,3-5.1,4.6l-3.5,3c-0.8,0.7-1.6,1.3-2.3,1.9c0.1-0.1,0.1-0.3,0.1-0.4c0.2-0.4,0.2-1.1,0.1-2c0-0.4-0.1-0.8-0.1-1.2
		c-0.3-1-0.7-2-1-3c-0.2-0.4-0.4-0.7-0.5-0.8l0,0l0,0l0.2-0.2l0,0c0,0,0,0-0.1-0.1l-0.1-0.1c0,0,0,0-0.1,0s-0.1,0-0.2,0.1l-0.1,0.1
		c-0.1,0.1-0.1,0.2-0.1,0.4c0,0.1,0,0.2,0,0.3l0,0l0,0l0,0l0,0c0,0.1,0,0.2,0,0.4c0,0.2-0.1,0.5-0.1,0.8c-0.1,0.8-0.4,1.8-0.8,3.1
		c-0.3,0.9-0.5,1.6-0.5,2.2c-0.1,0.5-0.1,0.9-0.1,1.2c0,0.4,0.1,0.7,0.1,0.8c0.2,0.3,0.5,0.4,0.9,0.3c-3,2.2-6,3.9-8.9,5.1
		c-2.5,1-4.9,1.6-7.1,2c-0.1,0-0.2,0-0.3,0c-0.3,0-0.5,0.1-0.8,0.1s-0.7,0.1-1,0.1l0,0l0,0l0,0c-0.1,0-0.2,0-0.3,0
		c-0.8,0.1-1.6,0.1-2.4,0.1l0,0c-0.5,0-1,0-1.6-0.1l-1.4-0.1l0,0c-0.1,0.1-0.1,0.3,0.2,0.7c0.4,0.2,0.9,0.4,1.7,0.6
		c0.5,0.2,1.1,0.3,1.7,0.5c0.2,0,0.5,0.1,0.7,0.1c0.6,0.1,1.2,0.2,1.9,0.4l0,0C116,479.4,120.1,478.6,124.8,476.5L124.8,476.5z"/>
	<path class="st11" d="M108.1,412.1c-0.1-0.3-0.4-0.6-0.9-1.3c-0.2-0.3-0.4-0.6-0.6-0.9c0-0.1-0.1-0.1-0.1-0.2
		c-1.2-1.6-2.5-3.8-4.1-6.3c-0.7-1.3-1.5-2.5-2.2-3.7c-1.7-3-3.2-5.8-4.7-8.5l0,0l-0.6-1.4c-0.2-0.2-0.3-0.4-0.4-0.5
		c-0.2-0.3-0.3-0.4-0.4-0.3c-0.3,0.1-0.5,0.4-0.7,0.9c-0.1,0.2-0.1,0.4-0.2,0.7c-0.1,0.8,0.3,2,1,3.7c0.3,0.7,0.7,1.7,1.4,3l0,0l0,0
		l0,0l0,0l0,0l0,0l0,0l0,0l0,0l0,0c-0.1,0.1-0.2,0.2-0.2,0.4c-0.1,0.2-0.1,0.3-0.2,0.4c0,0.1-0.1,0.1-0.1,0.2
		c-0.1,0.1-0.2,0.2-0.3,0.3l0,0l0,0c-0.1,0.1-0.2,0.2-0.3,0.3c-0.1,0-0.1,0.1-0.2,0.2l0,0c-0.6,0.3-1.3,0.6-1.9,0.9
		c-0.4,0.2-0.8,0.4-1.2,0.6l-2.2,0.9c-0.7,0.3-1.4,0.6-2,0.8c-0.1-0.1-0.1-0.2-0.2-0.3l0,0c-0.5-1-1-1.9-1.5-2.8s-1-1.8-1.4-2.6
		c-0.3-0.5-0.5-1-0.8-1.5l0,0c-0.1-0.1-0.2-0.3-0.2-0.4c-0.1-0.2-0.2-0.4-0.3-0.6c0-0.1-0.1-0.2-0.1-0.3l0,0l-0.1-0.1
		c-0.1-0.3-0.3-0.5-0.4-0.8c0-0.1,0-0.2,0-0.4c0-0.6-0.1-1.1-0.3-1.7c-0.1-0.2-0.1-0.4-0.2-0.6c-0.2-0.5-0.7-0.6-1.2-0.4
		c-0.1,0.1-0.3,0.3-0.4,0.8c-0.9,1.4-2,2.5-3.3,3.4c-0.2,0.1-0.4,0.3-0.6,0.4c-1.3,0.8-3.3,2.1-6.2,3.6l-6.2,3.6
		c-0.5,0.2-1,0.6-1.4,1.1c-0.1,0.2-0.3,0.3-0.3,0.5c-0.2,0.2-0.3,0.4-0.3,0.5c-0.1,0.2-0.1,0.5,0,0.7l0,0c0.1,0.3,0.5,0.4,0.9,0.4
		c0.1,0,0.2,0,0.4,0c0.4,0,0.8-0.2,1.3-0.4c0,0,0,0,0.1,0c0,0,0.1,0,0.1-0.1l0,0l0,0l0,0l0,0l0,0l0,0l0,0l0,0l0,0l0,0
		c0,0.1,0.1,0.2,0.1,0.3c0,0.1,0.1,0.3,0.2,0.4c0.2,0.6,0.6,1.3,1,2.1c0.4,0.8,1,1.8,1.6,2.8l0,0l0.2,0.4l0,0l0,0l0,0l6.1,11.7
		c0.3,0.5,0.5,1,0.8,1.4c0,0.1,0.1,0.2,0.1,0.3c0.1,0.2,0.2,0.4,0.3,0.5c0.6,1.2,1.3,2.6,1.9,4c-0.3,0.4-0.5,0.7-0.7,1l-0.1,0.1
		c-0.1,0.1-0.1,0.1-0.1,0.2c-0.9,1.1-1.6,1.9-2.2,2.5c-0.2,0.3-0.3,0.6-0.3,0.9c0,0.1,0,0.2,0.1,0.4c0.1,0.2,0.2,0.4,0.5,0.5
		c0.1,0.1,0.3,0.2,0.4,0.3c0.5,0.2,1.1,0.3,1.9,0.5c0.3,0,0.6,0,0.8,0c2,0,4.4-0.4,7.1-1.3c0,0,3.4-1,9.8-3c0.9-0.3,1.8-0.4,2.6-0.5
		c0.3,0,0.6,0,0.8,0c0.1,0,0.2,0,0.4,0c0.1,0,0.2,0,0.4,0c0.2,0,0.5-0.1,0.7-0.2c0.4-0.2,0.7-0.8,1.1-2c0.3-2.1,0.5-3.4,0.4-3.8
		c-0.1-0.2-0.2-0.4-0.3-0.6c-0.2-0.4-0.5-0.8-0.9-1.3c-0.3-0.6-0.6-1.1-1-1.6c-0.3-0.4-0.5-0.7-0.8-1.1c-0.8-1.2-1.6-2.4-2.3-3.7
		l-0.3-0.6h-0.1l0,0h0.1c-0.4-0.8-0.9-1.6-1.3-2.3c0.2-0.1,0.5-0.2,0.7-0.3c0.5-0.2,1-0.4,1.5-0.5c2.5-0.9,4.1-1.4,4.9-1.6
		c0.6-0.1,0.9-0.1,1-0.1c0.4-0.2,0.6-0.5,0.7-0.9c0.1-0.3,0.1-0.6,0.1-0.9l0,0c2.2,3.8,3.7,6.2,4.5,7.2c0.1,0.1,0.2,0.3,0.3,0.4
		c0.1,0.2,0.3,0.4,0.4,0.5l0,0c0.3,0.5,0.7,0.5,0.9,0.4c0.3-0.1,0.6-0.4,0.6-1l0,0c0.1-0.2,0-0.3,0.1-0.5
		C108.6,413.9,108.4,412.9,108.1,412.1z M97.1,407.4c-0.7,0.3-1.6,0.7-2.6,1.1c-0.7,0.3-1.5,0.7-2.5,1.1c-0.3,0.1-0.7,0.3-1,0.4
		c-1-1.7-1.9-3.4-2.8-5c1.4-0.5,3.1-1.2,4.9-1.9c0.4-0.2,1-0.3,1.5-0.5c0.2-0.1,0.5-0.1,0.7-0.2c0.3-0.1,0.6-0.1,0.8-0.2
		c0.4-0.2,0.7-0.8,0.9-1.8c0-0.2,0-0.3,0.1-0.5l0,0l0,0l0,0l0,0l0,0l0,0l0,0l0,0l0,0c0.3,0.6,0.7,1.2,1,1.9c0.5,1,1.1,2,1.7,3.1
		c0.1,0.1,0.2,0.3,0.2,0.4c0.1,0.1,0.1,0.2,0.2,0.4c-0.3,0.1-0.6,0.3-1.1,0.6C98.6,406.8,98,407,97.1,407.4z M80.2,395.3L80.2,395.3
		L80.2,395.3L80.2,395.3L80.2,395.3z M92.1,415.9L92.1,415.9c0.4,0.8,0.8,1.6,1.2,2.3c0.9,1.7,1.5,3.2,2.1,4.4
		c0.3,0.8,0.5,1.5,0.5,1.8c0,0.1,0,0.1-0.1,0.2c-0.1,0.2-0.4,0.5-1.1,0.8c-4.5,1.9-9.3,3.5-14.1,4.8c-0.8,0.2-1.4,0.3-1.9,0.4
		c0.1-0.3,0.2-0.5,0.3-0.9l0,0c0.1-1,0-1.9-0.2-2.5c0-0.1-0.1-0.2-0.1-0.3l0,0c-0.3-0.7-0.9-1.9-1.8-3.6c-0.1-0.2-0.2-0.4-0.3-0.6
		l0,0c0-0.1-0.1-0.2-0.2-0.2c-0.3-0.6-0.7-1.2-1-1.8c-0.6-0.9-1.1-1.9-1.7-2.8c-0.4-0.7-0.9-1.4-1.3-2.2c-0.7-1.2-1.3-2.3-2-3.5
		c-0.5-0.8-0.9-1.7-1.4-2.6l0,0c-0.1-0.2-0.2-0.4-0.3-0.6c-0.9-1.8-1.9-3.7-2.9-5.6c0.7-0.4,1.6-0.8,2.5-1.3
		c0.1-0.1,0.3-0.2,0.4-0.2c0.2-0.1,0.5-0.2,0.7-0.4c0.4-0.2,0.8-0.4,1.2-0.7c0.1-0.1,0.3-0.2,0.4-0.2c0.4-0.2,0.7-0.4,1.1-0.6
		c0.2-0.1,0.3-0.2,0.5-0.3c0.5-0.3,1-0.6,1.6-0.9l0,0c1-0.6,1.9-1.1,3-1.9c0.3-0.1,0.5-0.3,0.8-0.4s0.5-0.3,0.7-0.4
		c0.4-0.2,0.8-0.4,1.2-0.6l0.3,0.6l0,0c0.4,0.5,0.8,1.3,1.3,2.1c0,0.1,0.1,0.1,0.1,0.2c0.2,0.3,0.4,0.7,0.7,1.1c0.6,1,1.3,2.2,2,3.4
		l0,0c0,0.1,0.1,0.1,0.1,0.2c-0.5,0.2-1,0.3-1.5,0.4h-0.1l0,0h0.1c-0.3,0.1-0.7,0.2-1,0.2c-0.5,0.1-1,0.2-1.5,0.2
		c-0.7,0.1-1.4,0.1-2,0.1c-1.9,0.1-3.6-0.1-5-0.5l-0.5-0.2l0,0l0,0c-0.1,0.1-0.1,0.4,0,0.6c0.3,0.5,1.2,1.1,2.6,1.9l0,0
		c0.1,0.1,0.3,0.1,0.4,0.1s0.1,0,0.2,0.1c0.1,0,0.2,0.1,0.3,0.2h0.1l0,0h-0.1c1.6,0.5,3.5,0.6,5.5,0.5c1-0.1,2.4-0.5,4.1-1
		c0.9,1.6,1.9,3.3,3,5.1c-1.9,0.8-3.3,1.4-4.3,1.7c-1.6,0.7-2.7,1.6-3.2,2.8c-0.3,0.7-0.4,1.5-0.3,2.4c0,0.8,0,1.5,0.2,2.2
		c0.1,0.3,0.2,0.6,0.3,1c0.1,0.3,0.2,0.6,0.3,0.9c0.7,1.5,1.4,2.6,2.1,3.2c0.4,0.6,0.9,0.7,1.4,0.5c0.3-0.1,0.5-0.4,0.7-0.7
		c0.1-0.1,0.1-0.3,0.2-0.4c0-0.2,0.1-0.3,0.1-0.5c0-0.5,0-0.8-0.1-0.9c-0.2-0.5-0.6-1.1-1.2-2.1c-0.5-0.7-0.7-1.2-0.8-1.5
		c-0.2-0.5-0.3-0.9-0.3-1.3V418c0-0.1,0-0.2,0-0.2c0.1-1.1,0.9-2,2.3-2.6c0.7-0.3,2.1-0.8,4.1-1.6c0.1,0.2,0.2,0.4,0.4,0.6v0.1l0,0
		C91.5,414.9,91.8,415.3,92.1,415.9L92.1,415.9L92.1,415.9z"/>
	<polygon class="st12" points="292.9,110.7 371.1,246.2 449.3,381.6 292.9,381.6 136.6,381.6 214.8,246.2 	"/>
	<g>
		<path class="st8" d="M228.8,399.3c-0.4,0-0.8,0.1-1.2,0.3c-0.4,0.2-0.8,0.4-1.1,0.6c-0.6,0.4-1,0.8-1.2,1.3s-0.5,1-0.7,1.7
			c-0.7,2.3-1.7,5.9-3.1,10.9c-1.4,5-2.9,10.2-4.4,15.5h-3.7l-6.9-23.6l-6.3,23.6h-3.7c-2.1-7.2-3.6-12.8-4.7-16.7
			c-1.1-3.9-2-7.2-2.8-9.8c-0.2-0.8-0.5-1.4-0.8-1.8s-0.7-0.7-1.1-1.1c-0.3-0.3-0.7-0.5-1.1-0.6c-0.4-0.1-0.8-0.2-1.3-0.3v-1.7h14
			v1.7c-0.8,0.1-1.4,0.2-1.9,0.3s-0.7,0.2-1,0.3c-0.2,0.1-0.4,0.2-0.4,0.4c0,0.1-0.1,0.3-0.1,0.4c0,0.2,0,0.4,0.1,0.6
			c0,0.2,0.1,0.4,0.1,0.7c0.3,1.2,0.9,3.4,1.8,6.6c0.9,3.2,2,7.3,3.3,12.1l6-23.1h3.9l6.9,23.8c1-3.8,1.8-7,2.5-9.4
			c0.6-2.4,1.1-4.5,1.5-6.2c0.2-1.1,0.4-1.9,0.6-2.7s0.2-1.3,0.2-1.9c0-0.3-0.1-0.6-0.4-0.8s-0.6-0.4-1-0.6
			c-0.3-0.1-0.8-0.2-1.3-0.3c-0.5-0.1-1-0.1-1.4-0.2v-1.8h10.6L228.8,399.3L228.8,399.3z"/>
		<path class="st8" d="M240.9,429.2h-11.7v-1.6c0.3,0,0.6-0.1,0.9-0.1c0.3,0,0.6-0.1,0.8-0.2c0.4-0.2,0.7-0.4,0.8-0.8
			c0.2-0.3,0.2-0.8,0.2-1.3v-13c0-0.5-0.1-1-0.3-1.4s-0.4-0.7-0.7-1c-0.2-0.2-0.6-0.3-1-0.5c-0.5-0.2-0.9-0.3-1.2-0.3v-1.6l9.1-0.6
			l0.3,0.3v17.7c0,0.5,0.1,1,0.3,1.3c0.2,0.4,0.5,0.6,0.8,0.8c0.2,0.1,0.5,0.3,0.8,0.4s0.6,0.2,0.9,0.2L240.9,429.2L240.9,429.2z
			 M238.2,398.7c0,1.1-0.4,2.1-1.1,2.9s-1.6,1.2-2.6,1.2s-1.9-0.4-2.6-1.2s-1.1-1.8-1.1-2.9s0.4-2.1,1.1-2.9s1.6-1.2,2.6-1.2
			s1.9,0.4,2.6,1.2S238.2,397.6,238.2,398.7z"/>
		<path class="st8" d="M267.1,429.2H256v-1.6c0.2,0,0.5-0.1,0.9-0.1c0.3,0,0.6-0.1,0.8-0.2c0.3-0.2,0.4-0.4,0.6-0.7
			c0.1-0.3,0.2-0.8,0.2-1.4v-10.5c0-1.5-0.2-2.7-0.7-3.4c-0.5-0.8-1.1-1.2-2.1-1.2c-0.5,0-1,0.1-1.4,0.3s-0.8,0.4-1.3,0.8
			c-0.4,0.3-0.6,0.6-0.9,0.9c-0.2,0.3-0.4,0.6-0.5,0.8v12c0,0.5,0.1,1,0.2,1.3c0.1,0.4,0.3,0.6,0.6,0.8c0.2,0.1,0.4,0.3,0.7,0.4
			s0.6,0.2,0.9,0.2v1.6h-11.3v-1.6c0.3,0,0.6-0.1,0.9-0.1c0.3-0.1,0.6-0.1,0.8-0.2c0.4-0.2,0.7-0.4,0.8-0.8s0.2-0.8,0.2-1.3v-13
			c0-0.5-0.1-0.9-0.3-1.4s-0.5-0.8-0.8-1.1c-0.2-0.2-0.5-0.3-0.8-0.4s-0.7-0.2-1.1-0.2v-1.6l8.8-0.6l0.3,0.3v3.2h0.1
			c0.3-0.4,0.8-0.8,1.3-1.3s1-0.9,1.4-1.3c0.5-0.4,1.1-0.7,1.8-0.9c0.7-0.2,1.5-0.4,2.4-0.4c2,0,3.5,0.7,4.5,2.1s1.5,3.2,1.5,5.5
			V425c0,0.6,0.1,1,0.2,1.3s0.4,0.6,0.8,0.8c0.2,0.1,0.4,0.2,0.7,0.3c0.3,0.1,0.6,0.2,1,0.2L267.1,429.2L267.1,429.2z"/>
		<path class="st8" d="M289.6,409.5h-4.1c0.5,0.7,0.8,1.3,1.1,2.1c0.2,0.7,0.4,1.5,0.4,2.3c0,1-0.2,2-0.7,2.9s-1.1,1.6-1.8,2.2
			c-0.8,0.6-1.6,1-2.7,1.4c-1,0.3-2.1,0.5-3.3,0.5h-3c-0.1,0.1-0.3,0.3-0.5,0.6c-0.2,0.3-0.3,0.6-0.3,0.8c0,0.7,0.2,1.1,0.6,1.4
			s1.2,0.4,2.4,0.4c1.1,0,2.3,0.1,3.4,0.2s2,0.1,2.5,0.1c0.7,0,1.4,0.2,2.1,0.5s1.3,0.7,1.8,1.2c0.6,0.5,1,1.2,1.4,2
			s0.6,1.7,0.6,2.8c0,1.1-0.2,2.2-0.7,3.2s-1.1,1.9-2.1,2.6c-1,0.8-2.1,1.3-3.5,1.8c-1.4,0.4-3.1,0.6-5.1,0.6
			c-3.3,0-5.7-0.5-7.4-1.4s-2.5-2.4-2.5-4.3c0-1.2,0.5-2.1,1.4-2.9s2.3-1.2,4.3-1.3v-0.3c-1.1-0.5-2-1.1-2.7-1.8
			c-0.6-0.8-1-1.7-1-2.7c0-0.6,0.1-1.2,0.4-1.6s0.6-0.8,1-1.1c0.3-0.3,0.8-0.5,1.3-0.7s0.9-0.4,1.2-0.5v-0.2
			c-1.7-0.7-2.9-1.7-3.7-2.7c-0.8-1.1-1.2-2.4-1.2-3.9c0-2.2,0.8-3.9,2.5-5.3c1.7-1.3,3.8-2,6.4-2c0.8,0,1.7,0.1,2.4,0.3
			c0.8,0.2,1.4,0.3,1.8,0.5h7.2v2.3H289.6z M284,432.5c0-0.5-0.1-1-0.4-1.5c-0.2-0.5-0.8-0.9-1.6-1.2c-0.4-0.1-1.2-0.1-2.2-0.2
			c-1,0-2.4,0-4.2,0c-0.4,0.4-0.8,1-1.1,1.6c-0.3,0.6-0.4,1.3-0.4,2.2c0,0.4,0.1,0.8,0.3,1.2c0.2,0.4,0.4,0.9,0.8,1.3s0.9,0.8,1.4,1
			s1.3,0.4,2.4,0.4c1.6,0,2.8-0.4,3.6-1.1C283.6,435.4,284,434.2,284,432.5z M280.9,413.8c0-1.7-0.2-3.1-0.7-4.1s-1.2-1.5-2.1-1.5
			c-0.5,0-0.9,0.1-1.3,0.4s-0.7,0.7-0.9,1.2c-0.2,0.5-0.4,1.1-0.4,1.8c-0.1,0.7-0.1,1.4-0.1,2.1c0,1.6,0.2,3,0.7,4s1.1,1.6,2,1.6
			s1.6-0.5,2.1-1.4S280.9,415.5,280.9,413.8z"/>
		<path class="st8" d="M314.4,430c-1.9,0-3.7-0.4-5.4-1.1c-1.7-0.8-3.1-1.8-4.4-3.3c-1.2-1.4-2.2-3.1-2.9-5.2
			c-0.7-2.1-1.1-4.3-1.1-6.8s0.4-4.7,1.1-6.8c0.7-2.1,1.7-3.9,3-5.4s2.8-2.7,4.5-3.5s3.7-1.2,5.7-1.2c1.5,0,2.8,0.2,4,0.6
			s2.2,0.9,3,1.5l1.1-1.2h1.6l0.2,11.6h-1.6c-0.9-3.5-2-6.1-3.3-7.8c-1.3-1.7-2.9-2.5-4.7-2.5c-2.3,0-4.1,1.2-5.3,3.7
			c-1.2,2.5-1.8,5.9-1.8,10.4c0,2.5,0.2,4.7,0.6,6.5s1,3.2,1.6,4.3c0.7,1.1,1.6,2,2.5,2.5c1,0.5,2.1,0.8,3.2,0.8
			c1.7,0,3.3-0.6,4.6-1.7c1.4-1.1,2.6-2.8,3.7-5.1l1.6,1.2c-0.5,1.3-1.1,2.5-1.8,3.5c-0.7,1-1.5,1.9-2.4,2.7c-1,0.8-2.1,1.5-3.2,1.9
			C317.4,429.8,316,430,314.4,430z"/>
		<path class="st8" d="M351.7,429.2h-11.2v-1.6c0.2,0,0.5-0.1,0.9-0.1c0.3,0,0.6-0.1,0.7-0.2c0.3-0.2,0.4-0.4,0.5-0.7
			c0.1-0.3,0.2-0.8,0.2-1.4v-10.5c0-1.5-0.2-2.7-0.7-3.4c-0.5-0.8-1.2-1.1-2-1.1c-0.5,0-1,0.1-1.4,0.3s-0.8,0.4-1.3,0.8
			c-0.4,0.3-0.6,0.6-0.9,0.9c-0.2,0.3-0.4,0.6-0.5,0.8v12c0,0.6,0.1,1,0.2,1.3s0.3,0.6,0.6,0.8c0.2,0.1,0.4,0.3,0.7,0.4
			c0.3,0.1,0.6,0.2,0.9,0.2v1.6h-11.3v-1.6c0.3,0,0.6-0.1,0.9-0.1s0.6-0.1,0.8-0.2c0.4-0.2,0.7-0.4,0.8-0.8c0.1-0.3,0.2-0.8,0.2-1.3
			v-24.9c0-0.5-0.1-1-0.3-1.5s-0.4-0.9-0.8-1.2c-0.2-0.2-0.6-0.3-1.1-0.5c-0.5-0.1-0.9-0.2-1.3-0.2v-1.6l9.2-0.6l0.3,0.4v15.4h0.1
			c0.5-0.5,0.9-1,1.3-1.4s0.8-0.8,1.4-1.2c0.5-0.4,1.1-0.7,1.8-0.9c0.7-0.3,1.5-0.4,2.4-0.4c2,0,3.5,0.7,4.5,2.1s1.5,3.2,1.5,5.5
			v10.9c0,0.6,0.1,1,0.2,1.3s0.4,0.6,0.8,0.8c0.2,0.1,0.5,0.2,0.7,0.3c0.3,0.1,0.6,0.2,1,0.2v1.4H351.7z"/>
		<path class="st8" d="M377.6,428.7l-8.8,0.6l-0.3-0.3v-2.9h-0.1c-0.4,0.5-0.8,0.9-1.2,1.4s-0.9,0.8-1.4,1.2
			c-0.6,0.4-1.2,0.7-1.8,0.9c-0.6,0.2-1.4,0.3-2.5,0.3c-1.9,0-3.3-0.7-4.3-2c-1-1.4-1.5-3.3-1.5-5.7V412c0-0.6-0.1-1.1-0.3-1.4
			c-0.2-0.4-0.4-0.7-0.7-1c-0.2-0.2-0.6-0.4-1-0.5s-0.8-0.2-1.1-0.2v-1.6l9-0.6l0.2,0.3v14.9c0,1.5,0.2,2.7,0.7,3.4
			c0.5,0.7,1.2,1.1,2,1.1c0.9,0,1.7-0.3,2.4-0.8c0.7-0.6,1.2-1.1,1.5-1.8v-12c0-0.5-0.1-1-0.2-1.4c-0.2-0.4-0.4-0.7-0.7-1
			c-0.2-0.2-0.5-0.3-1-0.4c-0.4-0.1-0.8-0.1-1.3-0.1v-1.6l9-0.6l0.3,0.3v17.2c0,0.5,0.1,1,0.3,1.3c0.2,0.4,0.4,0.7,0.8,0.9
			c0.2,0.2,0.5,0.3,0.9,0.4s0.7,0.1,1.1,0.1V428.7z"/>
		<path class="st8" d="M403.6,429.2h-11.2v-1.6c0.2,0,0.5-0.1,0.9-0.1c0.3,0,0.6-0.1,0.8-0.2c0.3-0.2,0.4-0.4,0.6-0.7
			c0.1-0.3,0.2-0.8,0.2-1.4v-10.5c0-1.5-0.2-2.7-0.7-3.4c-0.5-0.8-1.2-1.2-2.1-1.2c-0.5,0-1,0.1-1.4,0.3c-0.4,0.2-0.8,0.4-1.3,0.8
			c-0.4,0.3-0.6,0.6-0.9,0.9s-0.4,0.6-0.5,0.8v12c0,0.5,0.1,1,0.2,1.3c0.1,0.4,0.3,0.6,0.6,0.8c0.2,0.1,0.4,0.3,0.7,0.4
			c0.3,0.1,0.6,0.2,0.9,0.2v1.6h-11.3v-1.6c0.3,0,0.6-0.1,0.9-0.1c0.3-0.1,0.6-0.1,0.8-0.2c0.4-0.2,0.7-0.4,0.8-0.8s0.2-0.8,0.2-1.3
			v-13c0-0.5-0.1-0.9-0.3-1.4c-0.2-0.4-0.5-0.8-0.8-1.1c-0.2-0.2-0.5-0.3-0.8-0.4s-0.7-0.2-1.1-0.2v-1.6l8.8-0.6l0.3,0.3v3.2h0.1
			c0.3-0.4,0.8-0.8,1.3-1.3s1-0.9,1.4-1.3c0.5-0.4,1.1-0.7,1.8-0.9c0.7-0.3,1.5-0.4,2.4-0.4c2,0,3.5,0.7,4.5,2.1s1.5,3.2,1.5,5.5
			V425c0,0.6,0.1,1,0.2,1.3s0.4,0.6,0.8,0.8c0.2,0.1,0.4,0.2,0.7,0.3c0.3,0.1,0.6,0.2,1,0.2V429.2z"/>
	</g>
</g>
</svg>
